<?xml version="1.0" standalone="no"?>
<!DOCTYPE svg PUBLIC "-//W3C//DTD SVG 1.1//EN" "http://www.w3.org/Graphics/SVG/1.1/DTD/svg11.dtd" >
<svg xmlns="http://www.w3.org/2000/svg">
<metadata></metadata>
<defs>
<font id="londrina_sketchregular" horiz-adv-x="974" >
<font-face units-per-em="2048" ascent="1638" descent="-410" />
<missing-glyph horiz-adv-x="409" />
<glyph horiz-adv-x="2048" />
<glyph horiz-adv-x="2048" />
<glyph unicode="&#xd;" horiz-adv-x="681" />
<glyph unicode=" "  horiz-adv-x="409" />
<glyph unicode="&#x09;" horiz-adv-x="409" />
<glyph unicode="&#xa0;" horiz-adv-x="409" />
<glyph unicode="!" horiz-adv-x="444" d="M338 825l4 -98l2 -20q-2 -2 -2 -9l4 -233l4 -86l2 2q2 -2 2 -8t2 -11l-2 -6l-12 -4q-2 -2 -10 -2v4l-148 -4q-4 0 -24 -4q-4 2 -25 2h-22q-4 -4 -4 -8q-12 12 -31 12q2 2 4 2v2q2 0 4 -2v2q4 4 6 4q-2 2 -2 7v2q2 0 2 4l-2 47v26q-4 20 -4 33l2 99v71q0 2 2 4l-2 2h2 q-2 2 -2 15l2 14l-4 21l2 28v37q-2 4 -2 18v21h-2l-2 381q0 45 4 90t6 47l2 21q-2 4 -2 26v29l2 24l10 3q2 0 5 2v2q2 0 4 2l6 -4q66 0 84 8l26 2h15l39 -2q4 2 57 2q10 -10 12 -10v-7q-4 -4 -4 -8v-6l-2 -4q2 0 1 -3t-1 -15l2 -279h-2q-8 -166 -8 -285zM328 731l-2 49v127 q0 141 -4 170v41l-3 35q4 12 5 23v53q0 2 2 4l-2 10q2 2 2 6h-2q-2 12 -2 30.5t4 31.5l-2 102l-117 -2l-70 2q-12 0 -17 -3t-5 -80t2 -341l-13 -106l2 -9h-2v-4q0 -4 2 -6l-4 -2l4 -8l-2 -453q0 -31 11 -30h35q4 4 14 4h12q125 6 156 18q-4 217 -4 221v117zM350 178l-4 -168 h-4v-8q-6 0 -10 -8q-2 0 -4 2l-2 4q-6 6 -23 6q-12 -4 -22 -4h-19q-29 -4 -47 -4t-47 6l-8 -2v2l-39 2q-4 0 -17 -2v4q-8 6 -8 8v31q4 125 13 182h-3q-6 6 -6 9l2 2q0 4 19 10v2q8 8 41 8l106 -8l56 4q20 0 30 -10l2 -17l2 -6q-4 -4 -4 -26zM125 221l-4 -71v-27q2 -18 2 -43 l2 -33q2 -2 1 -9t4 -10t20 -3l40 4v-2l62 6l20 -2l56 8q4 10 6 94l-4 64q-4 14 -16.5 17t-63.5 3q-106 4 -113 6z" />
<glyph unicode="&#x22;" horiz-adv-x="774" d="M694 991l-2 -8q0 -16 6 -27l-10 -4q-2 -2 -10 -2v2l-39 -2q-2 2 -12 2v-2q-2 2 -4 2h-19q-10 0 -12 -2h-39q-14 0 -16 -2q-2 2 -21 2h-18q-2 -2 -2 -4l-7 2q-4 0 -10 6v41q-2 2 -2 7.5t-2 7.5l-2 188l2 10v19l-2 73l4 86l4 25q-2 2 -2 27l2 12h8l9 4q2 0 4 -2h37l32 4 h115l8 -4l-6 -53v-131q0 -4 2 -6v-5q-2 -4 -2 -12v-16q0 -4 -2 -6l2 -11q-2 -2 -2 -14l2 -20v-15q0 -14 -2 -18q2 -2 2 -21l6 -88h-2q2 -6 2 -10l-2 -8h2h-2l2 -12q-2 -6 -2 -11zM100 1450l9 4q2 0 4 -2h37l32 4h115l8 -4l-4 -25l-2 -159q0 -4 2 -6v-5q-2 -2 -2 -12v-45 q0 -33 -2 -55q2 -2 2 -21v-41q0 -68 5 -96.5t5 -30.5l-10 -4q-2 -2 -10 -2v2l-39 -2q-2 2 -12 2v-2q-2 2 -5 2h-18q-10 0 -12 -2h-39q-14 0 -17 -2q-2 2 -20 2h-18q-2 -2 -3 -4l-20 6l4 2v41q-2 2 -2 7.5t-2 7.5l2 47v30q0 2 2 5q-2 2 -2 6l2 8q-2 2 -2 8v31q-2 2 -2 8v10 l-2 35l2 10v19l-2 73l4 86l4 25q-2 2 -2 27l2 12h8zM100 1139l2 -27l-4 -6v-59l6 -39q0 -14 2 -17v-28l33 -2q4 2 13 2h22q2 2 21 2h69q14 0 25 6l-8 274q2 4 2 22.5t-2 20.5v31q0 12 2 14l-2 43q0 4 2 19v49l-97 -2h-61q-14 0 -14 -17l2 -59v-55l-7 -41q0 -2 3 -4l-7 -19 v-55q0 -2 2 -4h-4q0 -4 2 -4l2 -31q-4 -4 -4 -14zM489 1139l3 -27q-2 -2 -3 -10l3 -2h-3v-88l5 -4q0 -14 2 -17l-4 -16q2 0 4 -2v-10l32 -2q4 2 13 2h22q2 2 21 2h69q14 0 19.5 4t5.5 2q0 57 -8 188l-2 33q0 10 2 12v21l2 43q0 18 -2 20v31q0 12 2 14l-2 43q0 4 2 19v49 l-97 -2h-49l-14 2q-12 0 -12 -10q2 -31 2 -50v-73l-6 -41q0 -2 2 -4l-6 -19l2 -94q-5 -4 -5 -14z" />
<glyph unicode="#" horiz-adv-x="1370" d="M1319 946l2 -22l-2 -80q2 -4 2 -27v-26q-10 -4 -10 -11h-8q-4 4 -9 4h-6v2l-8 -2q-27 0 -29 2q-102 -4 -123.5 -4t-23.5 2q-31 -86 -86 -258l117 -2q2 -2 18 -2l72 -2q23 0 32 2q2 -2 27 -2v-8q2 -2 2 -4l8 -4q-2 -2 -4 -8h-2q0 -8 2 -11v-30q2 -27 6 -35l2 4v-25 q0 -18 -2 -22q2 -4 2 -27v-26q-10 -4 -10 -11h-8q-4 4 -8 4h-6v2h-312q-16 0 -69 -155l-15 -41h-2q-27 -55 -26 -74q-6 -12 -6 -22l-5 -11l-8 -4q-4 -10 -13 -10t-11 -2v-2l-39 2l-15 2v-2l-12 2q0 -2 -2 -4l-2 4l-63 -2q-27 0 -29 2l-2 -2l-29 -2l-16 6l-4 -6q-4 0 -4 11 t11 45t26.5 71t30 87t40.5 110h-12l-12 2l-2 -2q-2 0 -5 2h-94q-2 -2 -20 -2h-99q-6 -29 -30.5 -84.5t-55.5 -147.5h-2q-2 -2 -2 -8h-2q-18 -41 -18 -55l-4 -11h-2q0 -4 -5.5 -9t-9.5 -6t-8 0t-8 -1v-2l-39 2l-14 2v-2q-4 0 -10 2q0 -2 -3 -4h-4v4l-63 -2q-27 0 -29 2l-2 -2 l-26 -2l-19 6q0 -4 -2 -6q-4 0 -4 14.5t51 151.5q20 78 55 153l-14 -2q-12 4 -53 1t-43 -5l-27 4l-4 9q-2 2 -2 8q4 0 4 2l-4 43q2 2 2 14h-2q6 6 6 21l-10 49q2 2 2 20l-2 25q-4 0 -4 2t5 10t5 19l6 -5q0 -4 -2 -4l10 -4l3 2l4 -4l4 4h80l47 2l73 -2q18 45 19 66l2 6h-2 q18 31 37.5 97.5t27.5 88.5h-6q-2 0 -4 2l-24 -4h-125q-12 4 -23 4l-4 -4q-4 0 -6 2l-82 -6l-6 2l-2 27h-4v197l4 -9l100 -2q2 2 53 2l179 -4q20 0 30.5 19.5t30.5 91.5q33 117 43 137l4 21q0 18 2 20h2q-2 2 -2 6q2 0 4 2l6 21q12 -6 37 -6l49 2h19l6 -2l25 2l24 -2 q6 0 19 4h20l16 2q8 0 15 -11l-2 -6h2q4 6 12 6q0 -8 2 -10h-2q-2 -2 -2 -18h-2q-27 -66 -57 -172q-29 -82 -29 -103l33 -2q0 2 4 2h20v-2q4 0 4 1t4 1l3 -2v2q2 -2 20 -2h12l148 2q4 18 12 37q29 61 74 221l2 7q0 18 2 20h2q-2 2 -2 6q2 0 4 2l4 21q12 -6 39 -6l49 2h19 l6 -2l24 2l25 -2q6 0 18 4h21l14 2q10 0 16 -11l-2 -6h2q4 6 11 6q0 -8 2 -10h-2q-2 -2 -2 -18l-4 -17l-5 -10l-4 -4q-4 -12 -4 -18l-4 -2l-67 -228l69 -4q23 0 33 2q12 -4 41 -4v-24zM639 1276l-12 4h-84l-2 -4v-4l2 6q0 -6 -2 -6l-2 -4q-4 0 -4 -21l-13 -51q0 -4 -2 -6 l-6 -27q-35 -127 -51 -143l-4 -19l-15 -30q-2 -2 -22 -2h-240q-10 0 -22 4h-19q-51 0 -51 -55l6 -84q0 -31 -10 -31q2 0 31 4h16q6 0 20.5 1t20.5 1l-4 4h2l21 -4l131 -2l32 4q2 -2 6 -2h31q-31 -80 -54.5 -162t-31.5 -106.5t-16 -32.5q-20 -16 -53 -16t-82.5 10t-63.5 10 l-31 -25l11 -51l2 -59l20 -37h17q4 0 20 1t21 1l-5 4h3l20 -4h57q-53 -125 -69 -186l-8 -23l-25 -59q-14 -29 -14 -40t2 -11q47 6 80 6l108 -11q8 0 14 23q4 16 8.5 27.5t2.5 11.5v2l28 63v7q2 0 2 3t2 5l11 33l6 12q4 4 6 10l25 68q12 29 22 63h115q16 0 18 2h103l14 -2h49 q-37 -80 -70 -190l-8 -23q-25 -43 -37 -110q61 -6 130 -6.5t69 16.5q0 4 -2 4q2 2 22 51q0 16 11 27l16 57q6 20 18.5 37.5t12.5 23.5q0 18 18 54q6 29 10.5 34t7.5 10t7 7q12 6 22 6l9 -2h2q4 0 14 -1t14 -1l-2 2h60q16 0 18 2q2 -2 13.5 -2t15.5 4l30 -2q10 2 15 2 q10 -10 63.5 -10t61.5 10t8 39q0 111 -39 111h-14q-29 0 -31 2h-35q-4 0 -24 4h-148l37 116q8 25 31.5 94.5t33.5 102.5q12 -6 19.5 -6t11.5 4l33 -2q10 2 13 1t7 -1h15q4 0 36.5 1t69.5 -19v20l4 78l11 72q-27 0 -29 2q-2 -2 -18 -2h-15q-29 0 -31 2l-67 2l22 88 q33 129 52 159l14 27q20 37 20 39l-34 2q-20 0 -35 -2h-23q-16 -4 -23 -4t-14 4h-79l-11 -27q-61 -172 -68 -205.5t-11.5 -43t-4.5 -33.5l-198 -2q-12 0 -15 2h-2l-24 -2q-2 0 -4 2h-62q0 16 68 219l8 24q6 20 14 37q14 29 15 33l-2 2q-33 -6 -52 -6h-39q-6 -2 -13 -2t-7 -2 zM702 502h-219q72 193 107 313l211 -2q2 -2 30 -2h62q-23 -61 -44.5 -133t-57.5 -174l-60 -2q-12 0 -14 2h-17zM598 524l12 2l78 2v-2h2q0 2 4 2h21v-2l8 2l2 -2v2q2 -2 6 -2h27l16 2q12 25 84 258h-29.5t-27.5 2h-4l-11 -2l-12 2h-74l-12 3l-2 -3q-2 0 -4 3l-76 -3 q-14 -43 -42.5 -130t-45.5 -132h51z" />
<glyph unicode="$" horiz-adv-x="911" d="M651 903l-53 -2q-4 2 -14 4q-23 2 -23 15q-4 12 -8 48t-10 57.5t-28.5 40.5t-45.5 19t-47 -12l-21 -29q-20 -27 -20 -61q0 -94 201 -205l86 -43q-14 0 -43 13q6 -4 16 -11q23 -10 27 -14v10q10 -16 37 -49q66 -80 65 -92l55 -74q4 -23 23.5 -77t25.5 -169q0 -2 -9 -27.5 t-10 -28.5t-9 -24.5t-12.5 -26.5t-14.5 -22.5t-19 -25.5t-22.5 -21.5t-25 -21.5t-60.5 -36t-78 -36v-16l-4 -2h4l-4 -2v-13h4v-135q0 -6 2 -8v-2q0 -2 2 -4l-10 -2q0 -4 -6 -4q0 2 -4 2l-238 2l-20 -2h-4q-2 0 -4 -2h-33q0 6 14 6l-6 53q2 59 2 90l2 12h-4v23l-37 12 q-125 41 -157 88q-55 59 -90 226l16 149v25q47 6 86 6l145 -6h21q20 0 22 2q4 -2 15 -4q18 -2 21 -13.5t6 -44t7.5 -52t14.5 -42.5q18 -49 78 -49q16 0 34 14l19 35l20 29l-20 73l-21 31l-49 49q-61 61 -82.5 76.5t-50.5 42.5t-45 34t-27.5 16.5t-17.5 17.5q-25 33 -43 51 l-43 45q-88 90 -90 248q-8 14 -8 33q2 4 15 50t19.5 57t28 47t45.5 50q78 45 172 56v12h-4q4 4 3 7t-1 36l2 78v41q-4 4 -4 12l-2 2h6l2 4l15 2q4 0 10 -2l164 -2q27 0 57 2l59 4h5v-4l-13 -4v-154h6l-2 -32q18 0 89 -27t96 -57q51 -51 71 -135q2 -8 9.5 -40t9.5 -36 l-19 -133q0 -18 2 -21q-29 -4 -43 -4h-38zM582 -115l2 82l-2 64q39 0 100 28q6 0 14.5 14.5t16.5 14.5l32 18q43 29 59.5 55.5t24 62.5t13.5 47.5t6 38t-14 52.5l6 46q-8 35 -58.5 108.5t-68.5 114.5l-39 35l-41 53l-47 24l-72 48l-27 24l-77 31l-13 22q-47 84 -47 130 t36 79t64.5 33t53.5 -6q59 -37 71 -76q4 -14 8.5 -50t8.5 -52h231l15 6q-2 2 -2 16l8 86q0 61 -6.5 94t-44 77t-111.5 83q-33 14 -98 31l-13 129q0 37 -2 46t-12 9l-22 -2l-5 2l-139 2l-45 -2h-6q2 -2 2 -37l-2 -82v-53q-51 0 -119.5 -22.5t-97.5 -62.5t-39 -86t-15.5 -55 t-5.5 -30.5t13 -50.5l-4 -41q8 -33 52 -102.5t60 -102.5l2 -16l54 -31v2l49 -35h-6l10 -6q14 -16 45 -30q8 -25 19.5 -35.5t28.5 -20.5t24 -16l20 -17l27 -28l57 -8q45 -92 45 -146.5t-33.5 -87.5t-81.5 -33h-18q-12 4 -18 4q-51 35 -62.5 64t-13.5 42t-5 43t-8 50h-231 l-14 -10l-8 -94q0 -117 75.5 -212.5t198.5 -119.5l4 -51h-4l4 -92l-4 -23l6 -2h-6l4 -2l2 -2l154 -8q29 -4 37 -4t20 13t16.5 13t8.5 -4v10z" />
<glyph unicode="%" horiz-adv-x="1236" d="M883 1440l75 6q2 -2 3 -10h-3l3 -6q2 6 12 6l2 -11h-2q-2 -2 -2 -22l-15 -33l-4 -18l-16 -43l2 -4l-23 -58q-41 -133 -174 -522t-149.5 -439t-29.5 -71.5t-13 -32.5l-12 -28l-2 -13l-29 -69q0 -10 -6 -17l-4 -20l-7 -10q0 -4 -2 -7l-8 5l-2 10l-4 -10q0 -8 -2 -11h10 q-8 -8 -14 -6t-10 0v-2l-43 2v2l-17 -2l-12 2q0 -2 -2 -4h-4v4l-70 -2q-31 0 -33 2l-2 -2l-28 -2l-19 6l-4 -8q-4 0 -4 18.5t55 165.5q59 193 111 293q-2 0 -2 4q14 14 14 39q2 0 4 -2q45 139 52 144l-4 2q45 88 100 274t88 266l18 54q8 16 9 32l8 23q4 16 4 20l18 58 q2 2 2 22h2q0 4 -2 6q2 0 4 2v9q2 2 7 16q14 -8 49 -8l47 2zM897 1419l-98 4q-47 0 -56 -8l-18 -29l-2 -12l-29 -82q0 -12 -2 -14l-18 -59q-2 -2 -2 -15l-21 -51q-2 -2 -2 -10l-35 -107q0 -2 -4 -2v-8q-2 -2 -4 -2l-10 -39q-2 -2 -2 -4v-10q-2 0 -4 -2l-6 -29q-4 -4 -29 -86 q-4 0 -4 -3t2 -5q-6 -6 -6 -17l-10 -20l-39 -113q-8 -8 -9 -22l-45 -111q-2 -2 -2 -12q-6 -6 -6 -16l-8 -25q-2 0 -4 -2l-2 -4l-4 -17l-4 -4l-19 -53q0 -6 -2 -8h-2q0 -10 -2 -12l-12 -27q0 -6 -6 -12q0 -8 -2 -11l-9 -26q-4 0 -14 -40t-20 -69l-13 -35q0 -8 -6 -14l-2 -12 l-26 -70q0 -8 -3 -10l-14 -35l-6 -29l41 3v2l18 -2q20 4 39 4h43q41 0 60 6l2 10q0 6 2 8l67 191l2 14l7 10l2 17h2q0 4 2 6h2q0 10 2 12l26 66q0 6 2 8l17 51q2 2 2 14h2q2 2 2 9l14 34q2 2 2 15q6 6 7 14l8 12l2 15q51 129 51 143l4 4q2 20 6 27h2q2 2 2 6q6 6 6 16l17 43 l2 8l2 7q2 0 4 7t6 11l33 107q0 8 2 10l4 2l16 57q2 2 3 12h2q2 2 2 19l16 43q0 14 5 19t5 14q10 20 12.5 33.5t4.5 19.5l16 39l2 12l16 43q0 14 7 14l4 15q0 10 2 12l12 35q2 2 2 14q23 59 29 90zM1178 561l2 -22l2 -17q0 -8 2 -10l-2 -2l8 -51v-23l-2 -24l2 -19 q0 -16 -2 -18l-6 -56q-4 -29 -4 -30l-11 -53q0 -12 -12 -36t-12 -26t-2 -6l-11 -27l-22 -22l-12 -15l-13 -8q-37 -14 -41 -18l-8 -2q-2 0 -4 -2l-45 -15q-2 0 -4 2v-2l-4 2v-2l-16 2l-25 2v3q-8 0 -10 -3l-35 11l-70 43l-4 8l-10 8v2q-2 2 -4 2l-2 6q-8 0 -8 4l-29 50l-8 22 v8q0 6 -4 11l-13 81q-2 4 -2 10.5t-2 8.5h2l-2 6h2l-2 18q0 14 -2 17l8 82q0 16 2 18l13 96l22 58q4 2 4 4t2 4l13 18l10 15l35 39v2q4 0 78 30l43 5q14 0 17 2t5 0l19 2l12 -4q2 0 4 -2h4q8 -2 25.5 -10.5t29.5 -8.5l2 -2q10 0 11 -8h4l6 -8l8 -6l4 -5q4 -8 8 -14 q16 -18 17 -22q2 -6 8 -13zM457 842l-11 -17q0 -2 -2 -6l-10 -26l-22 -23l-13 -14l-45 -25l-16 -4q-2 0 -4 -2l-45 -14q-2 0 -4 2v-2l-4 2v-2l-17 2l-24 2v2q-8 0 -11 -2l-34 10l-19 2q-18 10 -20 10v4q-8 4 -17.5 14.5t-13.5 12.5l-4 8q-4 2 -5 4t-5 4l-21 23v4l-16 29 l-15 30v9q0 6 -4 10l-12 82q-2 4 -2 10t-2 8h2l-2 6h2l-2 19q0 14 -2 16l8 82q0 16 2 18l12 97q4 10 9.5 21.5t8.5 18.5t5 13t6 12l23 33l8 6v2q2 2 4 2l6 11l16 18v2q2 0 4.5 4t10.5 4q4 4 4 6l6 2q6 0 8 2l45 13l43 4q14 0 17.5 2t5.5 0l18 2l12 -4q2 0 5 -2h4 q8 -2 25.5 -10.5t29.5 -8.5l2 -2q10 0 10 -8h4l7 -8l20 -21h4q4 -12 8 -16v-2q39 -88 43 -102v-9l2 -22l2 -16q0 -8 2 -11l-2 -2l9 -117q0 -16 -2 -18l-7 -55q-4 -29 -4 -31l-10 -53l-2 -19l-6 -14q-2 -2 -2 -6q-4 -4 -4 -6zM1096 688l-15 12h-2q0 2 -8 9l-2 -2 q-14 12 -18 12v2l-54 12q-4 0 -16 -2h-25q-6 2 -10 2t-10 -2l-41 -12q-2 -2 -7 -2t-5 2q10 6 14 6v2q-14 -8 -25 -8h-2l-14 -10v-2q-14 -6 -14 -9h6l-41 -45l2 -2l-14 -18l-4 -17h-5l-4 -12q0 -2 -6 -10l2 -4l-6 -10l-12 -54q2 -2 2 -10l-6 -39l2 -33h-2q0 -18 2 -20l-6 -18 l-2 -39l2 -25l4 -41q2 -2 2 -16l4 -25l2 -10l8 -21q0 -4 2 -6l14 -30q29 -29 43 -58h3q0 -2 2 -4h4q0 -4 2 -4l24 -14q0 -2 4 -2l4 -5q4 0 5 -2l49 -22q2 -2 10 -2l37 -2q2 2 20 2q45 25 63.5 32t19.5 8t1 3v8l49 84l5 12l2 9q0 8 2 10l10 37q0 16 18 100v16l4 41v15 q0 14 -2 16v29l-4 16v10q2 0 2 4l-20 64l-33 65q-2 2 -4 3l-10 22q-2 2 -2 4zM451 934q0 16 18 100v123q0 8 -2 10v11q2 0 2 4l-20 63l-13 35q-2 10 -6 14l-2 4l-16 15l-11 22q-4 2 -16 17h-2q0 2 -2 4l-21 12q-2 2 -6 2v2l-53 12q-4 0 -16 -2h-25q-6 2 -10 2t-10 -2l-39 -6 v2l-6 -2q-18 0 -35 -16v-2q-10 -2 -15 -10q0 2 7 2q-4 -4 -11 -7l-12 -10l-6 -12q-6 0 -6 -10l-6 -6l2 -2l-23 -35l-27 -90q2 -2 3 -11l-7 -39l2 -32h-2q0 -18 2 -21l-6 -18l-2 -39l2 -25l4 -41q2 -2 2 -16l5 -25l2 -10l20 -51l14 -25l13 -18l24 -25h4q0 -4 2 -4l54 -30 l32 -15q2 -2 11 -2l37 -2q2 2 20 2l31 12q8 0 14 7l25 16q14 14 26 35l15 30q0 2 2 5l20 30l4 13l2 8q0 8 2 10zM190 1180l-2 24q0 10 5 15l28 32l8 4q0 4 19 11q12 0 14 2h27q2 2 4 2l35 -31l4 -8q0 -2 2 -4l12 -62q0 -6 4 -161l-12 -107q0 -2 -6 -14q-2 0 -6 -4v-2l-7 -9 l-30 -18l-21 -4q-37 6 -51 21.5t-17 25.5t-7 43l-7 172q0 2 -2 4zM926 604q0 4 18 10q12 0 14 2h27q2 2 4 2l21 -10l28 -63l4 -31q2 -14 2 -139v-2q0 -39 -2 -103l-8 -24q0 -2 -6 -15q-2 0 -6 -4v-2l-6 -8l-4 -2q0 -4 -4 -4l-2 -4q-18 -6 -21 -8l-20 -4q-37 6 -51.5 21 t-17.5 25.5t-7 43.5l-6 43l4 200q0 25 6 31v19q6 6 12 10q10 6 10 12zM1022 528l-2 19v14l-4 8h-4q0 6 -2 6h-2l-7 9h-4q0 4 -2 4l-10 6q-37 0 -51 -14q-6 0 -12.5 -6.5t-6.5 -12.5l-14 -53l-2 -62q-2 -2 -2 -17t4 -44l4 -82l4 -27l6 -26q4 -10 15.5 -21.5t13.5 -11.5h2 q0 2 4 2l19 -2q4 0 10 -2l16 6l19 12l6 15l6 22v92l6 44l-2 30q0 37 -6 51zM317 885l7 14q0 4 2 6l4 17l4 165q0 37 -6 52l-2 41q0 41 -21 55h-4q0 4 -2 4l-10 6h-8q-18 0 -40 -9t-22 -24l-14 -53l-2 -61q-2 -2 -2 -17.5t4 -44.5l4 -82l4 -26l6 -27q4 -10 15.5 -21.5 t13.5 -11.5h2q0 2 4 2l18 -2q4 0 11 -2l16 6zM1145 637l2 -10l10 -25l-10 33z" />
<glyph unicode="&#x26;" horiz-adv-x="1157" d="M926 2l-43 -6q-37 0 -62 35l-63 45l-70 -45q-100 -31 -352 -31q-27 0 -41 8q-186 70 -236 213q-18 53 -27 116.5t-16 90.5v109q37 164 138 235q57 57 100 68l-33 41q-25 31 -32 39t-26.5 34.5t-24.5 38t-18.5 35t-17.5 39.5t-10 39q-10 41 -10 110.5t42 138t97 105.5 q119 55 213 55.5t178 -24.5l97 -41l90 -82q33 -51 32.5 -144.5t-45.5 -195.5t-141 -182l96 -152q0 20 18.5 81t45.5 61q74 0 162 -13l86 -12q27 0 45 6q4 -45 4 -72q0 -236 -96 -434l131 -188l12 -25q14 -33 14 -43l-4 -57l-100 -2zM1071 786l-20 -2q-23 0 -27 2l-37 5 q-43 10 -131 18l-22 -6q-2 -2 -14.5 -2t-16.5 6v-39q-16 -35 -45 -170l-148 252q86 86 112 126t37 92t33.5 97t22.5 91.5t-39 95.5l-78 69q-141 66 -204 66q-133 0 -240 -45l-18 -10l2 2q-37 -20 -50.5 -36t-33.5 -59l-17 -26q-25 -39 -24.5 -102.5t6.5 -97.5t30.5 -76 t34 -57t58.5 -75.5t61 -77.5q-27 -12 -54.5 -27.5t-53.5 -27.5q-12 -18 -45 -51q-74 -76 -101 -189v-102l12 -63q16 -164 103 -248q35 -37 106.5 -64.5t165.5 -27.5q41 0 94.5 9t53.5 11q2 -8 18 -8t57 18l66 47l31 11l112 -78l58 -8h209v26q0 10 -10.5 27.5t-12.5 23.5 l4 -2l-147 203q102 229 102 479zM571 543q16 0 39 -64.5t23 -99.5v-6l-21 -39v4q-6 -14 -38.5 -26.5t-45 -14.5t-49.5 8l2 -2q-78 0 -112.5 38t-34.5 95q0 51 57 148q4 10 7 10t12.5 2t19.5 4l49 10q37 -16 50.5 -27.5t37.5 -43.5q0 4 4 4zM360 420q0 -72 95 -86 q12 -4 27.5 -11.5t24.5 -7.5t28 13q8 0 32.5 6t24.5 12l22 47q0 14 -22 74l-21 51l-6 -4q-8 0 -20.5 20.5t-15.5 24.5t-9 10q-12 8 -39 17q-43 -8 -57 -11.5t-17.5 -11.5t-5.5 -10q-41 -86 -41 -133zM381 1171l2 23v18q0 33 20 54l15 22v-4q8 16 30.5 16t36 -10t13.5 -14h-2 q18 -18 18 -103.5t-29 -119.5l-2 -11q-14 -14 -34 -14q-41 0 -62 107q-6 20 -6 36zM449 1044q31 0 46 42t15 98q0 100 -53 100h-13q-12 0 -22 -10l-14 -21q-16 0 -17 -82q0 -2 4 -30q15 -97 54 -97z" />
<glyph unicode="'" horiz-adv-x="378" d="M104 946l-10 4q-10 0 -12 2v2h6v41l-4 15l2 45v32q0 2 2 5q-2 2 -2 6l2 8q-4 4 -4 8l2 12v27q0 6 -2 10l-2 31l2 6l-2 8l2 9h-2v96l4 73l4 25q-2 2 -2 27l2 12h10q2 0 5.5 2t5.5 0h36l33 4h115l8 -4l-4 -10q0 -2 2 -4q-2 -2 -2 -11l-2 -28v-131q0 -4 1 -8.5t1 -13.5 t-2 -11v-23q-2 -2 -2 -11t2 -9l-2 -47q2 -2 2 -21l2 -67v-84l8 -17q-16 -6 -20 -6l-39 2v-2q-2 2 -12 2h-23q-41 0 -107 -2q-2 -2 -2 -4zM109 1436l2 -19h-2q2 0 2 -4v-6q0 -2 -2 -4l2 -27l-9 -129v-55h-2q0 -2 2 -4h-4l4 -4v-31l2 -168l-2 -12l-2 -2h4v-8l33 -2q2 2 13 2 h22q2 2 21 2h69q16 0 19 2q-2 2 -2 6l-3 24q0 2 2.5 2t2.5 -6l2 -12l4 -10l-2 108v47q-6 63 -7.5 69.5t1.5 8.5v21l2 43q0 18 -2 20v19l-3 14q2 0 2.5 5t2.5 7l-2 43l2 19v49l-97 -2h-63q-12 0 -12 -6zM248 956l-27 2l-6 -2h33z" />
<glyph unicode="(" horiz-adv-x="643" d="M588 1235l-2 -16v-33h-2q0 -4 2 -6q-6 6 -47 -14.5t-74 -41t-53.5 -67.5t-24.5 -75t-9 -68t-9 -68q-14 -74 -15 -121l6 -74q0 -205 33 -270q18 -35 49 -57q2 -6 50.5 -31t52.5 -25l2 -2q2 2 12 2q0 -2 2 -4h29v-215l-6 -35q-8 0 -11 -2v-2q0 -8 -104 -8q-229 0 -354 217 q-37 59 -37 90l4 23q0 6 -2 8l-4 18l-13 156l3 12h2q8 66 8 72v96l6 283l-2 49q0 10 4 31l2 30q0 94 50 189.5t134 132.5q4 4 22.5 10t20.5 8l127 13h37l51 -2q57 -4 58 -23v-176zM569 229q-14 14 -51 25v2q-12 6 -42 18.5t-38 18.5q-68 51 -84 98h-2l-4 21q-6 0 -6 16 l-16 86q-8 14 -9 43q4 12 5 23l2 2v209l6 18q-2 2 -2 6l4 4v12l-2 80l2 29v18q0 2 4 23q2 0 4 2q27 53 27 68l26 39h2l25 34h4q4 12 27.5 26.5t37.5 25.5v2l52 12q0 59 8 82l4 39v65q0 14 -6 15l-10 4v2q-18 8 -41 8l-45 -4l-123 -29l-31 -12q-6 -2 -10 -6l-21 -11 q-2 -2 -8 -2l-10 -4l-55 -41l-15 -6q-14 -18 -22.5 -28.5t-8.5 -14.5l-2 -6q-6 0 -12 -20l-4 -4l-18 -84v-504l-9 -23q0 -10 2 -12l-2 -10h2l-2 -90q0 -10 2 -13l2 -116l7 -31q2 -14 6 -23l20 -67l8 -19l17 -24q0 -16 24 -37l11 -12h4q20 -20 28 -25q2 -2 2 -4l64 -39 l172 -43q16 0 18 -2l50 -8q6 -2 10 -2l20 4l-4 20v25q0 29 6 49v102zM391 1051l-10 -23l-2 -12l-8 -25l-9 -16q-12 -57 -14 -103l-2 -53q-2 -2 -2 -11t4 -9l4 28l8 72q0 4 -2 6l4 15q0 4 -2 6l13 30q0 49 18 86h2zM350 586q-4 -4 -4 -11v-26q0 -2 2 -4l-2 -66h4q2 -2 2 -16 l4 -12q6 -8 6 -21h3q0 23 -7 45q-4 88 -8 111zM397 1057q0 4 4.5 8t4.5 6l-3 -2q-6 -2 -10 -18l4 2v4z" />
<glyph unicode=")" horiz-adv-x="641" d="M553 332l4 -23q0 -31 -37 -90q-70 -121 -160 -169t-194.5 -48t-104.5 8v2q-2 2 -10 2l-6 35v215h29q2 2 2 4q10 0 12 -2l2 2q4 0 52 24.5t51 31.5q61 45 73 151q8 76 8 176l7 74q0 47 -9.5 98t-14.5 90t-12 73t-28 77q-41 80 -168 117q2 2 2 6h-2v33l-2 16l2 4v176 q0 18 57 23l52 2h37l127 -13q2 -2 20 -8q98 -33 152.5 -136t54.5 -196l2 -30q4 -20 4 -31l-2 -49l6 -283v-96q0 -6 8 -72h2l2 -12l-12 -156l-4 -18q-2 -2 -2 -8zM117 254q-37 -10 -51 -25v-102q6 -20 6 -49v-25l-4 -20l20 -4q4 0 10 2l49 8q2 2 19 2l160 39l12 4l55 35l8 4 q0 2 2 4l5 2q10 8 24 23h4q16 20 21.5 27t7.5 9l22 37l9 19l20 67q4 8 6 23l6 31l2 116q2 2 2 13l-2 90h2l-2 10q2 2 2 12l-8 23v504l-18 84l-4 4q-6 20 -13 20l-2 6q0 4 -8 14.5t-22 28.5l-15 6l-55 41l-10 4q-6 0 -8 2l-21 11q-4 4 -10 6l-31 12l-123 29l-45 4 q-23 0 -41 -8v-2l-10 -4q-6 0 -6 -15v-65l4 -39q8 -23 8 -82l51 -12v-2q23 -14 36.5 -23.5t18.5 -12.5t11 -16h4l25 -34h2l26 -39q0 -14 27 -68q2 -2 4 -2q4 -20 4 -23v-18l2 -29l-2 -80v-12l4 -4q0 -4 -2 -6l6 -18v-209l2 -2q0 -10 4 -23q0 -29 -8 -43l-16 -86 q0 -16 -6 -16l-4 -21h-2q-4 -14 -22.5 -38.5t-36 -39t-26 -20.5t-38 -18.5t-41.5 -18.5v-2zM262 956l12 -30q-2 -2 -2 -6l4 -15q-2 -2 -2 -6l9 -72l4 -28q4 0 4 9t-2 11l-2 53q0 16 -15 103l-8 16l-8 25l-2 12l-4 10q-4 0 -6 13l-2 -9h2q18 -37 18 -86zM270 430h2q0 2 11 33 q0 14 2 16h4l-2 66q2 2 2 4v26q0 6 -4 11q-4 -23 -9 -111q-6 -22 -6 -45zM229 1071l9 -14v-4l4 -2q-4 16 -11 18z" />
<glyph unicode="*" horiz-adv-x="751" d="M190 1092q-12 6 -12 14l-20 20l2 2q0 2 -10 5l2 2l-86 96l-11 4q-2 10 -2 14t2 4l-10 13q2 0 4 2l6 -2q12 0 19 14l16 20h-2l16 21l2 -2l21 20q0 4 6 4l21 23q2 10 20 27l4 -4l35 38q0 -2 2 -2t10 9q35 -35 47 -41l29 -29l2 2l19 -20q4 -2 18 -18.5t27 -24.5h2l18 -15 l72 72l2 -2q0 2 31.5 30.5t44.5 41.5q2 -6 8 -9l-4 -4q16 -4 20 -13t6 -11v2q39 -33 60 -60q35 -41 57 -53v-4l16 -16l-2 -2q2 -2 4 -3l7 3v-7q0 -6 2 -6l-58 -65v-2q0 -10 -30 -37q-37 -31 -48 -47h3l-5 -6q0 -2 10.5 -12.5t14.5 -12.5l-2 -2q37 -47 72 -76h-2 q6 -14 14 -16l-2 -2q6 -6 13 -12.5t10.5 -9.5t6.5 -7t5 -6q2 -6 2 -16q-6 -12 -58 -64l-59 -55q-4 -4 -13.5 -14.5t-13.5 -14.5l-2 2l-10 -14l-2 2l-12 -15v3q-8 -2 -15 -9q-33 33 -51 47l-65 62q-2 0 -8 6v-2q-6 8 -18.5 19.5t-16.5 15.5q-12 -6 -33 -29.5t-29 -26.5l-2 3 l-76 -76q-18 6 -57 45t-49 45l-16 14l2 2q-16 0 -39 39l-4 -4q-4 2 -11.5 10.5t-11.5 10.5l6 8l-2 2l39 37q0 10 8 10l-2 2l45 45l-2 2l41 41l-2 2q2 6 12 10l-4 4zM236.5 1398q-3.5 3 -3.5 7t3 10l-3 2l-24 -24h10q-23 -23 -35 -25l-43 -49q0 2 2 4q-68 -59 -67 -74 q0 -2 6 -2v-4l31 -35l2 -8q0 -2 8 -2l59 -65l15 -15v2q12 -23 22 -33q-6 -12 -6 -18q-4 -12 -10 -12v2l-60 -64q0 -10 -14 -18l-20 -25q0 6 2 9q-4 -4 -17 -13q-35 -23 -35 -26l23 10q27 -41 79 -92.5t70.5 -51.5t26.5 31q29 27 50.5 46.5t25.5 25.5t12 12t9 6t20 6 q27 -27 45 -36t18 -11t-18 -2q8 -2 20 -12l27 -25q63 -59 68 -59l106 100l49 54q-31 20 -65 73l4 -2l-82 90q0 6 2 9l4 12l20 20h-4q0 2 9 11l32 34q61 45 62 80v4l-2 5v4q-4 6 -15 14h-2q-8 0 -10 4q-23 29 -37 43l-37 35q-16 12 -23 19t-10.5 9.5t-5.5 4.5t-4 2t-2 2 q-14 0 -30 -35l2 -2l-39 -35q-29 -29 -33 -29l-41 -39q6 0 -25.5 28t-40.5 30l-14 16l-20 15q-20 41 -31.5 45t-15 7zM670 1260l2 -3z" />
<glyph unicode="+" horiz-adv-x="911" d="M592 1065l4 -8l12 4l4 -6v-11q2 -2 2 -10l-4 -33q0 -8 2 -10h2q0 -2 -2 -4l2 -47h2q0 -12 -1 -30.5t1 -73.5l2 -23q0 -2 3 -4l38 2q2 -2 13 -2h30q23 0 39 -2l31 -4v2q2 0 4 -2h2q14 2 27 2l55 -2q-2 -2 -2 -15h-4l4 -20q-2 -2 -2 -23h2q-2 -2 -2 -18v-2q0 -2 2 -4l-2 -2 h2v-43q0 -41 2 -56.5t0 -17.5l-2 -43q0 -2 -2 -4l-4 -29q0 -4 8 -8q0 -12 -55 -12h-162l-10 -10l-15 -2l-8 -2q0 -4 4 -19l-12 -168h-4v-24q0 -39 -12 -45l-29 -5q-2 -2 -20.5 -2t-141.5 7l-45 -3v3l-20 -3l-23 5q-18 0 -18 16l-4 10l2 10q-4 41 -4 97v65l-2 56 q-43 8 -191 8h-29q-4 4 -14 16l2 70q0 49 -6 78v86h-2l-2 28q0 6 1 8t11 2v3l12 -3l23 3q2 2 14 2l11 -2q6 2 10 2t4 -2l4 2q25 0 39 2l45 2q43 2 76 6v2q6 0 8 2v22l6 70q0 20 2 25v16q-6 18 -6 29v4h4l6 53h2l-2 12v2q0 4 13 29h6q12 -14 20 -14t10 2l136 6l36 4v-6h39z M811 768l-33 -6h-43l-102 4h-39q0 6 -2 8v19q-2 2 -10 2l-2 227h-5v8q0 6 -47 6l-65 -2h-96q-6 -4 -17.5 -8t-13.5 -25.5t-2 -108.5v-118h-4v-4l-21 4l-2 -2l-45 -6q-135 -14 -143 -14h-37l-4 -74l-4 -2l2 -4q2 0 2 -4l-2 -13v-30q0 -2 2 -4l-4 -5q0 -4 4 -4v-10l2 -33 q-2 -2 -2 -26l18 -6h25q20 -4 82 -5h92q6 0 43 -6l2 -20q0 -16 -8 -84l6 -143q6 -6 145 -7q49 0 64 2l2 2q2 14 5 60.5t9 66.5l2 23l-2 39l2 20q0 55 15 56l4 -4l14 2q106 0 129 -2h82q6 8 6 12l-2 14q0 8 2 10h2v179l2 6h2q4 4 4 8z" />
<glyph unicode="," horiz-adv-x="385" d="M172 -203l-18 -2h-4q0 2 2 4h-7v43l5 4l2 29q4 29 7 61.5t5 40.5l2 21l-2 8l-25 -2h-39v2q-23 0 -24 -2v4q-8 6 -8 8l-5 84l5 66q6 20 12 63h-2q-6 6 -6 9l2 2q0 6 20.5 13t38.5 7l107 -8l55 4q20 0 31 -10l4 -25h-2l-11 -125h2q0 -2 -2 -4v-82h-4l-4 -16l2 -4l2 -25 q0 -35 -18 -135q2 -2 2 -18.5t-8 -16.5t-10 2l-5 -2q-2 2 -102 2zM162 27l20 2l2 2l-2 -6l-2 -33h2q0 -53 -7 -108.5t-7 -65.5q2 -2 12 -2t33 2l57 -4h2l-2 6h2q4 20 11.5 80.5t9.5 76.5l4 33l-2 10l8 109q0 2 2 4h-2q-2 16 -2 33v31l-4 18l-37 -2l-67 8q-4 0 -11 -2l-51 2 q-18 0 -22 2l-13 -2q-2 -2 -2 -24l2 -101l2 -35v-20l2 -12q0 -4 6 -4h15l41 4v-2z" />
<glyph unicode="-" horiz-adv-x="1067" d="M1057 563q0 -59 -4 -96h2q4 0 6 -8l2 -31v-6l2 -21l-2 -2q-8 0 -14 19l-105 -8h-121v-7l-88 -2h-129q-84 0 -125 -2v-4l-110 -4v-4h-33l-240 4q0 4 -10 12.5t-14 20.5h4v39h-4l2 2q0 4 2 6l-4 2l4 19v204q0 10 3 13.5t7 11.5l-8 8q6 6 18 6l168 10q23 0 23 -4l-2 -2h432 l92 9l55 4v-4l176 12l21 -21q-4 -4 -4 -8l-4 -35q0 -90 6 -133h-4zM981 494l-2 28q0 10 2 13h2l6 71v17l-8 49l2 26q0 10 -2 13q-16 -4 -18 -4l-721 -13v-4q-16 -2 -35 -3t-28 -2t-20.5 -3t-15.5 -3t-8 -5q-8 -6 -8 -21v-22q0 -37 2 -73t0 -38l2 -12l-2 -10v-15 q0 -35 18 -34l101 -3l166 3l96 6l4 2l23 -2h350l65 4l2 4v-4l15 4q-10 4 -25 8q37 0 37 23zM934 467l-8 -2q-6 0 -15 8q12 0 15 -2h8v-4zM936 467v4h6q-4 -4 -6 -4z" />
<glyph unicode="." horiz-adv-x="387" d="M319 246v-31l-4 -33l-2 -73v-25l-2 -14l2 -15q-2 -2 -2 -45h-4v-8l-14 -6q-6 10 -23 10h-2l-22 -4h-19q-12 -4 -41.5 -4t-52.5 6l-8 -2q-23 2 -49 2h-6v4q-8 6 -9 8v31q-2 2 -2 35l-2 47l4 37q6 20 13 63q-8 2 -8 11l6 8l14 4q8 8 37 8l110 -8l60 2q18 0 26 -8zM297 111 v22q-2 33 -2 64v6q0 8 -4 12l-37 -2l-41 6h-27v2q-4 0 -10 -2v2q-70 0 -74 2l-12 -2q-2 -2 -2 -24v-150q2 -2 2 -10q0 -12 25 -12l51 2q33 4 72 4l55 8q2 2 2 22z" />
<glyph unicode="/" horiz-adv-x="843" d="M49 10l-4 -8q-4 0 -4 10.5t8 39t17.5 54t19.5 52t10 28.5l33 90q20 61 29.5 80t13.5 43q12 53 31 68l4 12q-2 0 -2 4q14 14 14 35v4q2 0 4 -2q47 139 51 144l-4 2q23 41 47.5 120.5t39 116.5t42 126t32.5 98.5t29.5 82t24.5 82.5l4 8l5 15l8 24l14 54q2 2 2 22h2 q0 4 -2 6q2 0 4 2v9q4 4 6 16q14 -8 56.5 -8t117.5 2l5 -2q35 6 73 6q2 -2 2 -10l-2 -6h2q4 6 13 6l2 -11h-2q-2 -2 -2 -22l-19 -51l-10 -25l-4 -12v-10h-2q-2 0 -17 -48q-43 -156 -67.5 -225t-120.5 -350t-126 -363.5t-43 -104t-13 -32.5l-43 -110q0 -10 -6 -17 q0 -4 -19 -35l-2 13l-4 -10h-2q0 -8 -2 -11h10q-8 -8 -14 -6t-10 0v-2l-43 2l-17 2v-2l-12 2q0 -2 -2 -4h-4v4l-70 -2q-31 0 -33 2l-2 -2l-28 -2zM389 350q0 4 8 23h2l15 53h2q31 90 30 92l5 8l4 4l24 68l4 16h2q16 49 23 74l4 4q2 20 6 27h2q2 2 2 6q10 10 17.5 38t7.5 30 l2 6q4 0 10 18l10 31l2 16h2l5 25l24 67l12 37q2 2 2 13h2q16 61 22.5 73.5t6.5 20.5l6 12q0 16 31 92l37 107l2 12q2 2 2 14q23 59 29 90h-27l-6 -2q-20 4 -81.5 4.5t-70.5 -8.5l-18 -28l-21 -56q-4 -29 -8 -39h-2q0 -12 -2 -14l-16 -55l-2 -4q-2 -2 -2 -15l-39 -102 l-4 -12l-4 -11l-15 -49v-4q-2 -2 -4 -2l-22 -84q-6 -4 -7 -18l-14 -45q-12 -23 -12 -26t2 -5q-6 -6 -6 -16l-4 -5l-39 -114q-2 -10 -7.5 -15.5t-5.5 -7.5l-2 -14l-28 -66q-2 -2 -2 -10l-9 -20q-8 -14 -8 -27q-6 -6 -6 -16l-37 -90l-2 -15h-2q0 -6 -2 -8l-22 -51 q-20 -61 -21 -74l-4 -10h-2q-2 -4 -2 -9t-2 -8l-4 -16l-27 -74l-2 -4l-2 -12l-43 -115l-6 -28l41 2v2l18 -2q119 4 140 6l6 22l4 13l2 8h4l27 82q2 8 6 19t4 16l2 8q2 0 4 10q12 39 35 94l12 31zM270 657h-2l2 2v-2z" />
<glyph unicode="0" horiz-adv-x="1050" d="M115 289l-4 16h-5v8l-26 72l-4 27v6h-4l-4 26l-2 23h-5l-2 74q-8 8 -7 21t1 18h2q0 4 -2 4l2 6q0 20 -2 35l-4 82l17 90v37q0 31 6 59l4 22l4 33q6 31 7 43.5t2 18.5t1 10v4l4 18l4 31l13 39q18 39 32 76v4q16 16 16.5 22.5t4.5 6.5q6 10 35 49l20 20v4q4 4 6 4v7l15 12 v4l18 18l18 17v6q2 0 7.5 6t19.5 10q0 4 2 4h4l35 19l12 4l11 4v4l59 14l33 3v4l65 2q18 6 43 6l41 -2l80 -23q8 -4 19.5 -11t47.5 -19.5t38 -18.5l12 -4l6 -8l49 -43v-6h4q18 -45 39 -66l6 -14l17 -25v-8l12 -29q29 -76 35 -106v-17q6 -25 6 -45l2 -61l14 -109h2l2 -36v-41 q-2 -2 -2 -7.5t-2 -5.5l4 -39q0 -23 -6 -43l2 -32q-10 -55 -14 -64v-16q-8 -23 -8 -56l-4 -28l-15 -74l-30 -102q-4 -8 -9 -13l-38 -80q2 -2 2 -4h-5l-4 -14q-41 -41 -69 -80l-4 -2l-9 -2l-57 -25q0 -2 -15.5 -8t-25.5 -12l-51 -25l-78 -16h-8l-31 4q-14 0 -60 4t-46 8 l-19 5l-90 30q-6 6 -12 6v7q-14 8 -34.5 29.5t-31.5 27.5v4l-8 6v6l-45 45v6l-10 7v4l-10 14h-2q0 14 -8.5 19.5t-8.5 11.5l-20 43h-2zM821 244q2 0 17 30h4q0 16 8 17l29 71l6 5l22 98h2q4 6 6 27h3q0 41 15 137t17 121l2 41h2v8q0 45 -4 57v31q-2 0 -2 12l-8 51q0 4 2 6 l-2 13q-6 0 -6 12l2 31q0 29 -16.5 55.5t-16.5 42.5l-4 18l-35 84q-2 0 -4 2v5q-4 4 -8 4v6q-2 0 -6 4v4q-6 6 -29 45h-4l-4 16q-4 0 -10 7l-4 10l-76 49v2q-12 4 -12 8l-115 27l-29 -4l-51 2l-23 2q-16 0 -20 -4l-102 -21q-2 2 -5 2l-8 -2q-72 -39 -75 -43q0 -4 6 -4h4 q-8 -8 -23 -12l-4 -6h-6q0 -6 -16 -19l-9 -16q-2 0 -4 -2v-4q-2 -2 -14 -23.5t-55 -93.5l-2 -6l-2 -8l-15 -29l-4 -12q-4 -4 -4 -15l-4 -12l-23 -121q2 -2 2 -16l-8 -131v-25q0 -16 2 -18q-2 -8 -18 -121v-6q0 -12 6 -74h4l4 -47l2 -12q2 -2 2 -29l4 -41l21 -70l8 -20l4 -12 l4 -4q0 -20 14.5 -41t16.5 -21l6 -16l6 -2l19 -31q4 0 5 -4t3 -4l2 -6l41 -41h4l6 -8h6q16 -18 27 -23h4l2 -6h4l27 -17v-2h2q-2 -8 65 -32l5 -7l79 -20q12 -4 47 -4l17 2v2l45 4l63 19q0 8 17 8l18 10v2q14 0 43 29h4l33 43v4l8 6q0 2 -2 4q4 0 6 7t7 7zM692 944l8 -156 v-28q4 -29 5 -39l-3 -39q-2 -2 -2 -27v-37q0 -18 -2 -20l2 -45l-8 -86l-4 -27q-2 -2 -2 -20l-12 -33q0 -8 -2 -10h-2q0 -6 -6 -12l-15 -17v-4l-35 -29q0 -6 -16 -14q-25 -8 -33 -12t-30 -4l-19 2v2q-2 0 -4 -2l-37 8q-20 6 -29 10l-4 4q-57 37 -69 162l-2 8h-4v78h-7l-2 18 l7 72q0 29 -7 37v59q-2 2 -2 7v110l9 53l4 95q0 18 10 28q0 43 22 62q6 6 16.5 13t10.5 11q35 12 90 37l33 4q20 0 24 2v-4q2 2 9 2v-4l12 -4l20 -16h5q-4 0 20.5 -33t26.5 -33h4q4 0 4 -10h4l2 -51l2 -13h4l4 -49q0 -4 -2 -6h2zM668 518l-2 76h2v35h2v71l2 19h-4l2 6 q0 2 2 4h-4l-2 49q0 2 2 4h-2q0 78 -11 109l-8 123h-2l-4 26l-2 7q-2 0 -9 9t-18 21q-27 29 -80 29t-96 -43v-4q-8 -4 -16 -31v-12h-4q2 -2 2 -15h-4q-18 -88 -19 -94l-2 -65l-2 -2l2 2v-2q0 -29 -2 -31h-2l4 -6q-6 -25 -6 -56.5t10 -72.5l2 -58h4l3 -71q0 -25 2 -39h2 l2 -41h2l2 -10l6 -43l16 -37h2q0 -29 60 -43l8 -4l92 14l2 6h4q2 0 2 4h6l9 8v2q8 0 24 29q0 12 2 15l17 49q2 4 2 30v33z" />
<glyph unicode="1" horiz-adv-x="749" d="M657 1432l-2 -41q0 -2 2 -5l-2 -8l2 -176v-2l-4 -37v-90q0 -23 2 -24v-86h2q-4 -12 -4 -23l-2 -55l-4 -2h4l-4 -41l-2 -211l-4 -66v-2h-2l-6 -219h2q-2 -63 -2 -113v-28l4 -68v-22q0 -12 -4 -21l2 -8l-6 -18l4 -35h-27l4 -15l-10 -4v-2q-2 2 -33 2h-159l-78 11 q-2 0 -4 -3.5t-7 -3.5v2l-4 -2v2q-4 4 -4 7l-2 8q0 4 2 6l-4 162v55l4 49h-2q10 231 13 234l-3 45q-2 2 -2 19.5t3.5 57t7.5 125.5q6 14 6 62h-2l4 78q0 4 -2 4v18l2 21l-2 22q2 2 2 4h-2l2 31v29q-14 -14 -25 -45q-6 0 -7 -8.5t-3 -10.5h-4q-6 -20 -14 -28h-2l-11 -25 l-4 -8l-8 -6l-20 -4l-7 4l-24 4l-4 -4l-17 4l-16 -2l2 2l-25 6l3 4q-37 10 -56 10q-102 23 -104 25h-4l2 6q-4 0 -8 4v6l2 -2q6 16 12 23v2q2 0 4 2l2 10l6 14q8 14 8 25h4l52 111v8q2 2 4 2l2 6q20 27 20 43l4 10h4l27 51q0 14 23 64l12 18q2 6 2 10l10 19l4 14 q10 12 15.5 29.5t11.5 21.5v-6q2 2 12 2l49 2l17 -2q8 0 10 2v5l49 2l8 -5v5l19 -2v-5q25 0 26 -2v4q2 -2 21 -2l102 5l39 -5v-6l47 6v-2q14 4 19 4l18 -8q2 0 2 -4t1 -9t-1 -7h4l4 -10h2zM594 815l4 94v15l-2 231l2 16q-2 2 -2 9l4 129v37q2 2 4 2v20l-2 57h-53v-4h-70 l-63 -8h-51q-66 0 -125 -2v2q-2 -2 -15 -2h-12l2 -6h-2l-31 -53v-6q-2 -2 -6 -3l-6 -18l-35 -72l-6 -20l-4 -2l-21 -49l-18 -39l-12 -33h-4l-4 -18q-4 -4 -11.5 -24.5t-9.5 -25.5h-2q0 -2 -10 -19t-10 -22q2 2 2 5l213 -56q4 0 8 6q0 14 24 43v5h4l35 75h4l17 35l28 39 q4 8 13 10v-4l4 2q6 0 12 -18q-10 -10 -10 -26.5t2 -18.5l-4 -72q0 -16 2 -18v-29q0 -25 -2 -41h4l-4 -2l2 -14v-27q0 -37 -4 -41h-2q0 -8 4 -8q-2 -4 -2 -27v-26q-10 -233 -10.5 -342t-2.5 -140l2 -262q2 -2 25 -2l4 2l12 -2l97 10q6 2 26 2h27q16 0 25 11q16 25 16 190 l-2 88q0 31 2 33q-2 2 -2 6v57l-2 39q0 20 2 25l-4 2q6 39 6 127l-2 47l2 16v48q2 2 2 16z" />
<glyph unicode="2" horiz-adv-x="1019" d="M879 1317l2 -10l2 -7h4l2 -10q4 -4 9 -15t7 -13l8 -45h5l4 -21l18 -139l4 -13v-28q0 -2 6 -45l-14 -111l-27 -90l-28 -51q-2 -2 -4 -2v-6q-4 0 -5 -2q-4 -10 -32 -47q0 4 -2 6l-62 -50l-12 -6h-6q-45 -27 -53 -26h-3l-26 -13q-16 0 -19 -2l-18 -4q-63 -33 -68 -32v-3 l-14 -6q-20 -6 -49 -26l4 -2q-25 -10 -29 -21h-4q-16 -16 -18 -16l-19 -25q-10 -12 -26.5 -47t-24.5 -49l25 -43l59 -2h21q2 2 24 2l58 2q10 0 12 -2q29 4 36 4t9 -2v-2q2 2 4 2h55v4h21l59 -4v-2h2q2 2 7 1t10 -1l22 2l39 -2q45 0 59 6l11 -14v4l4 -2v-15q-6 -10 -6 -38 l2 -48l2 -79q0 -2 -2 -5h2l-2 -18v-10l2 -17v-2l-2 -28h-2q0 -2 1 -6.5t1 -6.5l-4 2q-2 0 -4.5 -1t-4.5 -1q2 -2 2 -8h-2q-2 6 -14 6h-10l-29 -2l-18 2h-21l-143 -8q-2 2 -8 2v-2l-15 2l-2 -2l-24 4q-6 0 -9 -2q-10 -2 -56 -6t-52 -5t-10 -1h-11q-12 0 -14 2v2q-4 2 -24 2 h-48l-90 -2h-123q-20 -4 -26 -4t-8 2l-62 4l-6 6h-6v4h-6q-2 0 -6 17q-4 2 -8.5 5t-6.5 3q2 2 2 24v58l4 45v33h-4l4 16h-4v18h4v56q25 111 25 143h2q2 20 6 27h2l6 20h4q14 37 19 41l16 17v4q49 49 58 49l6 6h4q2 0 2 4h6q23 12 47 37h4q2 2 2 6l15 4q18 18 137 90l14 6h6 q0 4 2 7l50 24l4 8l47 31v4h6q4 6 35 37v4q4 2 26 31l4 12l11 47l2 51q-18 63 -25 64v6l-4 6q-4 0 -9 9.5t-16 9.5l-10 2v4l-49 14h-27v-4l-18 -4h-6l-62 -62l-4 -12l-10 -24l-10 -62q4 -20 4 -24l-4 -2v-35h-4q0 -27 -29 -27l-27 2l-12 -2v-2q-27 0 -28 2h-41v-2 q-2 -2 -31 -2h-4l-27 2v-2q-4 0 -6 2l-53 -2h-11v-4q2 0 5 -2q-29 0 -37 7t-8 24v108l2 4l-5 35q0 2 9 68l14 82l2 16h4l2 14l17 49l20 45l23 29h4l6 8h6q0 6 39 33v4l20 8v2q2 2 9 2v5l71 22q66 16 78 17l27 2l78 8h47q29 4 41 4l79 -6v-2l29 -6v-3l19 -2q25 -16 73 -26v-2 q29 -8 62 -41h4l31 -35zM795 682q0 10 7 10t9 2v4h4q2 6 33 37v4q2 0 4 2v9l8 6l4 14q2 0 4 2v6l6 4l25 80h4l4 25q6 43 6 49v72q0 10 -4 39v22l-2 21q-20 70 -20 108h-4v4q-35 121 -54 121v6q-4 0 -4 2v4q-10 0 -14 13h-6q0 6 -36 24.5t-44 18.5l-14 2l-2 4l-33 10l-27 2 l-26 4h-5l-102 6l-31 -4q-12 0 -84 -10l-43 -14v-5l-71 -12q-18 -2 -23 -6v-2q-10 0 -28 -23h-5q-2 -2 -2 -6l-18 -6l-51 -45l-19 -47q0 -4 -2 -8l-8 -25l-6 -24q-2 -2 -14 -74l-2 -70l-3 -16h-4l4 -12h-4l-2 -33q2 -2 2 -8h-2q2 -2 2 -23h-2q2 -10 2 -22q-4 -35 9 -35 l12 -2v-6l20 4v-4h103l49 8v-4l2 4l14 2h8q8 0 13 4h-4q-2 2 -4 2v4h16q8 20 8 25q-6 29 -6 43l2 12h2q2 4 9 36t18 56l18 33l15 12l4 8h6q2 12 10 13h4l12 6q4 4 16.5 8t18.5 8l35 4v2l10 2q10 0 96 -36l31 -37l4 -13h4l9 -71l2 -13h4v-36l4 -9l-2 -28q0 -6 2 -8h-2 q-2 -2 -2 -15q-4 -39 -43 -78v-6q-2 0 -45 -35l-6 -2q0 -6 -11.5 -10t-15.5 -4v-2q-2 -2 -6 -3t-4 -5h-4q-2 0 -2 -4h-7q-8 -8 -11 -13.5t-87 -44.5l-10 -4v-2q-10 -2 -21 -14l-14 -4v-4l-10 -2l-4 -7l-54 -30q-10 -2 -16 -11h-4l-4 -6h-6l-31 -22q0 -2 -4 -6h-4l-39 -39h-4 l-25 -25h-4q0 -8 -12 -12q-10 -18 -23 -29v-4q-16 -16 -16 -24.5t-2 -12.5l-10 -51l2 -22q0 -20 -13 -107l4 -29h-4v-65l-4 -2v-76q0 -2 -2 -4v-8q0 -14 3 -19.5t20 -5.5h10q2 0 4 2h17q14 0 20 -6l-6 -4h8v8l12 -8l115 10l18 -4q4 0 7 2h145v2l35 2l88 2q2 0 22 4l31 -6h80 l31 2q27 0 30 -2l80 2v4l6 -4v4q25 0 30 7.5t5 33.5l2 4l-10 132l2 14q0 4 -2 10q-74 8 -104 8v6q-23 -2 -44.5 -2t-21.5 2l-37 -6l-43 2q-6 0 -11 1t-7 -1h-35l-51 -4l-35 2q-4 -4 -51 -4l-80 2v8q-12 0 -19 7l2 88h5q0 16 2 18h2q-2 -2 -2 -6l10 33q2 0 18 28 q0 8 15.5 20.5t19.5 24.5h4v5l27 18q4 0 12 8l49 25l2 6l9 4q12 4 25 10t28 12v5l18 4h8l123 61h4q2 2 2 4h7zM436 444v2q-2 0 -8 -14h2q6 6 6 12z" />
<glyph unicode="3" horiz-adv-x="1007" d="M614 1438l70 -6l12 -5v-4l49 -20q14 -4 15.5 -5t1.5 -5l33 -15q16 -6 16 -12h6q6 -18 17.5 -26.5t13.5 -8.5v-4l8 -6v-6l14 -8l25 -47l16 -46q10 -41 11 -55l2 -129h4l-4 -18l4 -2h-4v-31q8 -14 8 -31l-8 -47v-4h4l-4 -16h4l2 -66q-2 -2 -2 -6l2 -51q0 -18 -2 -21l-2 -39 q-2 0 -2 -6h2q0 -2 2 -4h-4v-86l-2 -51l2 -33q0 -16 -4 -20h2q0 -2 -2 -4l-5 -82l-10 -82q2 -2 2 -8h-2q0 -23 -2 -25h-2l6 -29h-4q-12 -37 -16 -45h-2l-2 -14h-2q0 -10 -33 -68l-2 -6q-4 0 -6 -2l-17 -24l-16 -17q0 -4 -35 -22.5t-41 -18.5q-4 -4 -9 -4t-7 -2v-4l-68 -10 q-102 -27 -188 -27v2l-8 -2l-62 4l-18 2v4l-135 25q-14 6 -27 6l-29 18h-6q0 6 -18 17l-4 8h-5v4l-2 -2q-23 0 -45 82l-28 129l2 -2v156l2 -6l35 4l90 8h18q57 10 66 10l49 -2l24 -25q2 -2 2 -4v-2q0 -2 11.5 -22.5t13.5 -22.5v-4l12 -12h4q0 -2 2 -4h7q0 -6 22 -15l4 -6 l6 -2q4 -4 15 -4l8 -2q8 -8 37 -8l57 16v4l25 9h4q4 4 4 8l6 2l18 31l5 20v39q-29 80 -31 82v4l-21 12q-2 2 -2 4h-6q-2 2 -4 6q-4 10 -16 11v2l-15 6l-39 4h-102l-12 -2l-21 2v-6l-4 2l-6 14q-2 -2 -6 -2v2q-4 4 -4 8l4 21v14l2 64l-2 35q0 59 4 96l-2 8l2 16q-2 6 -2 11 l12 6h6l25 2q4 0 10 -2h47l13 -4v4l75 8h11q76 25 75 53l6 47l-2 62l-14 30h-2l-16 17l-39 12v4l-8 2q-86 0 -115 -20q-10 -6 -21.5 -21.5t-13.5 -17.5v-4l-14 -13l-4 -12q-6 -2 -15 -22h-2q-4 -12 -14 -13l-102 2l-123 -2q-25 0 -39 2v-4l-11 2l-2 -2v54l-6 41l8 98h5 q10 29 15 44t7 18t6 4t6 3l31 52q2 2 12 10q33 25 41 37h7q0 2 10 10t16 8l4 4q4 0 21 8v3q23 0 47 16l16 8v2q39 0 84 17l29 4l145 4zM877 1159l4 6l-19 70l-10 55q-2 6 -10 8v9l-25 28l-41 25l-139 41l-105 6h-30q-18 0 -29 -2l-92 -12q-23 0 -27 -2v-2l-14 2l-59 -15 l-7 -4q-41 -2 -79 -51h-7q0 -4 -2 -5t-4 -5l-14 -6q-31 -31 -31 -37l-4 -2q-20 -29 -22 -31v-4q-10 -10 -31 -64l-6 -69l2 -4q0 -10 4 -37t10 -27q6 2 10 2h4q90 0 179 19h28v4h6v6h5v4q10 -6 12 -6l10 37q37 61 88 61l31 10v2q6 2 14 2t33 -6l41 -2v-4q41 -14 45 -18h2 q0 -2 2 -4h4q20 -20 25 -33h2q0 -8 16 -53h2l-2 -15l6 -65q0 -14 -2 -17l-12 -43q-12 -29 -35 -32v-5q-27 -8 -39 -14v-2l-18 -2h-8q-8 0 -60 -8l-4 -2v2q-14 0 -16 -2l-13 2l-43 -2q-2 2 -30 2l-2 -2l-4 -43l14 -164q4 -4 29 -4l39 2l69 -8l72 -15q6 0 12 -6t6 -8l6 -2 q0 -4 15 -12v-4q6 -4 6 -13l16 -163l-2 -17l-22 -37l-6 -8v-4q-63 -63 -82 -64q-2 0 -2 3v-5q-12 0 -15 -2v-2l-61 -2l-17 2l-45 23q0 2 -2 4h-6q0 2 -2 4h-4l-29 31l-8 26l-6 2q-6 25 -8 39.5t-6 18.5l-17 4q-63 -2 -102 -2q-63 -8 -73.5 -6t-26.5 -2v-6h-5l-4 -19v-39 l-4 -6h4l-4 -12h4v-27q4 -29 17 -78h2l2 -18h2q2 -2 2 -10l20 -37q39 -39 39 -43l72 -35v-2q51 -18 57 -19v-4l29 -4q2 -2 2 -4l66 -8q25 0 28 -2h31l4 -2q20 0 78 8v2q14 2 24 2l80 17v2q4 0 11 2l30 12q33 0 60 27h4q10 10 12 10v6q2 0 39 45v4h4q4 10 31 121h2l2 22l4 23 l2 20q0 10 -2 13l23 162h4v12l4 86l-2 4q0 12 2 31h-2l2 14v23h2l-2 73l-2 8h2q-2 76 -2 101.5t4 54.5l2 90h2l-10 121q-4 4 -4 6z" />
<glyph unicode="4" horiz-adv-x="960" d="M795 1421l6 -86l2 -157v-17h4l2 -10l4 -82l-2 -2l2 -27q0 -10 -4 -18l2 -16v-91l2 -30l2 -49l-2 -25q2 -10 2 -45v-45q80 0 111 -12q-2 -2 -2 -13l2 -22q-2 -51 -2 -82l2 -55q0 -18 -2 -21v-88h4v-4q-2 2 -6 2l6 -27l-29 -20l-37 2q-6 -2 -24.5 -2t-25.5 -6t-9 -27v-35 l-8 -88q-12 -55 -13 -153l-2 -39q-2 -2 -2 -11h-4q-2 -4 -2 -8q0 -6 -12 -6q0 4 -2 6l-6 -4v4h-115q-2 -2 -16 -2h-21q-70 -2 -72 -4h-36l-17 -2q0 8 -2 10l-4 23v102l4 6h-2q-2 2 -2 9l4 4v51q0 2 2 4l-2 2h2l2 66q0 8 -2 24h2v41q0 61 -24 62h-13l-28 4v-2 q-68 -2 -90.5 -1t-32.5 1t-13 -2l-182 -2l-22 -3q-27 0 -27 50q0 10 4 14q0 4 -1 4t-1 4l2 6l-2 25q0 2 -2 4v27l-16 133v32h-4l-2 7l28 47l4 22q4 29 11 29v6q6 0 22 27.5t16 33.5h-2h2l-2 3l48 65l28 49l6 4v4q-2 0 20.5 33t45 65.5t20.5 32.5v7q2 0 4 2v4q14 10 33 53 q31 47 37 53l4 11q20 27 31.5 40t11.5 15v6q4 0 13.5 14.5t11.5 16.5v4l45 59v6l8 6l-2 9l18 16l4 2l15 -8q4 0 6 2v2q2 -2 56.5 -2t56.5 2v-2q4 -2 6 -2h4v4l20 -2l56 2l32 2q2 2 9 2l20 -4q4 0 4 2l4 4l19 -6zM881 412l14 -2l2 22q4 20 4 33v110q0 8 4 29v10h-4v72l-20 -4 l-23 2q-37 0 -65 -4v-4q-25 0 -25 26l2 33l-4 213l-2 51h-4v103l-4 14v86l-4 33l2 31q0 12 -2 14l-2 131l-27 4l-39 -2l-137 -4v2q-8 -2 -12 -2h-31l-6 -18l-6 -5v-4q-2 0 -34 -43t-55 -79l-20 -31v-4h-4q0 -4 -6 -11v-4q-47 -51 -56 -88l-4 -4q0 -2 -8 -18h-4q0 -2 -8 -13 l-21 -34q-6 -6 -22 -35q-29 -49 -31 -55v-7q-6 0 -10 -16q-31 -43 -46.5 -67.5t-23.5 -36t-12 -18.5t-8 -11q-4 -8 -8 -8q0 -59 -25 -72l-6 -18q-8 -4 -14 -11v-24q-2 -2 -3 -10v-33l-2 -4h2q12 -176 13 -191l39 2l55 -2h16l54 2q29 0 47 -4l198 -2l15 -20q10 -20 16 -95 l-4 -61v-90h-4l-4 -6l-8 -86q0 -2 1 -5t-1 -3v-5q10 -25 12 -24l70 4h10l41 -2q0 -2 4 -2v4h76q29 0 34 2l2 2l5 31h2q-2 2 -2 10l2 102h6l-2 13l4 39v43l4 2h-4v28l-4 39l2 19v26q16 16 16 29l10 -2q2 -2 2 -6v-4zM606 1059l-14 -144l-2 -167h4v-43h-4q-4 4 -6 4l-2 -7 q2 0 2 -4l-2 -4q-14 -14 -54.5 -13t-54.5 1l-90 -4v-2l-80 -2v-2l-6 4q-4 0 -10 -2l-2 12h-6v-6q-6 4 -7 10l13 12l18 52h4q4 4 23 57v4l6 4v6q4 0 8 4l49 76l10 19l-2 4h5l22 30h4l29 46v6q2 0 6 4v6l10 8v4q29 27 36 42.5t9 15.5v6q6 6 10 6l39 37h4q2 2 3.5 6t11.5 6 l-4 -25l2 -43l12 2q6 -16 6 -26zM426 862l-10 -6v-6q-4 0 -4 -2v-4q-8 -2 -21 -39l-16 -47q-18 -18 -19 -23q-4 -10 -8 -10l-10 -14q-2 0 -2 -2q-2 -4 -2 -7h108l17 5q16 0 24 -2q16 0 58 4l4 28h2q0 4 -2 6l2 17v41q0 4 -2 6h2q0 45 -15 106l3 111h-3q-12 -12 -14 -25h-4 q-2 -6 -6 -10h-2q0 -8 -6 -8v-6l-23 -23l-4 -12q-2 -2 -6 -2l-4 -12h-4q-6 -6 -25 -35v-4l-10 -8v-5l-8 -6zM809 1143l2 6h-4z" />
<glyph unicode="5" horiz-adv-x="1030" d="M453 1024q88 0 161 -8v-4q35 0 60 -13l53 -10l6 -4l15 -6v-2l112 -78h6l23 -29h4q0 -4 20.5 -52t32.5 -120l4 -24v-27h4l-4 -4l4 -2h-4l-2 -66q-2 -96 -12 -253h4q-2 -12 -2 -25q-4 -45 -18 -111l-5 -4l-14 -26l-2 -4l-47 -60h-4l-10 -12h-4q-16 -16 -91 -47l-96 -21h-16 v-4l-105 -6l-49 2q-27 -2 -106 -2l-66 12q-2 -2 -11 -2t-11 2v2l-25 7q-29 12 -55 22h-4l-47 47l-15 21l-43 114l-4 54v71h-4q2 84 8 90l12 2v2l76 -2h21l63 5l84 2q8 -2 8 -11h13l8 -16l6 -6l4 -25q2 -10 8 -31l33 -28l47 -15l15 -2l38 5q63 47 72 55v4l6 2q29 68 29 86v20 l2 29l-2 76l-2 14l-23 47q-25 23 -28 23h-4v4q-6 0 -29 6v2q-76 12 -80 12v3q-59 14 -77.5 14t-35.5 -2l-34 -2l-72 4h-10l-47 -2h-84v-2q-2 -2 -25 -2q0 10 -10 12l2 4q0 6 -6 8q-6 0 -6 11q2 0 4 2l-2 47l-2 16l10 264l-4 62q-2 0 -2 4h4v12l2 49q0 53 -2 109l-2 55 q0 27 6 45l12 6l19 -2v2q170 12 208 13h48l151 2l86 6q23 0 27 2h26l31 -8l258 -7l2 -10l2 -117l-6 -2l2 -90q2 0 4 -2l-6 -63q2 0 2 -4l-2 -2l-6 -9l-117 -16l-88 10v-4l-20 -2q-39 0 -72 -4l-129 -2q-29 4 -49 4l-80 -2q0 -18 2 -22l4 -27q4 -33 8 -33v-4h19q2 -2 6 -2h33 zM526 985l-22 -2q-51 0 -68.5 5t-19.5 5l-6 2v4h-15q-20 0 -24 -4q-14 4 -16.5 9.5t-2.5 33.5l-2 84h-6q6 18 23 23l6 -4l45 4l82 6q8 0 39 10q0 -4 -2 -6h16q2 2 8 2h105v10h39v-4l10 4l4 -4q12 2 196 8q4 29 4.5 96.5t-10.5 108.5h-4l-4 25l-16 -4q-4 0 -21 4l-151 2 l-4 -2l-33 2q-16 0 -19 -6l-4 4q-4 0 -4 -2h-2l-67 2l-35 -2h-80l-21 4h-94l-131 -10l-47 -11l-57 9l-4 -9l-2 -63h-5q-2 -6 -2 -21v-43q0 -49 -2 -96h4v-121l7 -127q0 -10 2 -12l2 -135l20 -4l45 -6h53l25 2l53 -2l37 -4l94 -9q53 -18 105 -18l39 -6v-2q39 -23 39 -25l6 -4 v-4q12 -20 24 -51l11 -27l2 -20q0 -16 8 -82l2 -41h-4q-18 -61 -19 -72l-14 -31q-4 0 -4 -2v-4l-6 -2l-35 -43h-4q-2 -2 -2 -4h-6q-35 -20 -37 -22q-49 -12 -78 -13h-8v4q-12 0 -62 31l-12 6l-25 70h-4l-4 35v4h-75l-9 -2h-6l-22 4l-115 -10q-2 -2 -14 -2v-5q-4 -4 -4 -53 t10 -71l2 -27l33 -94q8 -8 8 -15v-4h4q4 -18 24.5 -34.5t20.5 -18.5h4l59 -35h5q2 -2 2 -4l92 -14q2 -2 26.5 -2t169.5 8q16 6 39 6h45l99 31l6 4q10 0 10 4v2q0 4 49 29l31 39v4q16 16 47 86l4 6q0 66 14 108l7 107l-2 24q0 8 6 76l-6 74l-5 20q-4 16 -8 29l-10 35 q-10 31 -73.5 103.5t-63.5 74.5q-31 18 -31 23l-53 26l-6 8q-103 15 -142 27z" />
<glyph unicode="6" horiz-adv-x="1030" d="M420 705l45 24v2q10 0 50 16.5t40 20.5v2q4 2 37 2h39l98 -18l4 -6l92 -33q0 -2 11.5 -8.5t11.5 -10.5h6q10 -12 16 -12v-6h4q6 -6 11 -12q6 -10 12 -11l14 -22q12 -12 13 -31l2 -4l2 -8l26 -23l2 -16h5l18 -139q2 -2 2 -19l-2 -33v-32h-4q0 -14 -2 -17l-23 -75l-2 -15 l-4 -16l-18 -39q-2 -2 -6 -2v-6q-2 0 -5 -2v-4q-6 0 -15 -20.5t-19 -22.5l-7 4q-16 -16 -16 -19h-4q-61 -33 -70 -41q-2 2 -4 2v-4q-12 0 -67 -20l-219 -29v2l-13 -4l-2 4l-102 6v2q-2 2 -12 2v4q-8 0 -11 2v3l-32 10h-7v4l-20 8q-6 0 -47 29h-4l-47 49h-4q-49 49 -60 53v6 q-8 0 -8 17l-25 59l-16 27q0 -4 -2 -4l-8 38l2 17l-4 24v15l4 51q0 18 -2 33l-4 43h-4l-3 76l-2 38l5 17v4q0 8 -3 10l7 160h-4l4 6v127l2 2h-2q0 23 4 27v61q2 27 2 45l-2 12l2 39l14 48l14 8l7 18h4l12 27q18 39 20 39v6q6 6 11 6l37 35q18 10 18 18h4q2 2 2 4h6l23 17 q16 16 61 35.5t74 19.5l43 18h14v5l52 6l159 2q16 -6 49 -15.5t54 -15.5q53 -16 86 -43l37 -51q8 -16 15 -30.5t13 -22.5l21 -60l6 -37h4l-4 -49h4l2 -18q0 -43 2 -47q-2 -2 -2 -16.5t1 -24t2 -12.5t2 -5t1 -4q-2 -4 -24 -14q0 4 -33 6l-90 -4h-33q-20 -4 -27 -4h-49 q-16 0 -26 -2q-8 8 -9 55l-2 41h-4q0 2 -10 33q-2 0 -4 2v4l-15 14h-6q0 4 -2 4h-4l-2 6l-61 21q-6 0 -8 2l-9 -4l-14 2q-12 -6 -16 -10v-2q-4 0 -30 -31t-40 -35v-4l-4 -16l-4 -11l-2 -4l-2 -26l-4 -6l-4 -35l-3 -4h3l-11 -99l4 -133v-20q0 -16 4 -21l17 8v5zM823 119 q12 0 19 10l24 10q2 2 5 6.5t8 6.5v4q10 20 14 24l2 4l4 15h2q12 12 12 30l17 64l4 22v105q0 18 -8 125h-4l-2 6q0 14 -2 16l-27 19l-2 6q-2 2 -2 7t-2 7l-2 12l-21 39q-2 2 -4 2v7l-20 20h-7l-22 16q0 2 -8 2.5t-13 2.5v2q-12 2 -34 4q-70 6 -76 18t-14.5 11t-16.5 -1 q-4 2 -27.5 -3t-50.5 -5q-31 0 -43 -4l15 -2l-6 -2q0 -4 -43 -18v-2q-4 0 -7.5 -8.5t-7.5 -8.5l-4 -4l-47 -27v-2q-2 -2 -7 -3t-5 -5l-29 -14l-10 -21h-8q0 -4 -5 -8h-4q-2 2 -2 4v2q-8 8 -8 25h4v16l-2 35q0 43 6 55l2 152q6 43 11 82q4 66 8 69h2l2 21l33 39h4q2 16 4 20 t10 4l-14 5l14 6v2l14 2l54 28q29 14 46 14.5t70 -28.5h5q0 -2 2 -4h4q23 -25 28 -25v-6q14 0 23.5 -40t9.5 -78l19 -7h34l25 -2q12 0 14 2l88 4q20 6 47 7l-2 131l-30 98v6l-17 31l-16 20h-6v4q-16 4 -47 45h-6l-23 13h-2l-4 6l-45 14l-74 19v-4q-4 0 -4 4h-104 q-23 -4 -45.5 -8.5t-31.5 -6.5t-12 -2v-2l-86 -24h-10q-14 -6 -24 -6l-78 -31l-12 -8l-25 -27v-4q-4 -4 -6 -5t-8 -9l-19 -17l-49 -112l-6 -64l2 -29q0 -29 -6 -51l-4 -69v-125l-4 -4l2 -5h-2l-2 -51l-5 -67q0 -23 2 -27l3 -72q-2 -2 -3 -6l11 -145q0 -25 6 -41l6 -68 l41 -112q14 -14 39 -27v-4q16 -23 48 -51.5t40 -28.5h8q4 0 6 -2v-2l8 -2l52 -25q2 -2 133 -14l45 4l33 2l92 19v2q2 0 10 3t47 13l21 10q22 0 71 25zM494 332q-6 16 -7 16h-4l-6 47l6 41l6 2q0 14 27 41v2q4 0 29.5 11.5t40.5 15.5l-2 4l75 12v-2h54l2 -4q6 0 22 -16v-4 l6 -4l7 -9v-4q6 -4 13 -25.5t7 -31.5l-8 -4l8 2l-10 -33l-27 -53q-23 -23 -28 -27l-72 -33q-2 -2 -17 -2l-34 5l-11 -3l-22 7l-6 -2q0 4 -17 14l-2 4h-6l-20 33h-4zM694 332l2 12h6q14 14 15 21v2q10 0 10 18v43q0 27 -22.5 42t-53.5 15t-49 -10t-35 -12v-4l-10 -4l2 -2h-4 l-25 -25v-4q-20 -29 -24 -33v-22l4 -15h4v-6l12 -14v-10h4v-5l37 -12q0 -2 2 -4q2 2 4 2l9 -4l2 2v-4q41 0 65 14l31 13v4z" />
<glyph unicode="7" d="M688 653l-4 -16h-4l-45 -80l-2 -10l-6 -2l-19 -33v-8q-12 -12 -14 -19v-6l-29 -45v-6l-2 2v-6l-6 -4l-35 -66v-6h-4l-31 -53q-4 -12 -10 -19v-6q-2 0 -20 -26v-8q-2 0 -35 -54l-60 -121q-29 -53 -28 -57h-2q-2 2 -2 8q-12 4 -15 4l-18 -4l-4 4v-4q-2 2 -19 2l-47 -4 l-45 2l-76 -2l-49 -6l-4 -2l2 2q-12 0 -12 6l-10 2v13q14 27 35 86h2l4 8h2q0 12 8 12l2 12q2 0 4 2l25 48v6l2 -2q29 43 28 67h2q25 55 29 55l27 58q2 2 6 12q14 23 18 23v8l6 4q0 6 37 76q0 8 2 10h2q8 20 17 45l4 4l4 14l12 33q6 6 6 8v2l35 62h2l23 49h2l16 43 q6 8 23 53h2l4 15l10 24l4 6l4 11l4 6l21 51l8 16h2q2 2 2 6h2q25 47 25 58l6 10l2 -2l39 82v6q2 2 6 2l2 10l8 21q-8 0 -10 2v2l-27 -2l-114 4q-18 0 -21 -2q-27 4 -133 8l-55 2q-43 0 -98 2l-54 -2h-12l-2 25v2l4 22h2l2 21l2 6q2 2 2 16l-2 29q0 2 2 4l-4 29l2 84l4 18 h-2q-2 2 -2 8q2 2 6 2v7h-4q2 8 6 8q33 0 66 4h49q23 0 27 -2l108 4q2 2 13 2l28 -2h152q2 2 16 2l144 -2q16 0 18 -2v4l8 -4l41 2q12 0 14 -2q4 2 9 2l14 -2l29 2l16 -2v4q2 -2 36 -2t44 4v-4l10 2q16 0 35 -12q0 -35 -2 -78l-4 -4l4 -2l-2 -13l4 -49l2 -2l-4 -2l4 -2 l-2 -8h2l-4 -64q-2 -31 -2 -41t4 -14l2 -14l-27 -68l-6 -14h-2l-82 -156q-2 -2 -2 -5t-2 -3l-18 -31l-4 -6q-2 -8 -11 -18l-10 -19l-2 -10l-20 -37v-8q-8 0 -10.5 -12.5t-8.5 -12.5v-6q-45 -82 -45 -84h-2zM274 57l31 -8l6 2v4q2 2 4 2v6h4v7q10 20 16.5 29.5t8.5 11.5 l10 22l4 10l31 54l2 10l15 22h4q18 45 24 45l39 74h2l14 29l21 35l6 18h4l21 41q4 10 8 20.5t6 16.5q4 18 14 24q0 31 27 58l43 82l18 41l21 30l22 52l9 16q2 0 4 2l67 127l8 14q0 4 41 76v8q6 0 27 39v6l2 -2l2 11h4q0 2 4 8q12 25 21 49l6 6v23l2 41l-2 96q0 12 -4 47 t-4 45l2 -2v4h8v14l-166 4q-2 0 -4 3q-2 -2 -22 -3h-23l-55 -2l-152 -12l-18 2l-62 -4q-18 0 -20 2q-16 -4 -31 -4l-55 2v-2h-45q-16 0 -62 4l-88 -4q-4 0 -4 4q-12 0 -12 -31l2 -30h-4q2 -2 2 -9q-8 -14 -8 -67l2 -35q0 -4 -2 -14l4 -13q0 -23 20 -22l25 2q6 -6 22 -6 l103 4q102 0 354 -21l45 -4l-2 -12h-2q2 -2 2 -22h-4l-4 -9l-6 -16q-4 -2 -4 -4l-5 -14h-4l-20 -43l-4 -15l-6 -8l-2 -8l-23 -47h-4l-14 -37q-8 0 -9 -10l-4 -7q-2 0 -2 -4l-20 -34l-6 -19h-4q-4 -16 -4 -18l-7 -6l-10 -27q-2 0 -4 -2v-6h-4l-23 -47l-8 -13l-20 -43 q-2 -2 -2 -7t-2 -7h-4l-2 -6l-21 -43l-12 -29q-23 -41 -23 -45l-4 -8h-2l-37 -76l-2 -6l-6 -4l-14 -33h-4v-8q-6 0 -23 -43l-16 -35l-4 -10h-2q-4 -8 -17 -27q-49 -109 -49 -112h-2q0 -6 -14 -27l-23 -47v-6q-4 0 -5 -1t-5 -16h-2l-6 -14l-2 2l-9 -20l-2 -9h-4v-20 q2 -2 15 -2l39 2l122 18l2 2v-2zM905 1196h2l2 12h-4v-12z" />
<glyph unicode="8" horiz-adv-x="1003" d="M840 1321l2 -8l20 -19v-4q20 -10 32.5 -40.5t16.5 -37.5h4v-18q0 -12 3 -14l20 -50l2 -26v-84l-6 -68h-4v-12h-4q-18 -63 -21 -66l-4 -12l-4 -2l-12 -20l-4 -6l-2 -5q0 -4 -33 -45v-2q-4 0 -4 -2l-6 -10h-9l-47 -53l17 -10v-5q59 -47 100 -118l10 -39q12 -25 15 -49 l4 -13l4 -147v-19h-4l-8 -38l-13 -37q-4 -31 -12 -54l-19 -49q-2 -2 -2 -8l-30 -29v-4q-6 -18 -41 -38.5t-42 -20.5t-7 2l-4 -4q-12 -6 -17.5 -9t-30.5 -10l-32 -8v-2q-57 0 -60 -2l-49 -4l-82 -14l-28 -2v2q-29 4 -48 4l-143 26l-63 27q-23 31 -72 59v5q-2 2 -4 2v6 q-2 0 -4 2v4l-43 49l-27 76l-2 20h-6q-8 49 -8 99l2 57l4 57l22 105h6l25 47v8l4 4q4 14 27.5 43t25.5 35l13 16q-6 -2 -11 -2v11q0 4 3 6q-14 8 -39 43v4q-2 0 -5 2v4q-16 31 -16 35h-2l-20 61h-2q-25 111 -25 142.5t10 72.5l6 45v35h6l13 53q68 109 71 109q12 4 41 43h5 q25 18 24 20l53 19l56 16l59 15h47q0 -2 2 -3h4l64 5l61 -5v-6q2 2 2 4v2l121 -28v-2h2v2q2 0 51 -35l52 -35h6q2 -8 43 -51zM852 852l10 27l6 4l29 110q-4 4 -4 6h4v52h-4q-2 2 -2 16l-8 31q-4 29 -9 43q-8 25 -8 26h-4l-10 31q-55 72 -55 76h-6l-19 12q-18 8 -18 17h-4 q-8 14 -68 65h-2q-2 0 -2 4l-8 2q-2 0 -8 6l-23 17l-100 30l-29 7q-100 0 -121 -11l-33 -8l-4 -4l-16 -4v-2q-4 0 -12 -6v-2q-10 0 -17 -6v-2q-12 -12 -24 -15v-4l-11 -2q-6 -6 -14 -10q-10 -10 -15 -14.5t-10 -10.5h-6q-10 -14 -32 -30v-5l-9 -6v-4l-12 -10l-2 -4 q0 -2 -8 -10l-4 -11q-2 0 -6 4h2q4 8 8 13l2 6l6 4v8q6 6 10 6l8 17q8 0 13 8q12 14 22 24h4v5q6 0 7 4v4l12 6l6 6q14 10 18 18l11 7q8 6 14 9t8 5v-2l6 8q10 0 25 6v2q2 2 14 2l2 4l29 9l-55 -9l-11 -4l-39 -10l-40 -31h-7l-20 -24h-4q-20 -12 -33 -31v-4q-4 0 -6 -2 l-12 -23v-4l-15 -20l-6 -4l-22 -41l-39 -139l-4 -31q-2 -2 -2 -13.5t6 -29.5v-51q2 -14 25.5 -74t25.5 -62h2l22 -30q-2 0 -2 2v-4l9 -6v-7q2 0 26 -24h4l4 -4q4 0 17 -13l16 -2v-16l-4 -4q-29 -10 -33 -21l-10 -4l-12 -4l-6 -8h-4l-9 -10l-22 -19v-6l-27 -37l-2 -10 q0 -14 -8 -14v2q-2 -2 -2 -12l-6 -5l-8 -38l-5 -64h-6l-4 -22v-87l4 -20q6 -25 12.5 -57.5t12.5 -44.5l2 -21h4q0 -14 14.5 -34.5t14.5 -28.5l2 -9q2 0 4 -2v-4l16 -10v-4q8 0 43 -35h4v-4h7q6 -6 16 -6l2 -8l98 -37l43 -6q12 0 19 -6h4l88 -9v2h76v5q139 35 163 43v4l17 2 v4l51 22l6 6h6l52 50l2 6q2 0 4 2l22 37l19 49l4 12h4q6 39 11 51.5t5 40.5l2 37l-6 80q-14 70 -24 86v4q-12 29 -17 29v6q-6 0 -6 8h-2q-45 45 -45 51h-2q0 2 -2 4l-78 48l-8 14q0 4 4 8q16 12 24 21h5v4l12 6h12q45 29 60 57h4l16 27q-2 2 -2 10zM571 561l15 -12v-2 q10 -4 12 -10.5t4 -8.5l21 -47v-8h4v-35h-4v-18q-6 -14 -36 -40t-46 -26v-4q-31 -10 -72 -10t-61 14l-21 6l-25 23v8q-4 0 -8 10l-4 25h-2q-4 4 -4 10h8v4l10 -8v8q-2 2 -2 9v10q0 4 -4 16l11 49q23 23 32 43h9l32 15l43 10l39 -4zM350 1018l8 29h2q4 0 25 43l12 12l35 20 l27 11q6 -2 10 -3v3l76 -15q0 -6 2 -8h2q4 -4 11 -10t9 -8l29 -60l2 -16l4 -15q0 -2 -6 -24h-2q-6 -18 -6 -23v-4q-14 -14 -17 -20h-2q-2 -8 -24 -19q0 -6 -72 -28l-43 -2v2q-2 2 -14 2v6l-56 31l-14 28l-8 43l-4 13l8 -5v11q2 0 6 -4v10zM582 420l4 12v8q0 29 -2 56h-2 q-2 4 -9 10l-2 8l-18 14q0 2 -2 4l-29 15q-27 8 -43 8h-14l-37 -14l-25 -21v-6q-12 0 -12 -14h-2q0 -2 -2 -4v-2q-2 -2 -2 -20.5t2 -53.5l12 -21h9l34 -22l11 -2h10q37 0 74 4v2q8 2 24.5 18.5t16.5 20.5h4zM385 1040l4 -51l2 -8q18 -49 29 -53v-2l14 -4h4l2 -7h60 q18 6 30 37h5v-2q0 -2 -3 -4q-2 -10 -2 -18l11 2q0 2 2 4h2q2 0 2 6h4l4 6l8 2q2 0 2 3t4 7l-4 62l-10 24h-4q0 4 -2 7l-6 16l-11 4q0 6 -6 10h-2l-63 13q-18 0 -23 -2l-2 -5l-12 -2l-18 -18l-5 -6v-4q-2 -2 -6 -2v-4q-2 -2 -6 -2zM166 723h-4q-4 -6 -14.5 -16.5 t-14.5 -18.5h2q29 23 35 37zM379 385h4v-4q2 0 6 -4l-2 6h-2l-4 8q-10 0 -10 10l-6 7v10l-3 -15q15 -18 17 -18zM381 391v-4l2 -2h-4q-2 0 -17 18l3 15v-10l6 -7q0 -10 10 -10zM383 381q2 0 6 -4l-2 6h-2l-2 2v-4z" />
<glyph unicode="9" horiz-adv-x="1050" d="M590 1456l72 -2l100 -16l53 -25l29 -16q-2 -2 67 -68q18 -55 19 -59l12 -39l8 -139q0 -2 2 -5v-45h4q-6 -55 -6 -104t8 -104l3 -107h6v-29q2 -2 2 -18l-4 -47l2 -51l-9 -131q-4 -16 -6 -57.5t-6 -57.5l-14 -74v-6q-10 -25 -14 -57l4 2l-48 -70h-6l-39 -49h-4 q-2 -6 -8 -10l-67 -39l-50 -13l-22 -8q-2 -2 -66 -12h-14v2q-63 0 -66 2l-67 2v4l-66 6l-4 -2l-116 35v2q-12 0 -39 15q-47 18 -47 24h-7q0 10 -14 16q-31 14 -62.5 70.5t-29.5 69.5v4l-4 47h-4v16q0 14 -2 17h-2l-9 137l11 4q0 -4 6 -4v4l149 2l84 4h4v2l47 -2l2 -2l3 4 q14 -6 16 -6l-2 -12q2 -6 6 -6l2 -6q8 -25 78 -66l6 -4l23 -2v-2q86 29 90 35t4 10l16 29h2q23 94 23 151q0 27 -19 27q-4 -4 -10 -4h-4q-14 0 -100 -19v-4h-9q-8 2 -30 2h-31q-37 0 -47 4l-45 10v5q-63 16 -74 22q-14 8 -35 29l-39 26v7q-35 14 -41 30q-33 72 -57 113 q-14 61 -18 65h-2l-7 74l2 96l9 56h4q16 104 18 106h2q43 74 72 97.5t41 30.5t20.5 9t10.5 4q16 8 28.5 11.5t18.5 9.5q16 0 16 6l6 2q8 0 74 17q113 14 125 14zM897 252l4 31l10 41v501l9 31v270h-2q0 33 -3 35h-2q0 68 -39.5 129.5t-62.5 75.5l-25 14l-8 9l-61 20 q-123 6 -131 6l-19 -4l-157 -8v-4l-95 -10l-14 -3q-61 -37 -63 -38h-5l-4 -2l-57 -56q-25 -41 -29 -55t-6 -14l-2 2l-4 -6l-18 -146q0 -39 2 -90l-2 -43l4 -74h2q2 -8 5 -18t5 -19l10 -26l23 -37l55 -49q16 -16 19 -17l8 2q0 -2 2 -4l88 -37l102 -14h33q29 -4 33 -4l51 2 l68 8q2 0 14 8.5t22 8.5q0 -14 5 -19l12 -14h-4l4 -57l-4 -121h-4l-7 -45l-65 -82l-8 -8l-41 -13q-10 -2 -27.5 -2t-30.5 4l-90 33l-4 4q-8 4 -12 14q0 14 -19 23l3 8q-12 31 -15 62q-18 0 -20 2l-29 -2v-4h-65l-119 -13v-4h-8q-10 -4 -10.5 -21.5t1.5 -19.5l29 -104 q12 -43 16 -43l5 -25q6 -6 49 -84l28 -16q2 -4 62 -37q6 -6 18 -6v-4l127 -31v-4l17 -2l151 6q2 0 4 2v-2q8 0 10 2v-2l60 8l35 6v4h8l41 19l14 4l55 31q23 23 29 41l4 6q0 10 4 14l19 41v10h4q4 23 6 25h2zM434 1077l29 41l10 4q2 2 19 2v2l77 -4q12 -2 45 -16v-2l48 -62 l2 -14q-2 -2 -8.5 -50t-20.5 -63l-10 -2q-2 -10 -11 -14l-16 -10l-10 -4h-49l-4 -6l-56 22h-4q-6 2 -14 10l-27 29v4h-4l-12 45q-2 0 -2 4l4 4h-4l-2 13l2 18l14 47q0 2 4 2zM549 1106l-82 -21l-18 -30q-4 -29 -5 -41q0 -43 56 -99l32 -10v-4h39v4q2 2 13 2l14 8l43 76l4 21 q0 31 -27.5 62.5t-68.5 31.5z" />
<glyph unicode=":" horiz-adv-x="419" d="M244 938l63 4q20 0 31 -10l2 -17l2 -6l-2 -2q-10 -27 -10 -125h2l-2 -30q0 -10 -4 -56v-8q-6 0 -11 -8q-2 0 -4 2l-2 4q-6 6 -22 6l-43 -2q-43 -2 -81 -2t-50 4q-23 0 -25 -2v4q-8 6 -8 8l-4 66q0 14 16 147h-2q-6 6 -6 9l2 2q0 2 4 6v2q31 12 57 12zM342 223 q-4 -4 -4 -26h-2l-6 -101h2q-2 -35 -2 -86h-4v-8q-6 0 -11 -8q-2 0 -4 2l-2 4q-6 6 -22 6l-41 -4q-18 -2 -51 -2t-82 4v2q-23 0 -25 -2v4q-8 6 -8 8l-2 31h2q-2 2 -2 35l-2 14l4 70q8 33 12 63h-2q-6 6 -6 9l2 2q0 2 4 6v2q31 12 57 12l89 -6l71 2q20 0 31 -10l2 -17z M205 907q-4 0 -10 -2l-52 2q-18 0 -22 2l-12 -2q-2 -2 -3 -24v-142l3 -4q0 -2 -3 -4h3q2 -2 2 -8q0 -14 22 -14v2q39 2 62 2l116 10q2 2 2 23l2 49v30l25 56q-31 8 -31 18q-18 0 -22 -1t-82 5v2zM111 37q0 -12 22 -12l41 4l10 -2q6 2 127 12q2 2 2 22v97l2 39q-6 12 -6 18 l-37 -2q-33 0 -77 6l-52 2q-18 0 -22 2l-12 -2q-2 -2 -3 -24l-2 -47q2 0 2 -9v-45l3 -30h-3q5 -17 5 -29z" />
<glyph unicode=";" horiz-adv-x="419" d="M164 -135l-2 20q0 41 12 92l2 21l-2 8l-24 -2l-39 2q-23 0 -25 -2v4q-12 8 -12 43v10q0 2 2 5l-2 34l4 66q6 20 12 63h-2q-6 6 -6 9l2 2q0 4 18 10v2q8 8 40 8t108 -8l55 4q20 0 31 -10l4 -25h-2q-10 -16 -10 -151v-60h-4l-5 -16l3 -25q0 -41 -17 -139q2 -2 2 -18.5 t-8 -16.5t-10 2l-4 -2q-2 2 -17 2v2q-43 -4 -90 -4h-18q0 2 2 4h-6v43q8 9 8 23zM86 926q0 4 18 10v2q8 8 41 8l107 -8l49 2q29 0 37 -8l2 -17l-10 -163q-10 -63 -13 -68l-2 -4q-2 0 -4 2l-2 4q-6 6 -22 6l-78 -8l-96 8q-23 0 -25 -2v4q-8 6 -8 8l-2 134h2l12 79h-2 q-6 6 -6 9zM203 221q-4 0 -10 -2l-74 4l-13 -2q-2 -2 -2 -24l-2 -47q4 -39 4 -77t3.5 -43t21.5 -5v2q39 2 62 2l2 2l-2 -6l4 -7l-2 -8q0 -47 -8.5 -118.5t-7.5 -73.5t5 -2l21 4l16 -4l23 2v-2l2 2l35 -4h2l-2 6h2q4 29 4 42t2 15l14 100l10 152q0 2 2 4h-2l-6 82 q-18 0 -23 -1t-81 5v2zM244 719l12 -2l55 8q2 2 2 23l2 49l2 22l-4 64q-6 12 -8 15t-8 3h-35.5t-36.5 2l-20 4q-4 0 -10 -2l-52 2q-18 0 -22 2l-12 -2q-2 -2 -3 -24v-135q4 -4 4.5 -18.5t4.5 -16.5t18 -2l41 4v-2q25 4 41 4z" />
<glyph unicode="&#x3c;" horiz-adv-x="743" d="M721 158q-8 0 -8 6v2l-21 -19q-2 0 -14 -12l-53 -55q-25 -10 -35 -39v4l-23 -29l-28 -16q-27 20 -40.5 38.5t-29.5 35.5l-307 293h-6l-33 36l-29 27q-31 29 -45 45l-43 51l-14 33l24 29l33 28q35 45 64 74l90 86q8 16 59 66v-2l6 6h-2l88 90q23 16 33 33l35 35 q31 31 47 53l49 49l57 2q-6 -16 -8 -16q0 2 -4 2t-6 2l86 -86q0 -12 27 -21l6 -10q6 0 24 -2l2 -21l19 -30q-25 -25 -33 -25h-2q-12 -20 -104 -113h2l-45 -49l-70 -67h2l-63 -68q-12 -14 -27 -26l2 4l-14 -17l4 2v-35l18 -18q-4 0 32 -30.5t60 -53.5q59 -55 80 -78l19 -16 l14 -17l25 -16v-8q16 -12 16 -19l12 -8l13 -10l24 -25q4 -4 35 -14v-61zM696 182v17h-4q-8 4 -12 8l-2 -2l-64 65l-8 4l-31 35q-16 12 -49 49q-123 117 -202 191l8 6v4q39 39 55 59l-2 3l135 135l-2 2l111 112l-2 2l53 60q2 -2 6 -2t4 -2l2 2v-2l2 2h-2l4 4q-12 4 -16 10 l2 2l-14 8q-14 12 -29 29q-45 43 -70.5 67.5t-25.5 28.5v4h-19l-12 -16l4 -2l-78 -78l-76 -74l-6 -10l-71 -74q-39 -33 -60 -63l-98 -96v2l-49 -51q-14 -14 -22.5 -24.5t-12.5 -14.5q-14 -14 -14 -17l-2 -2v2l-7 -10q4 -10 9 -14q-2 -2 -2 -6l41 -43q18 -18 40.5 -40 t28.5 -28l58 -57v2l16 -17q-2 0 158 -151l98 -95l2 3q2 -2 2 -5l12 -12l2 2l60 -55q-4 -4 -4 -7t2 -3l-2 -2l4 -2q4 12 12 14q20 35 90 98z" />
<glyph unicode="=" horiz-adv-x="954" d="M860 487l2 -73q0 -47 -6 -148q-20 -4 -84 -4l-82 -2l-2 -4q-2 -2 -4 -2l-2 2q0 2 -4 2v-4h-70l-202 -2v-4l-31 -2h-56v-4l-51 4q-16 -4 -22 -4h-94q-8 0 -25 4h-25v6q0 2 -16 6q0 10 -2 12l2 39l-2 -2v2q2 2 2 15l2 88l-2 6l2 31l-2 38l8 19l-4 2q-2 0 -2 4q6 6 16 6 l263 2h28q18 6 45 6h168q2 0 103 4v-4h4v4q2 0 4 -2l20 -2v4l95 2q2 2 14 3q10 -6 18 -15q-6 -6 -6 -33zM860 735q4 -12 4 -20v-8q0 -2 4 -2v-11q-2 -2 -2 -8l2 -16l-2 -2q-10 0 -10 14q-61 -4 -84 -4l-82 -2l-2 -4q-2 -2 -4 -2l-2 2q0 2 -4 2v-4h-70l-202 -2v-4l-107 -5 q-29 0 -31 3q-16 -4 -70.5 -4.5t-70.5 4.5h-25v6q-16 4 -16 6q0 10 -2 12l2 31h-2q2 6 2 38.5t2 71.5l-2 7q0 27 2 69h-2q0 12 8 19l-4 2q-2 0 -2 4q6 6 16 6l291 2q18 6 45 6h168q2 0 103 4v-4h4v4q2 0 4 -2l20 -2v4l13 -4q20 4 26 4l56 2q2 2 14 2l2 2q12 -29 12 -102.5 t-2 -114.5zM803 326l-2 20l2 45h2v2l-2 13h2l2 30l-4 62q-10 0 -23 -4l-39 2h-110l-31 2l-80 -2l-26 -4q-2 2 -19 2l-61 -2q-2 0 -4 2l-15 -2v-5l-45 5h-74v-7q-20 -2 -43.5 -3t-37 -2t-26.5 -2t-20.5 -4t-13.5 -7q-10 -6 -10 -35t2 -56.5t0 -27.5l2 -10h-2v-19 q0 -29 14 -28h115v-6q76 0 172 10l4 2l19 -2l6 2l2 -4l2 4h149q0 4 13 4v-6l112 4q4 0 4 -2l39 2l2 2v-2q2 2 11 2q-4 0 -10.5 4t-8.5 4q31 1 31 17zM514 715l23 -2h73q0 4 13 4v-6h157v4q2 2 11 2q-4 0 -10.5 4t-8.5 4q31 0 31 16v66h2l-2 2v12h2q2 2 2 17l-4 43v32 q-10 0 -23 -4q-18 2 -39 2h-110l-31 2l-80 -6h-26q-2 2 -19 2l-123 -6l-2 4v-4l-4 2l-4 2v-4h-125v-6l-33 -2q-6 -2 -22 -2q-31 -2 -37 -23l4 -100v-20q0 -43 12 -43h115v-7q18 4 77.5 5.5t127.5 5.5l45 2q2 2 8 2zM764 725v-4l-6 -2q-8 0 -10 6h16zM764 309v-6q-14 0 -16 6 h16zM766 721l-2 2l6 2zM770 307q0 -2 -4 -2l4 4v-2z" />
<glyph unicode="&#x3e;" horiz-adv-x="743" d="M25 158v61q31 10 34 14l25 25l12 10l13 8q0 6 16 19v8l25 16l14 17l18 16q35 47 102.5 104.5t69.5 57.5l19 18v35l4 -2l-15 17l3 -4q-12 12 -25 24l-66 70h2l-69 67l-45 49h2q-92 92 -105 113h-2q-8 0 -32 25l18 30l2 21q18 2 25 2l6 10q27 8 26 21l86 86q-2 -2 -6 -2 t-5 -1t-7 15l57 -2l49 -49q16 -23 48 -53l34 -35q10 -16 33 -33l88 -90h-2l6 -6v2q55 -59 60 -66l90 -86q33 -33 63 -74l33 -28l25 -29l-11 -22q-4 -8 -4 -11l-43 -51q-12 -14 -39.5 -39.5t-33.5 -32.5l-33 -36h-6l-308 -293q-23 -23 -37 -39.5t-32 -34.5l-29 16l-22 29v-4 q-10 29 -35 39l-53 55q-12 12 -15 12l-20 19v-2q0 -6 -8 -6zM233 1067l-12 16h-18v-4q0 -4 -8 -10l-33 -33q-10 -10 -31 -32q-45 -49 -53 -50l-15 -8l3 -2q-4 -6 -17 -10l4 -4h-2l2 -2v2l2 -2q0 2 4 2t7 2l53 -60l-2 -2l110 -112l-2 -2l135 -135l-2 -3q16 -20 56 -59v-4 l8 -6q-109 -98 -203 -191q-33 -37 -49 -49l-31 -35l-8 -4q-27 -23 -41 -41l-22 -24l-2 2q-4 -4 -13 -8h-4v-17l49 -45q70 -63 90 -98q8 -2 13 -14l4 2l-2 2q2 0 2 3t-4 7l59 55l2 -2l12 12q0 2 2 5l3 -3l98 95q37 35 78 74.5t61 58.5l35 35v-2l57 57q6 6 29 27l82 84 q0 4 -2 6q4 4 8 14l-6 10v-2l-101 109v-2l-98 96q-20 31 -59 63l-72 74l-6 10l-57 58l-19 16q-16 18 -33.5 33.5t-44.5 44.5z" />
<glyph unicode="?" horiz-adv-x="923" d="M571 1417q2 0 68 -10v-2q6 0 8 -2l51 -25l25 -20h4q4 -8 29 -23h4l53 -55q0 -4 -2 -4h4v-6l14 -25l13 -35l14 -34h2q14 -49 14 -82h2v-50h-2q-10 -55 -13 -59t-3 -8l2 -10q-2 0 -4 2v-2l-31 -78l2 -2q-8 0 -22.5 -25.5t-16.5 -27.5l-20 -23q-14 -18 -41 -45v-6 q-43 -39 -49 -62h-4l-43 -59v-4q-2 -2 -6 -2l-39 -84l-6 -25q-2 -2 -3 -18l-16 -53l-10 -50l2 -4l-4 -24q0 -6 2 -8v-2q-2 0 -8 -7l-13 2q-20 0 -22 -2q-2 2 -14 2l-52 -4q-29 4 -71.5 4t-42.5 -2l-31 2q-2 2 -2 13l-4 22q4 94 20 174l2 15l15 34q18 45 18 52.5t2 9.5h2 q2 2 2 8h2q0 4 8 21l25 22v4h4q16 31 21 31l6 10q6 20 12 21l23 41q0 4 2 6l39 51q0 6 29.5 50t28.5 47t-1 7l4 5q4 25 4 57h-4v8q-4 0 -5 3t-3 5t-6 5t-10.5 7.5t-14.5 8.5q-23 14 -45 24q-6 0 -18 4h-17q-29 0 -47 -8t-18 -10h-4v-6l-9 -6v-4q-8 0 -10 -9q-10 -39 -35 -63 h-4q-4 -4 -65.5 -10t-89.5 -6h-7q-2 0 -2 2h-63l-23 -2q-25 0 -24 14q8 16 8 39l14 76h2q0 2 6.5 19t18.5 42v4l6 4v4q0 6 21 27l6 8v6q4 0 8 9.5t8 9.5l10 18q2 0 6 6q18 27 37 41l39 35h4q8 8 13 8l6 6l12 4q31 18 45 23v2q4 0 6 -2l33 8q6 2 25 6l41 6q45 4 67 5l57 -5 l39 -8v-2zM406 379l75 4l47 2v16q0 16 -2 19l2 18h4v8q29 106 33 113l21 37l2 8q10 14 22 35q49 78 82 119l21 26v7l18 16l35 45v4q8 8 10 11t6 7l27 44l6 2v4q0 2 4 2l12 30h5l10 43l2 7l4 43h2v24l-4 39l-4 35l-4 27q-2 4 -5 17t-8 17h-4v-12q8 -8 9 -20l-3 -5h5l10 -49 q0 -8 -2 -10l4 -33l2 -14l-2 -25l-4 4q0 10 2 13l-4 33v20q-14 14 -15 70h-2q0 2 -1 6t-5 18q-6 35 -14 47q0 8 -14 23v4q-2 0 -37 35v2q-2 0 -17 14q-29 14 -88 41v2q-2 2 -28 8v2q-14 0 -84 21l-31 4v2q-2 2 -18.5 2t-37 -1t-38 -4t-31.5 -5l-27 -6q-10 -2 -18 -5.5 t-14 -5.5q-70 -43 -76 -43h-8l-29 -24v-4q-39 -39 -45 -39v-4l-37 -41l-49 -92l-10 -58q-6 -18 -7 -32l2 -5q2 -2 3 -6q2 -10 25.5 -10t37.5 8l107 2v-2q53 0 55 2q6 6 6 13h2q18 39 23 38v5q10 14 19 22t13 16l43 25l6 2l52 4l18 -2l39 -12q14 -4 23 -12h4l6 -9h4l39 -53 l2 -24l4 -19l-2 -4q0 -16 -2 -18h-2q-8 -43 -27 -84v-4q-6 0 -8 -5l-33 -51q-14 -16 -17 -21t-9 -14v-4q-2 -2 -7 -2l-2 -8l-12 -12l-10 -8v-4l-25 -23l-6 -6l-12 -17l-58 -100l-8 -18l-16 -66l-4 -31l-2 -79v-43q0 -29 33 -29h41zM555 25v-13l4 -4q0 -2 2 -4q-4 0 -4 -2v-2 l-27 -4v4l-34 -4q-2 0 -134 -4l-20 4l-8 2l-23 -6q-35 0 -35 31l7 30l-2 10l-2 87h8q-2 14 -2 40v43l16 3l109 2q106 -6 133 -15v-43l8 -153q2 0 4 -2zM381 23l20 -3l5 3q4 0 6 -3l92 3q12 0 16 4t4 20l-4 96h-2l2 64l-16 4q-12 0 -15 -2l-118 6q-12 0 -41 -4h-17l-2 -14 l-2 -21l8 -84q0 -39 13 -69l43 -3q2 3 8 3z" />
<glyph unicode="@" horiz-adv-x="1155" d="M827 780l-6 -209q0 -35 2 -36l6 -27l54 -14q23 147 22.5 210.5t-4.5 98.5t-17.5 101.5t-19.5 105.5q-10 12 -32.5 52t-40 60.5t-60.5 41t-91 20.5t-90 -6.5t-69.5 -12.5t-56.5 -14t-33 -8q-63 -23 -85.5 -58.5t-45.5 -121.5v-39q0 -76 -12 -177.5t-12 -150.5 q0 -162 38 -272q20 -20 41 -60.5t39.5 -64t84 -43t128 -19.5t97.5 2q117 12 217 56l37 8q20 14 40.5 19t47.5 20l67 -144q-59 -47 -199.5 -84t-211 -37t-122 3.5t-112.5 9.5t-90 8q-88 16 -137 84q-84 115 -113 258q-12 63 -19.5 148t-12.5 115t-5 50q0 160 35 369 q25 141 131.5 223t251.5 82q174 -4 195 -8q29 4 30 4q193 -27 285 -127q29 -31 45 -68q53 -90 53 -254l-4 -188v-29q0 -25 2 -28q-14 -168 -33 -199q-23 -43 -71.5 -66.5t-96 -23.5t-129.5 55q-100 -39 -180 -39q-158 0 -223 181q-12 37 -12 84t53 196q92 139 276 139 q61 0 144 -14q25 -20 24 -129v-33zM801 514l4 94q0 113 -14 310q-117 6 -123 6q-182 -35 -224 -97l-20 -30q-33 -29 -47 -228q4 -14 8 -42.5t9 -46t20 -38.5q31 -39 137 -55q72 2 116 18.5t52 16.5h14l113 -60l141 35q41 41 54.5 77t13.5 99v54q-4 37 -4 57l14 225 q0 100 -57 209v2q-35 70 -120 124t-173 54l-27 5q-12 0 -22 -7q-102 12 -121 13q-428 0 -459 -373l-4 -78q-4 -37 -4 -104q0 -88 20 -314q6 -133 70.5 -261t173.5 -163l160 -16q205 0 344 31.5t203 74.5l-52 109q-160 -78 -274 -78h-6q-57 -18 -131 -18h-45q-174 0 -217 82 q-111 199 -111 350t24.5 295.5t24.5 191.5q33 90 160 140q82 31 140.5 30.5t111.5 -13.5t86 -15q92 -51 133 -187.5t41 -285.5l-10 -127l2 -21q-18 -55 -27 -86q-53 4 -68 8l-16 13q-14 8 -14 20zM624.5 825q26.5 0 39.5 2l20 -14v-229l-12 -33q-10 -4 -46 -23.5t-68 -19.5 t-66.5 36t-34.5 93t21.5 101t36.5 57.5t34.5 19.5t34 8t41 2zM645 801l-47 6q-41 0 -75 -41t-34 -86q0 -125 101 -125q37 0 65 16v11q0 10 11 41l2 -5v7l-2 -2v6l-2 -8v24q0 14 6 25h-8q-6 55 -6.5 81.5t8.5 49.5h-19zM555 539q2 -2 19.5 -2t82.5 16q-14 0 -52 -7t-50 -7z " />
<glyph unicode="A" horiz-adv-x="888" d="M676 1004q-4 -4 -4 -15q10 -33 27.5 -123t33.5 -135q4 -20 23.5 -112.5t23.5 -139.5q12 -23 17.5 -75t11.5 -72q8 -4 12 -29q-8 0 -6 -14.5t10 -63.5q18 -111 28.5 -136.5t31.5 -86.5q-4 -12 -8.5 -12t-14.5 2q-25 2 -130 6t-120 8q-14 39 -50 152.5t-54 156.5l-8 9 q-18 -2 -33 0q-39 2 -66 -11q14 -4 41 -7t39 -5q-6 -2 -13 -2t-7 -2l-51 6q-29 0 -37 -18l-64 -279q-10 -10 -26 -10l-45 6q-12 0 -15 -2l-4 4h-65q-98 0 -142 -6q0 2 -5 3t-5 4t2 3l12 23q-6 6 -6 10l15 27q53 266 73 421q-10 0 -44 -171t-46 -218q6 27 58.5 318t87.5 434 q0 -16 -2 -21v-24q76 303 106 459q-4 -4 -7 -12.5t-5 -12.5q4 47 36.5 111.5t67.5 89.5h35l180 8q66 -258 76 -327.5t22.5 -89t12.5 -29.5zM348 340q31 18 94.5 18t81.5 2q2 -2 8 -4q14 -8 15 -20l-4 -8q12 -27 40.5 -132.5t53.5 -142.5h-8v-16q14 4 18 8q8 -6 72.5 -6 t103.5 2h17l-11 61q-14 90 -59 230.5t-45 167.5v6q0 25 -25 115l-51 188q4 0 56 -150q14 -18 14 -28v-6h-4l10 -35q2 0 6 4q-4 4 -4 6l8 12l-55 248v12q0 35 -22.5 96.5t-24.5 86.5v-8q4 -12 4 -19q-6 -12 -6 -20l12 -60q0 -6 -4 -6l-2 6q0 4 -2 4l-4 -14q-2 51 -31 181 t-39 186l2 -2l-10 75q0 23 -18 23l-29 -2q-10 0 -14 4q6 6 6 8q-66 0 -154 -2q-8 -66 -32.5 -140.5t-46 -190t-48.5 -173.5h6q-14 -96 -28 -114l4 -25q0 -12 -20.5 -81t-32 -123t-19.5 -68q0 -18 4 -19l-12 -61v-6q4 4 7 18t13 18q-4 -80 -46 -241.5t-46 -177.5l8 -5 q223 41 228 41q23 35 44 136.5t31 126.5zM524 586l-24 -2l-103 4h-26q-8 0 -9 14l7 21v8q0 6 2 8l2 -2q2 6 4 37q6 106 23.5 172.5t17.5 87.5v10q0 10 14 25q-2 2 -2 23.5t11.5 21.5t25.5 -64.5t32.5 -192.5t30.5 -167zM451 948q0 10 -7 15q-2 -4 -6 -13q-12 -18 -12 -35 v-16q0 -68 -39 -274l-4 4l-4 -8l4 2l8 -23h117l8 6q-10 18 -24.5 151.5t-40.5 180.5v10zM90 496l10 2q16 66 52 286q-18 -55 -37 -157t-25 -131zM4 84l4 16zM4 80v4v-4z" />
<glyph unicode="B" horiz-adv-x="976" d="M733 729q-6 -6 -6 -16.5t21 -30.5q6 0 34.5 -20.5t73.5 -77t70 -129.5l2 -2v-2q35 -76 35 -108t-5 -93v-10l-4 -4l-16 -25q-82 -141 -113 -162q-16 -10 -106 -57l-6 8q-74 -33 -165 -33t-173 10l-178 -10q-68 0 -107 19q-2 39 -2 120v123l6 746q0 176 -6 352l2 90 q6 12 24.5 15.5t22.5 5.5l39 -2l324 20q160 0 234.5 -59.5t142.5 -190.5q33 -80 32 -168q0 -184 -176 -309zM297 8l178 -2q262 0 275 51l41 41q29 29 39 38t28.5 29.5t23.5 31t16 29t13 33.5t5.5 35.5t3.5 45.5q0 223 -179 326q-23 12 -22.5 14t2.5 2l-12 8q-25 14 -25 39 q16 29 61.5 63.5t75 74.5t29.5 102v16q0 18 -2 21v32q0 127 -62.5 219.5t-123.5 112.5q-98 45 -288 45t-235 -10v-8q0 -12 -2 -15v-137q2 -92 2 -184q4 -188 8 -264q-12 -109 -12 -279l2 -242h-2l-4 11q-4 -4 -4 -15l2 -22l-4 -66l2 -121v-30q0 -20 -2 -23l51 -2l-24 -6 q69 6 145 6zM614.5 518q32.5 -49 32.5 -103.5t-15.5 -85t-34.5 -46t-54 -23.5t-60 -10q-74 -2 -125 -2l-28 18l12 330q18 -2 59 -4q88 -4 129 -17q52 -8 84.5 -57zM340 1055l-2 43q0 27 16 43q80 6 88 6q78 0 143.5 -30t65.5 -101q0 -176 -235 -176q-29 0 -43 2 q-33 6 -33 61l10 133v21q0 2 -4 22zM365 860l67 -2q106 0 150 51l-41 -12q68 51 67 123q0 41 -39 64.5t-77 23.5l-101 12l-29 -4l-4 -160q1 -53 7 -96zM383 276l61 -6q88 0 117 56q31 37 31 85t-15.5 73.5t-45 34.5t-53 13.5t-62.5 4.5h-51v-117l2 -76q0 -49 -9 -65 q2 -2 11 -3h14z" />
<glyph unicode="C" horiz-adv-x="999" d="M727 858l-43 -2q-4 2 -14 4q-23 4 -23 19q-2 16 -3 60t-5 73.5t-14 64.5q-20 72 -105 72q-57 0 -106 -43l-25 -33q-16 -262 -16 -452q0 -317 147 -318q131 0 144 152q2 27 5 66.5t5 62.5q14 -2 57 -2t154 -4l33 6q18 0 32 -13l13 -215q0 -156 -133.5 -272.5 t-260.5 -116.5q-88 0 -92 2l-82 19q0 -18 -22 -19q-229 0 -283 269q-16 88 -22 346l-2 4q-8 -25 -8.5 -74t10.5 -115l-13 2l19 584v78q0 25 -4 78q47 188 139 297q39 23 73.5 27.5t43 6t27 2.5t24.5 2t29 1h26q57 -4 113 -4q86 0 157 -23q14 -14 73 -45t77 -66 q92 -119 121 -266l-19 -184q0 -27 2 -29q-43 -8 -92 -8zM842 522l-111 -10q-23 0 -24 2q0 -27 -12.5 -77t-12.5 -79q-12 -23 -51 -54.5t-51 -51.5q-14 -8 -51 -8t-71 15t-53.5 50t-33 63.5t-19.5 82.5q-10 86 -12 155v72q2 14 2 43v131q0 113 15.5 187.5t64.5 138.5h10 q16 0 41 9t54.5 9t57 -15.5t43 -38t26 -59t13.5 -64.5t7 -70t6 -62h227l13 8l8 117q0 80 -16.5 114.5t-20.5 47t-20.5 35t-21.5 30.5t-27.5 31.5t-26.5 28.5q-12 16 -62 65q-131 63 -256 63.5t-219 -49.5q-8 -2 -15 -11t-12 -9l-4 4l-32 -23q-66 -53 -66 -176l2 -63 q0 -39 -8 -80q-4 0 -4 7t-2 11l-8 -120q-6 -78 -7 -154l2 -88l11 -6q-6 -31 -6 -38t2 -7l4 2q-4 -29 -4 -39v-121q0 -23 -2 -33l8 -32q-8 -18 -8 -58q0 -129 116.5 -234.5t313.5 -105.5q113 0 218 60.5t140 169.5l-8 2q29 63 29 149t-18.5 109.5t-57.5 23.5z" />
<glyph unicode="D" horiz-adv-x="987" d="M336 1440l196 -2h43q145 -31 232.5 -178.5t126.5 -339.5q8 -74 8 -160q0 -350 -86 -488q-16 -80 -63.5 -155.5t-116.5 -110.5l-438 -4h-23q-31 2 -59 2q-4 -6 -9 -6l-20 4l-12 -4q-6 0 -10.5 12.5t-8.5 14.5q6 4 6 6t-5 11t-9 9q-2 -2 -4 -2t-2 2l18 76l-12 201 q0 31 6 65q-16 262 -16 312q6 4 4 8t3 42t5 54v51l-12 436v50q0 33 2 49q0 45 180 45h76zM504 63q20 -4 41 -4q8 8 18 8.5t15 -12.5q2 2 19 2t50 -5t45 -5q-2 2 -2 6t3 10.5t5 14.5l7 -6q6 0 11 15t24.5 36.5t75.5 113t65 103.5q-2 2 -2 13.5t10 32t15 38.5t7 70.5t4 64.5 l-8 2q18 90 19 184q0 217 -88 388l-9 4q-72 131 -159 176q-39 47 -68 58t-39 15.5t-29.5 8.5t-26.5 5t-28.5 2t-27.5 1h-75t-245 -14l4 -70l-6 -174v-35q0 -41 -8 -147v-45l-4 -316l-4 -250q-2 -2 -2 -6v-12l2 -23h-4v-10l4 4l4 -6l-11 -33q0 -20 13 -24q2 -14 4 -67.5 t16 -76.5q-6 29 -6 53.5t4 53.5q4 -29 13 -37l6 22q6 -49 6 -84v-32l-8 -15q0 -4 2 -4l-9 -4h-2l2 -6l19 2l59 -6q25 0 131.5 8t116.5 8l-10 -4h41v10zM440 999l84 -2q61 -16 90 -69q27 -47 43 -99q20 -63 21 -104q0 -96 -42 -184t-114 -111q-78 -4 -96 -4q-63 0 -64 39 l7 53v31l2 217l-4 174v27q0 23 6 27.5t30 4.5h37zM420 983l-19 2q-27 0 -26 -43v-356q0 -37 -2 -54l6 -86q16 -8 63 -8t119 23q41 45 58.5 76.5t25.5 80t12 62.5q-12 217 -125 281q0 20 -32 20l-35 -2l-23 10zM915 514v-6l5 6h-5z" />
<glyph unicode="E" horiz-adv-x="985" d="M952 211l-8 -188l-12 -15l-551 -2q-2 2 -19 2h-18l-115 -8q-133 0 -133 23q2 2 2 7t2 7q-4 29 -4 37l4 73v17q0 14 -2 16q4 86 4 125l-16 471l8 395q0 141 10 234q20 10 50 10q219 4 268 6q8 -6 31 -6h61l170 -2q111 0 213 6l6 4q-16 10 -39 11l-43 -2h-10v4q72 0 135 8 q8 -2 8 -9.5t-12 -19.5q6 -25 6 -78l-2 -114v-25q0 -18 2 -22q-4 -29 -4 -46v-10q-39 -6 -256 -16q-14 0 -47 4l-235 -6l-5 -8l2 -39l-6 -135q0 -18 4 -56l9 -8l247 -2q6 -12 6.5 -59t-0.5 -124t-1 -116q-25 6 -133.5 6t-108.5 -6l-12 -20v-142q0 -61 8 -88l-6 -10l8 -4 l350 -6q86 0 172 6l8 -10zM369 43l20 -4q53 0 461 8l59 6q8 27 8.5 66t-3 82t-3.5 61q-6 -6 -14 -6l-16 2q-10 0 -17 -8q-229 4 -329 4h-127q-20 0 -33 14l2 2l-12 11q-2 4 -3 30v117l-10 80q0 53 3 59t3 10.5t53.5 10.5t120 10t76.5 5t10 -5h13q-2 2 -2 16l4 99 q0 100 -25 100q-35 -6 -69 -6l-125 8q-20 0 -25 -12q-20 0 -24 26l-3 23q0 12 -8 18l4 68l-4 154q0 20 8 36h13q35 0 69 9h29q41 0 383 10q45 4 57 8l-4 223l-4 6q-18 -6 -41 -6l-110 6l-74 -2l-156 4q-176 0 -393 -36l-6 -15l4 -139q-2 -2 1 -56.5t3 -80.5v-115 q0 -6 7 -19.5t7 -30.5t-2 -32l9 -84q0 -43 -19 -116v-97q2 -29 2 -57q2 -18 4 -19q4 2 6 0q2 2 3.5 6.5t5.5 4.5h2l-2 14q0 6 6 10q6 -18 6 -44.5t-6 -26.5t-6 2t-4 2l-2 -4q2 0 2 -5.5t-5.5 -14.5t-5.5 -11l6 2q4 -8 5 -27v-22q-4 -20 -19 -66v-8q-2 0 -2 -2t20.5 -38 t20.5 -51t-5 -15t-7 2q2 -2 2 -19v-18q-8 -74 -8 -117q14 -6 28 -6l66 6h121z" />
<glyph unicode="F" horiz-adv-x="1011" d="M735 575l2 -20q0 -6 -10 -20l-12 -5v5q-37 -8 -103.5 -14.5t-95.5 -12.5t-40 -6h-13q-8 -53 -8 -162t-5.5 -145.5t-5.5 -47.5v-34q0 -41 7 -78h-7q-14 0 -14 -12l19 -3q-2 -23 -11 -28l-2 2q-2 0 -2 -4l-18 10q-111 4 -150 4l-147 -2q-4 18 -10 23q-6 -4 -7.5 -15.5 t-3.5 -15.5q-23 4 -22 16q18 18 18 39q-2 2 -6 4q-6 4 -6 8l4 5q10 0 17.5 355t9.5 433l-4 16q-18 -121 -19 -237v-37q0 -23 2 -33l-4 -6l6 -25v-2q-12 0 -12 53.5t9 226.5t9 292t-12 272l-16 8q2 6 6 7l16 -5q4 0 10.5 17.5t10.5 21.5v-2l57 -6h16q-4 -2 -15 -3t-15 -5 q18 -2 102 -2t481 14l234 -6q2 2 3 8t7 11l21 -48l8 -2q0 -12 -7.5 -12t-7.5 -6l5 -16l-3 -203q-4 -4 -4 -15l17 -4v-6q0 -25 -21 -37q-20 -8 -22 -16q-10 29 -34 29t-32 -13q-31 -8 -95.5 -8t-203.5 -14q-39 6 -74.5 6t-52.5 -8l-12 2q-8 0 -8 -25v-16q0 -18 -2 -21l-4 5 q-8 -8 -9 -82q0 -61 142 -62l108 4q41 0 41 -10q0 -4 -1 -7t3 -3l21 8q4 0 4 -6v-8l6 -11q-6 -4 -20.5 -4t-22.5 -6l10 -215q0 -2 10 -6v-6q-10 -7 -10 -15zM840 1135l69 -2q35 0 35 20q0 14 -8 88q2 14 2 27v65q0 25 -14 25l2 -6q0 -2 -5.5 -2t-21.5 8h-16q-10 2 -19 2h-20 l-103 -2q-137 0 -139 2v10l-18 -6v-4q-2 -2 -4 -2l-13 4q-6 0 -8 -6q-211 -2 -276 -15q-14 8 -31 9l-55 -9l-13 2l6 -38q0 -10 -2 -13q-8 0 -16 8l6 5q4 0 4 2l-2 6q0 4 2 4q-6 6 -22 45l-17 -676q8 -76 9 -194l-11 -345v-45q0 -29 2 -43l78 -8v-4h4q8 0 17 -10l77 6l82 16 q8 29 10.5 88.5t6.5 79.5h2l-6 11l4 4q2 0 4 -2v6l-4 28v5h4q-2 2 -3 134t-5 134v10q0 4 4 8q-4 -4 -17.5 -4t-15.5 8q6 12 18.5 11.5t26.5 -2.5q8 2 11 15t8.5 13t7.5 -5t4 -11q6 -14 79.5 -14.5t147.5 20.5q-6 14 -6 33l2 43q0 129 -8 151q-72 14 -124 14.5t-97 -14.5 q-2 2 -13 2h-4q-8 0 -10 2l-12 -28l-6 6q2 2 2 8t-12.5 12t-12.5 15q6 6 14 6h7v16q-8 8 -9 10l2 2h-2l4 5q0 4 -8 4q2 8 4 31.5t9 33.5l6 -51l-2 154q-2 0 -19 26l-4 17l-2 4q0 8 14.5 20t16.5 19l4 -11h4q16 0 25 9l12 -13l65 4q137 8 150 15l8 -8q18 12 45 12l45 -12 l12 10q2 0 7 -6q0 8 6 8h10q4 0 4 2q2 -2 2 -8q-2 -2 -6 -2v-4q2 2 29 2zM100 909q4 12 4 40t-2 28v-16q0 -6 -1 -23t-1 -29zM113 874v15l-2 -15h2zM428 834q0 2 -2 2h-2l4 -5v3z" />
<glyph unicode="G" horiz-adv-x="985" d="M938 737l10 -268q0 -377 -174 -444q-92 -35 -161.5 -37t-140.5 -3t-101 -3q-68 4 -141.5 54t-106.5 107.5t-47.5 211t-14.5 302.5l9 496q4 8 4 26.5t8 28.5q-2 2 -2 11q43 123 172 190q74 37 127 37q215 0 407 -51q88 -41 115 -118t27 -196v-100q-12 -12 -47 -12h-43 l-60 -2q-63 0 -114 8q-8 12 -13.5 39.5t-9.5 36.5q-6 37 -39 64.5t-76 27.5t-73.5 -17.5t-58 -72t-27.5 -80.5l18 -189q-6 0 -6 -8q4 -45 4 -59l-16 -215q0 -74 34.5 -131.5t116.5 -57.5q100 0 121 43q16 29 16 68t-4 47t-22 12h-129l-11 13q10 106 10.5 133.5t-3.5 105.5 q53 6 129.5 6t87.5 -4q68 8 138.5 8t80.5 -2zM412 43l90 -6q133 0 207 18q35 0 71.5 20.5t44.5 24.5l2 -2l29 37q35 35 45 139q2 37 4 41q23 31 23 117q-4 -4 -4 -6q4 78 4 121q0 166 -25 166q-14 -2 -14 -4l-47 -2l-121 -9q-23 0 -25 2l2 7q-25 6 -166 10v-101 q0 -47 -6 -96h49l89 2q31 0 30.5 -7t-10.5 -13v-45q0 -113 -17.5 -133.5t-52 -31.5t-80 -19.5t-59.5 -12.5l2 12q-156 37 -155 316l10 278q0 106 -17 178q4 10 23.5 28t19.5 32q-4 -4 -20 -11.5t-21 -9.5q0 12 59.5 41t84.5 29h10q23 12 46.5 12t47 -2t33.5 -2 q-20 16 -104 29q-20 -2 -54 -14.5t-41 -14.5q33 39 101.5 39t127 -48t58.5 -120q6 0 12.5 -8t33 -8t110.5 8q8 -10 17 -10t46 6q0 195 -47 270q-84 135 -422 135q-188 0 -291 -112q-51 -82 -51 -226l10 -235h-6q-8 -74 -8 -166l2 -80h4l8 -110l-4 2q10 -51 10.5 -73 t-1.5 -24l-7 19q-6 -25 -6 -67t17 -68v6q0 4 4 8l24 -115l-12 21q14 -53 39 -74q-8 8 -8 14.5t2 8.5q39 -61 97 -94t96 -33t57 8l-6 6q2 2 6 2z" />
<glyph unicode="H" horiz-adv-x="1021" d="M666 6q-23 168 -23 545h-4v4q0 18 -12 18l-209 2q-20 -14 -21 -20l-2 -193q0 -129 8 -235l-2 2q-6 -18 -6 -58t-4 -57q-2 2 -14 2l-53 -8l-7 -12q-35 12 -104.5 15t-79.5 5q-12 -2 -22 -12l2 25q0 8 -7 8l-6 -2l2 26q-23 557 -22.5 856.5t4.5 507.5l29 -10q106 10 155 10 t60 -2q31 -6 30.5 -58t12.5 -316h-4q-2 -2 -2 -11.5t11 -69t11 -85.5q31 -6 68 -6l153 6l6 8q10 205 11 332v94q0 33 -4 102q2 -2 6 -2t8 9.5t8 9.5q29 -6 57 -6q156 0 187 30l10 -10q0 4 4 4q-2 -2 -2 -14l43 -39q-2 -8 -10 -8h-4v-176q6 -72 7 -219.5t11 -227.5 q-4 0 -8 -4q8 -8 8 -23l-10 -139l10 -235l10 -4q-8 -6 -8 -17l8 -35q6 -61 17 -266l-10 -4q-4 -31 -23 -31l-8 -4l-115 2zM713 35l121 -4q63 0 98 8v6q0 8 -8.5 21.5t-8.5 15.5l-30 962q6 94 6 186.5t-8 160.5h-107q-57 0 -100 8q-16 -78 -17 -209l11 -217l-2 -47l-9 -17 l3 -18q0 -33 -17 -33q-6 0 -8 2q-35 -10 -53 -10l-142 2q-25 0 -77 -4l-13 -12q-6 18 -26 24q-6 76 -7 152l5 317q0 70 -23 70q-61 -10 -141 -10l-49 2v-199q-2 -2 -2 -18l2 -46l-2 -79q-4 -20 -5 -29l7 -154q0 -2 -5 -35l3 3q0 -104 14 -320.5t14 -294.5t-4 -164 q29 -14 79 -14t128 12h16q10 0 10.5 8.5t-1.5 10.5l-5 -6q-2 2 -2 12l9 41q-6 63 -7 131l7 254l-2 74l6 20q2 2 4 2t12 -6l12 18q4 -16 29 -16q154 0 219 12q8 -6 21 -10q18 -6 18 -12l-12 -23q0 -4 2 -6l4 6l10 -14q-4 -70 -4 -141q0 -147 12 -166q0 -2 -4 -6z" />
<glyph unicode="I" horiz-adv-x="538" d="M258 1425l160 11q10 8 12 26q2 10 4 15q2 -4 7 -20.5t14 -22.5h28q0 -8 -14 -16.5t-14 -16.5v-6q-12 -72 -13 -183l4 -231q0 -74 -6 -143q2 -23 2 -66v-63l-10 -267q14 -328 25 -413l14 -29q0 -12 -15.5 -12t-57.5 7t-91 7h-74q-18 0 -53 2h-4q-49 -25 -59.5 -24.5 t-10.5 2.5v2q-8 0 -12 8t-6 8l-8 -4q2 66 14 314.5t12 381.5t-8 250q4 135 17 170l-9 2l3 12q0 -2 2 -4l6 62l-2 76l6 100q0 25 -6 45h-6q0 16 12 23.5t16 11.5h29q10 0 20 2l-2 -8q25 -9 74 -9zM389 768l10 291v98q0 43 -2 62q2 0 4 -2v4l-8 14l4 4l2 -2v106q0 4 -4 33 q-100 18 -159 19h-37q-18 0 -18.5 -18.5t9.5 -49.5q-4 4 -14 10l2 -28q0 -14 -8 -21l-2 4l-2 -20q0 -8 10 -19q0 -55 -12 -55q-14 -131 -14 -348t5 -293t10 -128t5 -58l-2 2v-17q10 -92 10 -186l-6 -74q0 -29 8 -43q152 2 161 6t9 13q8 -10 15.5 -12.5t9.5 -4.5q6 31 6 90 v76l-6 -2v10q2 0 2 21v94q0 100 6 168q0 16 -6 57q0 12 6 25q2 0 4 -2l4 14q0 18 -8 43h2q2 0 2 16.5t-4 62.5t-2 48q4 -4 4 -6z" />
<glyph unicode="J" horiz-adv-x="948" d="M555 1167l-4 201q0 29 4 94l8 6h129q84 0 123 -2q2 2 21 9q14 -39 14 -138l-2 -129l4 -215v-30q8 -88 8 -170t-2 -199t-2 -174l-2 2l-2 -47q-2 -4 -6 -20.5t-8 -24.5v-11q0 -14 -11.5 -40.5t-13.5 -36.5q-66 -164 -172 -207q-143 -55 -259 -55t-200 46t-110 142 q-35 98 -37 123l-10 10q0 45 -13 61l-16 226l-12 8l20 16q4 -4 6 -4l10 2l76 -10h131q45 0 68 2q4 -4 12 -4q23 0 23 -16q-4 -20 -4 -27v-27q0 -55 23.5 -120.5t66.5 -65.5h33q10 -6 16 -6q41 0 68.5 59.5t27.5 122.5v41l-2 86v10q0 25 -2 29q-6 4 -6 8q4 0 4 10l-4 60v43 q-2 2 -2 4l6 16q0 6 -2 9q4 86 4 137l-8 157zM827 567l-4 224q0 39 4 116q-10 86 -10 261t-10 268l-25 4l-32 -8l-117 10q-23 0 -45 -6l-4 -78q29 -420 28.5 -592t-10.5 -180q-4 -135 -24.5 -175t-40.5 -63q-8 -4 -33 -20q-53 -35 -66 -35q-70 0 -122 74.5t-52 148.5 q-8 8 -8 20.5t2 14.5q-2 0 -32.5 8t-49.5 8l-37 -4l-86 15q-20 0 -20 -21q0 -12 12 -16q-2 -4 -2 -29v-27q0 -172 76 -309q41 -70 115.5 -113t178 -43t208.5 48q31 2 52 19t44.5 47t42.5 44q67 137 67 389z" />
<glyph unicode="K" horiz-adv-x="940" d="M123 2q-4 0 -27 -2l-26 10l8 6v43l2 197q0 98 -8 178q10 94 10 230v137l6 348v283l203 -7h37q18 0 37 -20q4 -414 4 -424l6 -4q25 20 38 41.5t35.5 65.5t59.5 98q39 53 77 127.5t58 105.5l19 12h278l12 -14q-4 -31 -30.5 -85t-30.5 -87q-109 -178 -178 -307l-27 -68 l27 68q-12 -23 -37 -74q-55 -117 -64 -121q0 -27 27 -67.5t33 -57t47 -102.5v10q12 -27 14 -39q-2 4 -4 9q170 -360 209 -459q-2 -2 -2 -6l6 -17q0 -12 -82 -12h-22l-183 6q-23 20 -56.5 76.5t-54 83t-36.5 56.5t-48 94.5t-81 150.5q-6 -12 -6 -23l6 -47q0 -14 -2 -16l6 -4 q-4 -29 -4 -45v-49l8 -248q12 -4 12 -11.5t-12 -19.5l-6 10q-23 -14 -74 -14l-102 4l-53 -4zM365 416l-5 114q2 2 2 13v16q0 12 11 19q217 -360 297 -525q14 -23 21 -22.5t14 8.5q23 -23 44 -23t35.5 5.5t65.5 5.5t68 2q-6 27 -50 92q-23 74 -85 207t-83 184 q-10 51 -57 120.5t-57 84.5v39q14 41 68.5 120.5t68.5 120.5l4 -4l57 101l-12 -19q2 4 31 70q14 55 59 138t60 112v12l-78 -12q-20 14 -58 14l-112 -12q-33 -39 -71 -119t-58 -109q-98 -182 -148 -264h-4q-8 0 -20.5 -17.5t-22.5 -17.5l-8 4q12 82 12 211v162q0 31 2 45 l-4 4q0 98 -49 99q-6 -2 -16 -4q-6 10 -13 10l-18 -2q-6 0 -10 4l6 6l-107 8l-26 -2q4 -250 4 -377l-10 -921q0 -80 6 -92l174 10q2 2 14 2l31 -2q10 0 22 6q-2 14 -2 41v41zM627 76q4 -45 37 -64q-2 15 -37 64z" />
<glyph unicode="L" horiz-adv-x="944" d="M827 10l-20 6q-8 0 -14.5 -9t-14.5 -9l-41 16q-8 0 -16 -6q-35 8 -47 8v-8q-14 8 -35 8l-39 -2h-14v2h-41q-61 0 -80 -6h6q4 0 4 -2l-4 -4h-82l-4 -2v2l-33 8l-12 -4q-6 0 -6 3t2 5q-14 -2 -47 -2l-115 2q-43 0 -43 -6q-8 0 -27.5 10.5t-25.5 20.5v2l2 -2q12 47 12 96h2 h-2q2 2 2 4l-4 17q2 4 4 12v-12l6 18l-6 -6l17 270q-8 770 -10.5 802t-5.5 63.5t-5 113.5q-4 6 -13 9.5t-9 5.5q0 16 67 16q2 0 19 -4l137 8q74 0 123 -16q-4 -98 -4 -148v-299l8 -280l-8 -328q12 -2 12 -12l-4 -19q0 -6 2 -8l-6 -16q4 -4 9 -3t9 -1q6 16 16.5 16t18.5 -4 t74 -4h41q86 0 170 -13q8 8 24 9q18 -16 68 -17h39l6 6l-53 19q20 4 24 4q84 0 84 -51l-10 -80l2 -14q-2 -14 -2 -41v-39q0 -51 6 -95q-10 -18 -29 -18l-51 8q-18 0 -49 -2q2 2 16 2zM780 47l66 -14h26q18 0 21 -2q12 31 16 86q-14 20 -14 53l6 74q0 27 -2 28q-47 2 -130 3 t-134 4q-139 2 -250 24q4 -14 6 -14q0 -18 -8 -27q-20 2 -21 25l5 32q0 14 -11 25q-12 37 -12 118t2 136l4 98q2 0 6 -12q16 57 17 182q-4 12 -4 31v86q0 18 -4 31q8 6 8 12l-8 27q0 2 2 10q4 16 4 78v225q0 14 4 18l4 -4l2 4q0 16 -90 16.5t-154 -7.5q-6 -215 -6 -222 l4 -190l-12 -582q0 -121 10 -274q-10 -6 -10 -14l4 -27v-6q2 -4 2 -12v-13q0 -12 14 -12q70 6 84 14q205 -12 360.5 -12t155.5 -2q14 6 37 6z" />
<glyph unicode="M" horiz-adv-x="1026" d="M930 1249l8 -405q0 -109 -8 -197q2 -31 2 -416q10 -135 16 -165q-2 -6 -2 -27q0 -45 -28 -49q-27 8 -84 8l-99 -2h-26q-20 0 -25 2q-4 -12 -8 -12l-17 8q-4 0 -6 -2q-16 45 -16 127l2 59q0 25 -4 74q-2 49 -4 214t-13 255h-6q-33 -18 -61.5 -126t-56.5 -108q-16 0 -25 15 l2 6q0 12 -13.5 29.5t-13.5 21.5l2 12q0 8 -14 41h4l19 -24q12 -16 20 -25q-51 98 -61 99q-2 0 -2 -5q-2 2 -15.5 48.5t-19.5 50.5q-6 -23 -6 -156t6 -225q-2 -8 -4 -23h2l-8 -291v-32q0 -27 2 -31l-13 -8h-8q-61 4 -86 4l-145 -4q-43 0 -43 47l2 41q0 14 -2 18h-4l10 70 q-16 528 -17.5 528t-1.5 -1t-2 -1l13 512q0 51 -4 162l4 12q6 37 16 37l33 -2h237l50 -67l-5 -7q20 -25 36 -75t28 -85.5t27.5 -35.5t38 53t48 125t44.5 98l141 -4q72 0 113 15l57 -5l-8 -12q0 -2 6 -8q-4 -53 -4 -78v-78zM639 770l8 -154v-32q0 -57 15.5 -309t15.5 -257 q27 -8 94.5 -8t124.5 8q12 14 18 138v59l-14 459l23 119q0 20 -9 34l7 31q-6 59 -6.5 100t8.5 72q-4 37 -4 60l2 110q0 35 -29 184q0 4 -27 23q-4 -2 -26 -2h-92q-94 0 -145.5 -82t-57.5 -176q-27 -59 -29 -68l-4 2l-16 -4q-33 0 -90 201q-12 31 -50 104q-20 -4 -100 -4 l-109 2h-38q-23 -102 -23 -211v-24l-2 -78q0 -33 10 -90q-10 -61 -10 -152l6 -258v-53q8 -76 8 -172l-2 -215q0 -90 20.5 -107.5t89 -17.5t118.5 10q4 4 38 289l-4 174l-2 246l-2 29q0 43 11 43q6 0 35.5 -57.5t35.5 -76.5q51 -102 66 -135l8 8v-2q6 0 18 37q47 139 62 174 l35 76h18q-4 -33 -4 -47zM645 389q0 -6 4 -10v8q0 6 -4 10v-8zM645 420v-19l2 23z" />
<glyph unicode="N" horiz-adv-x="1019" d="M666 -14l-9 12q-63 63 -84 129q-4 16 -21 76.5t-34 111.5l-20 58q0 -2 -5.5 -2t-17.5 45l-2 28l-90 181q-6 -12 -6 -33v-23l8 -141v-117q0 -20 -2 -24q2 -2 2 -8l-12 -93q0 -27 6 -88q-6 -25 -6 -32l6 -35v-17q-2 -6 -4 -20l-6 12q-12 -12 -23 -12l-16 8q-16 0 -41 -8 q-39 6 -86 6t-56.5 2t-23.5 2t-23 -4l-24 -10l-15 10q0 -2 -5 -2t-2 11t3 44l-6 113l4 61q0 43 -8 60l2 196q8 475 7 554t-1 98v20l8 199v53q0 45 48 45l61 -6l123 18q33 0 70.5 -61.5t43 -82t16.5 -37.5t28.5 -39.5t25.5 -35t26.5 -78t26.5 -73.5q4 -12 23.5 -39t19.5 -45 l9 -8q-2 0 -4 -2l45 -64q6 2 6 8l-4 19q0 6 2 8l4 -4q0 23 -19 170l4 -6l-2 69q-2 70 -2 140l-2 67q-4 12 -4 19q4 6 5 32.5t10 36.5q29 -4 39 -4l215 10q4 0 14 -2l2 2q8 0 43 -10l-2 -6q-2 0 -6 -5t-4 -7l10 -19q0 -2 -2 -4q8 -74 8 -164l-10 -360l4 -457q0 -152 -6 -231 l10 -178q-8 -6 -61 -25h-27l-102 2q-27 0 -72 -4zM852 31l41 4h10l-2 45h4q-2 4 -2 31v30l4 189l-4 850q0 59 -4 174l-10 18l10 4v8q0 20 -8 35l-27 -4q-33 4 -49 4h-45l-115 -2q-10 -121 -10 -244.5t4 -283.5l-12 -17q-6 0 -41 39t-37 39l-22 39q-59 158 -78 195 q-43 98 -150 239l-30 2q-35 0 -93.5 -11t-76.5 -13l-13 -393l-6 -9l2 -63l-6 -240q0 -154 6 -164q2 -49 3 -233t9 -270q41 -8 105.5 -8.5t120.5 12.5l-6 18q4 6 6 6l10 60q8 51 8 188l-4 320l-4 6q0 68 12.5 77t22.5 9l8 -2q6 -47 48 -112.5t48 -87t13.5 -30t7.5 -13.5 t-2 -7l10 -27q8 -4 8 -14l152 -387l110 -6q29 0 53 6q7 -6 21 -6zM518 315l-6 15z" />
<glyph unicode="O" horiz-adv-x="989" d="M55 684l6 234q2 27 4.5 85t4.5 93q10 98 53 161q35 88 121 129t194 41h41q141 0 254 -52t152 -165q41 -94 41 -241l-8 -244v-29q0 -25 2 -28q-2 -23 -4.5 -99.5t-4.5 -105.5t-10 -93.5t-20 -103.5q-31 -106 -82 -188q-29 -33 -70 -48.5t-107.5 -26.5t-84.5 -15h-39 l-162 -8q-84 0 -155.5 69.5t-92 155.5t-23 237.5t-10.5 214.5v27zM866 786l-2 62l2 145q0 205 -80 322q-145 76 -380 76q-96 0 -144 -48l-2 7q2 2 2 6q-74 -43 -120 -119t-46 -166t-6 -186.5t-6 -151.5t8 -86h-2q-2 2 -4 2l2 -90q4 -31 12.5 -132t26.5 -163.5t59 -109.5 q47 -102 236 -115q12 2 81.5 13t215.5 46q102 145 121.5 190.5t19.5 147.5v146l4 16l-4 -6q0 145 6 194zM649 348q0 -14 -47 -44t-78 -30q-6 -25 -42 -24.5t-74.5 23t-55 44t-51.5 70.5q-12 61 -20 213v21q0 49 15 140t15 129t-6 71l19 83q8 4 12 14.5t8 14.5q63 63 154 64 q8 0 10 3t1 5t1 5t10 3q27 0 103 -57q23 -72 34 -170q0 -6 11 -430q0 -84 -19 -140v-8zM532 367q59 238 59.5 315.5t-5.5 120.5t-8.5 122t-17.5 125t-54 46t-54.5 -8.5t-25.5 -29t-20 -30.5l-9 2l6 21l-32 -23q-8 -29 -9 -61v-37q-2 -23 -2 -66v-61q0 -119 5.5 -155 t9.5 -114.5t15 -131t42 -91.5h8q72 42 92 56zM537 1145l6 -2z" />
<glyph unicode="P" horiz-adv-x="1017" d="M94 764l2 209v102q0 70 2 105q-10 41 -10 219q0 49 166 49h59q63 0 308 -14q147 -20 261.5 -158.5t114.5 -282.5q0 -98 -59 -207q-20 -39 -57 -98q-70 -51 -85.5 -61.5t-45 -29.5t-48.5 -28q-61 -23 -100 -28h-16l-107 -4h-18q-16 0 -19 2l-6 -4l13 -15q-10 -57 -11 -100 v-17q0 -16 2 -18q-8 -2 -8 -8l4 -15q0 -4 -2 -4v-14l2 4q4 -12 4 -55v-107l2 -92v-2q-2 0 -6 4v-4q0 -8 10 -18q-8 -8 -8 -19.5t7.5 -14.5t7.5 -7l-9 -10q-14 8 -19 8t-46 -21q-8 6 -17 6l-88 -6h-137q-12 0 -16 -16q-18 18 -21.5 18t-9.5 -6l-4 2h-4q0 2 12 12.5t12 20.5 l-6 104q0 51 6 109q-12 391 -12 510zM399 569l-4 15q0 8 15 8l2 12q16 0 16 -26q35 -14 86 -14.5t87 8t57.5 16.5t48 21.5t58.5 24.5t78 52t54 82q39 39 45 147q4 49 10 70q-8 80 -39 172l-73 103q-43 43 -78 67.5t-53.5 24.5t-124 29.5t-168.5 29.5h-29q-27 -2 -33 -2t-8 6 q-6 -2 -25.5 -2t-23.5 -8q-8 0 -12 4h-35l-19 -6q-2 0 -6 4l-41 -10q-16 0 -18 -2q-4 -164 -12 -224q4 -33 4 -45l-15 -389q2 -2 2 -18q-16 -197 -16 -248t6 -106q-6 -25 -6 -48l6 -96q0 -27 -2 -28l8 -76l-2 -25l11 -37l-3 -10l19 -2q4 -4 6 -4h8q4 0 8 -6q66 -4 92.5 -4 t53.5 4q63 6 63 12v16l4 -2q10 0 11 97v26l-2 66q0 31 4 80q-2 10 -2 60t-6 69q-10 10 -11 24l4 37l-4 41zM401 1135l15 -2q10 0 14 4t23 4h22q78 0 155 -46t77 -120q0 -80 -43 -105q-35 -20 -77 -27t-51.5 -9.5t-136.5 -8.5l-14 25q0 4 8 10l-8 260q0 15 16 15zM664 979 q0 43 -25 68.5t-52.5 34t-72.5 16.5t-63 14q-35 -14 -37 -18q0 -98 20 -226q4 -2 15.5 -3t15.5 -5q76 12 174 45q25 31 25 74zM434 317l2 -10z" />
<glyph unicode="Q" horiz-adv-x="1013" d="M950 897l-2 -141q0 -45 4 -131l-10 -156q2 -14 2 -39v-33q0 -88 -41 -198l-39 -31q66 -66 66 -88q0 -8 -48 -37t-85 -45l-25 -14q-12 0 -35.5 14t-23.5 27v2q2 2 2 5t-2 5q-147 -29 -219 -29h-95q-195 0 -252 105q-6 12 -30.5 52t-28.5 66q-33 20 -33 258l4 250l-2 101 l4 215v49q0 33 -2 49q4 14 7.5 41t7.5 39q18 43 87.5 108.5t133 92t98.5 29.5t121 3h37q168 0 225 -47q109 -76 141.5 -207t32.5 -315zM874 127l-34 41q0 16 12 20q92 35 92 465q0 172 -10 326q4 45 4 87t-16.5 110.5t-40.5 74.5q-27 82 -105 131.5t-172 63.5q-16 -2 -51 -2 l-70 2q-207 0 -268 -82q-66 -55 -91.5 -89t-30.5 -78t-5 -121t-6 -113h-2l2 -31q0 -8 -4 -12q6 -45 6 -95l-4 -170l2 -116v-90q0 -104 20.5 -179t85.5 -141q98 -98 344 -98q98 0 162 32l21 13q12 0 33.5 -35t29.5 -35q16 0 90 53l9 4q6 6 26 17q-29 33 -29 47zM682 1008 l-2 -13l6 -20q20 -164 20.5 -334t-18.5 -283v-4q0 -4 -6 -10q-2 0 -4 6h-2l2 2q-14 8 -40 41t-37 47.5t-17 14.5t-20.5 -9.5t-35.5 -25.5q-20 -18 -32 -25l-17 -14q2 -2 17 -25q49 -74 67 -96l2 -6l-4 -6l-8 -6h-2q-25 -8 -64 -9l-61 11h-14q-6 0 -9 2l13 4q-6 6 -17.5 15 t-14.5 14.5t-15.5 25t-27.5 53t-42 91.5l6 -3q2 2 2 19l-28 307v4l6 4q-2 14 -2 41v45q0 172 55 258q90 51 168 51.5t127 -48.5t49 -119zM668 938l2 27q0 53 -25 120q-4 -4 -9 -4t-13 29q-6 8 -29 18.5t-27 20.5v-6l-63 16q-55 -4 -100.5 -41t-59.5 -82q-10 -174 -10 -316 t12 -278q14 -55 59.5 -111.5t88.5 -56.5q20 0 22 2q-68 68 -67 105q0 8 36 35l54 37q53 27 53 32v2q39 -8 67 -84q16 55 16.5 244t-16.5 285z" />
<glyph unicode="R" horiz-adv-x="1060" d="M1032 6l-225 -8h-35q-84 0 -84 35q0 8 4 8l8 -4l5 4q-14 25 -41 72l-43 80q-39 70 -72 157l-125 178v-98q0 -264 14 -381l-4 -2l21 -18q-10 0 -14.5 -12.5t-8.5 -14.5q-4 4 -8 4l-10 -4q-2 0 -8 6l-158 -8h-25l-55 4h-21l-26 4q-8 0 -8 -4v-2q-4 4 -4 6l-5 -8l-8 10 l-8 -6l-4 16q10 57 10 71.5t-4 39.5t-4 41l2 -2q2 0 2 -4q4 4 4 12v68l4 203l-16 714q0 152 2 264l25 29l10 -18q2 -2 18 -2h17q27 0 151 18l-4 -4q37 -6 78 -6l147 4h29q25 0 29 -2l6 6q-6 0 -23 4q150 -12 320 -113l-2 -4q68 -47 119 -196q2 2 2 10q6 -47 6 -111 q0 -272 -160 -370q-31 -14 -91.5 -30.5t-74.5 -20.5q29 -51 76 -121l82 -117q137 -197 151 -262q6 -29 49 -103v-4q4 0 5.5 -3t3.5 -3l-19 -6h-4zM236 23l73 -7q18 0 41 7h-4q18 12 47 18l10 319q0 27 -2 41l-6 -10q-2 2 -2 19v20q0 162 13 201q6 -12 6 -23v-4 q12 -4 26.5 -27.5t18.5 -27.5l-4 -4q125 -190 178 -307q20 -25 43.5 -88.5t57.5 -98.5t91.5 -35t134.5 13l-4 8h9l36 -8q8 0 13 4q-4 6 -11.5 6t-7.5 2t6 8l-36 76v6q0 16 -36 71.5t-44 78.5q-23 31 -69 112.5t-81 122.5q14 -29 23 -37q-10 14 -36 43t-40 45q-37 41 -49 88 q2 -2 6 -2q49 0 101.5 33t88.5 84h9q72 96 103.5 159.5t31.5 141.5l-2 25h-8v14q0 113 -191 213l2 2q10 -4 31 -10q45 -18 59 -33q-141 109 -194 123q-86 18 -270.5 18t-256.5 -10v-6l4 -18l11 4l6 -9l49 7q2 0 6 -1t6 -1q-6 -4 -20 -7q-31 -4 -43 -26v-13q0 -29 -13 -65 q-14 -311 -14 -399t10.5 -213t10.5 -134v-45l-4 -192q0 -78 10 -131q6 -4 6 -8t-12 -80h-2q-4 2 -9 10l7 -47q8 -14 36 -14h11q18 0 20 -2l-2 -3zM401 1159l95 -2q49 0 71 6q-10 10 -10 13q6 0 33.5 -21.5t56.5 -55.5t28 -50.5t-3 -26.5q2 -2 2 -23q0 -57 -74 -108 q-6 -2 -22.5 -2t-22.5 -12q-37 10 -68 10l-77 -2h-25q-12 0 -12 10v6q0 6 -11 6q12 20 12.5 29.5t-1.5 11.5q2 2 2 21v84q0 59 -10 67l-5 37zM418 895l94 6q31 0 33 -2q0 20 20 21q2 -2 4 -2q8 -2 13 -3q-2 -2 -9 -4q-14 -4 -14 -10q39 0 71 32t32 75q0 137 -185 137l-88 -6 l2 -47l-4 -148q0 -49 31 -49z" />
<glyph unicode="S" horiz-adv-x="993" d="M588 6l-56 -6q-10 0 -12 2q-4 -2 -24 -2h-23q-113 0 -252 35q-49 16 -104 100q-25 39 -39 55q-53 88 -64 242l13 10q80 -8 160.5 -8t131.5 8q20 -6 29.5 -40.5t20.5 -43.5q43 -61 108.5 -61t104.5 40t39 105q0 18 -13 37q-33 57 -89 84t-140 41t-119 27 q-102 39 -156.5 134t-54.5 210q0 182 94 305q72 68 181.5 109t220.5 41q172 0 272 -95q147 -106 148 -301q0 -14 -4 -59q-63 -16 -183.5 -16.5t-144.5 18.5q8 8 8 22q0 51 -41 83t-93 32t-65 -12l9 -4q-76 -10 -76 -99q0 -66 48 -92t123 -35.5t99 -23.5q147 -88 189 -127 q111 -104 110 -297q0 -127 -52 -226.5t-153 -146.5q6 8 25.5 22.5t28.5 26.5h-23q-33 -20 -47 -26l-43 -19q-43 -20 -84 -49h-8zM836 999l41 -8h2q2 2 6 2l20 11v40q0 154 -139 242q-90 55 -163 75.5t-75 20.5h-22q-66 0 -132.5 -18t-97.5 -49q-18 0 -37.5 -17.5 t-22.5 -17.5t-3 4t8 9t20.5 12.5t18.5 17.5q-29 -6 -63.5 -47t-34.5 -55q0 16 37 36l4 -12q-39 -37 -56.5 -77t-29 -75.5t-20.5 -62t-9 -84.5q0 -129 123 -231q0 -23 29 -35q33 -10 88 -22.5t93 -22.5t83 -29q94 -35 141 -114q12 -25 12 -52q0 -63 -54 -114.5t-126 -51.5 q-45 0 -64.5 11.5t-28.5 17.5t-20.5 20.5t-15.5 20.5q-25 37 -29 45q-23 8 -63 8l-156 -12h-18q-14 0 -16 2q20 -143 36 -143q25 -72 107 -130.5t151 -58.5q14 0 23 8q6 -6 20 -6h11l84 -14q195 0 360 219q41 92 41 172t-17.5 130t-38 80t-68.5 60.5t-74.5 42t-92.5 39.5 l-198 84q-59 29 -60 131q0 68 32 116t105.5 48t124 -50t68.5 -120q29 -6 63 -6z" />
<glyph unicode="T" horiz-adv-x="907" d="M887 1139q-18 -10 -18.5 -21.5t-2.5 -11.5l-18 2q-4 -4 -24.5 -2t-32.5 2l-68 -4q-23 0 -25 2l-77 -4q-8 -18 -9 -74l2 -55l-4 -223q0 -74 7.5 -94.5t7.5 -110.5l-9 -260q0 -74 13 -267l-23 -12l-4 4q-139 -8 -305 -8l-2 4l8 27v4q2 18 2 35v18q-4 31 -8 39l-4 -12v-31 q0 -20 -8 -29v9q10 117 10 210l-2 154q4 25 6 27q-2 35 -2 49l2 41v6q10 27 10 49.5t-4 26.5l-4 20l4 78q0 20 -4 49l8 -4q2 2 2 14.5t-6 18.5q-2 18 -2 39v10h-4l2 14l-8 179l-2 30l12 29q-12 0 -43 8q-18 -8 -55 -8l-68 2l-63 -2q-31 0 -43 4q-4 23 -4 94v56q0 43 -2 61 l-5 49q0 27 11 57l-8 15h2l51 -4q51 -4 82.5 -4t64.5 4l78 -2l61 -2q111 0 179 8l8 -6q160 -10 299 -11q27 0 45 -14l-2 -74l-2 2l-4 -6zM670 1137l188 10l6 211q0 47 -20 47h-31q-16 0 -31 -8q-6 0 -8 2q2 2 2 12v2q-16 -16 -25.5 -16t-15.5 8q-2 -8 -10 -8t-10 1t-6 1l8 4 h-15v-6l-4 -2h-4l2 2q-14 6 -159.5 6t-262.5 -8q-8 2 -8 6l-108 6l-6 -8q-20 4 -23 4l-66 -6q-18 0 -20 2v-6l-2 -39q0 -29 8 -64l4 -24v-54q0 -45 4 -71q41 -12 107 -13l149 5q27 -8 27 -11q-2 -6 -6 -47q6 -147 6 -301l-10 -715q0 -14 245 -30l11 106v232q0 33 2 47 l-10 618l-5 21l2 30q0 4 -2 15q6 8 13 20q8 23 14 23v2l53 -6h17z" />
<glyph unicode="U" horiz-adv-x="1034" d="M754 1389l170 8q8 0 11 -8.5t7 -8.5l6 2q8 -174 8 -348l-2 -276q0 -2 -5 -15.5t-5 -50.5t6 -39q-6 -51 -12 -153q-12 -215 -59 -322q-16 -8 -23.5 -26.5t-17.5 -24.5q0 -2 4 -2q4 4 8 4t4 -11.5t-18 -27.5q-23 -25 -109 -67q-102 -29 -190 -29t-143.5 7t-121 34.5 t-105.5 77t-67.5 142.5t-27.5 222l4 232v41q0 27 -2 41q8 96 8 217l-6 301v24l4 53l-2 13v4l69 -8l56 8l78 -6q27 0 41 8q8 -6 22 -6t23 -4q-8 -98 -8.5 -311.5t16.5 -602.5q0 -70 37 -134t104 -64q23 0 53 26l2 -8q31 4 47 51q10 23 13 27l8 29q6 117 6 215l-2 241 q0 201 10 297l-4 215q0 8 6 8h13q6 0 10 11q35 -6 76 -6zM104 631l-2 -45l2 -45q-4 -29 -4 -31v-35q35 -225 93 -325q-2 -2 -7 -3h-4q14 -41 59.5 -75.5t70 -34.5t26.5 2q80 -31 168 -31h29q18 0 24 10l105 5l57 20q23 8 53 27v-4q33 8 47 49l-2 2q74 96 87.5 188 t19.5 200.5t9 273.5t5 214l2 215q0 106 -18 170q-70 4 -119 4t-64 -2l-14 2q-18 0 -41 -16q4 -29 4 -47l-20 -420v-37q0 -20 2 -35v-34l6 -224q0 -172 -64 -276l-6 6q-35 -37 -70.5 -36t-56.5 7q-39 14 -39 19q2 0 4.5 -1t4.5 1q-53 49 -61.5 62.5t-14.5 38t-25 24.5l4 6 v280l-18 7q-12 100 -12 223l12 98v19q-4 12 -2 33.5t2 39.5v58q0 111 -8 198h-9q-45 -10 -51 -10l-53 6q-14 0 -16 -2q-2 2 -17.5 5t-17.5 9q-8 -6 -21 -6l-41 6v-22l7 -205q0 -45 -9 -86l4 -72l7 -51q4 -51 4 -95t-9.5 -83t-9.5 -70z" />
<glyph unicode="V" horiz-adv-x="901" d="M694 1407l49 2q39 0 46.5 -4t17.5 -4l67 12q23 0 37 -24q-31 -76 -69 -310q-8 -14 -8 -35q-63 -344 -195 -778q-16 -45 -35.5 -136t-34.5 -134l6 -12l-26 -11l-37 2h-33l-114 -2q-53 0 -89 9l-14 14q-43 117 -73.5 293t-91 597t-60.5 513h4q8 0 11 13t14 13l147 -6 l115 -6q0 -348 90 -799q8 -2 10 -6q27 59 61.5 230.5t45.5 205.5q0 25 6 35l-2 2q4 8 10 36t14 40q2 35 20.5 120t20.5 124q10 16 19 16q28 -10 71 -10zM492 18l34 11q6 0 11 -4q6 59 32.5 139t39 120t38 139t39.5 144h2q10 78 46 201t95 430l35 182q-10 6 -37 6h-34 q-20 0 -23 3h-43q-49 0 -64.5 -14.5t-15.5 -43.5l2 -28q0 -27 -8 -41q-29 -125 -101.5 -408t-99.5 -403l-10 -2q-2 8 -13 16t-10 12t1 8t2 7q-10 33 -27.5 109.5t-38 138t-27 266t-24.5 278.5q-6 8 -6 39q0 74 -29 74h-4l-90 4q-49 0 -76 -17q4 -20 31.5 -230t35 -246 t7.5 -68v-17q25 -113 67.5 -371.5t77.5 -402.5l12 -20q118 -1 173 -11z" />
<glyph unicode="W" horiz-adv-x="952" d="M688 1419l141 2h37q27 0 41 -2q6 -6 6 -14l-8 -33q0 -31 -16 -235l-6 -11l-62 -637q-25 -174 -41 -479q-2 -6 -10 -6l-25 4h-135l-8 8l-4 -2q-68 180 -104 238q-23 -35 -55.5 -110.5t-53.5 -110.5q0 -27 -35 -27q-2 2 -28.5 2t-79.5 -6q-29 2 -41 14q-6 100 -38 283.5 t-40 269.5l-51 473q-16 203 -27 359l14 20q20 4 29 4h113q29 -4 35 -4l79 6l25 -2l6 -6q8 -82 14 -227q16 -315 54 -512q45 158 67 262q6 0 56 -145l22 -56q14 -35 23 -63q12 129 24 373.5t23 363.5l12 6h47zM766 246l-6 127q0 12 14 26l-2 54q6 51 40 304t46 397t12 181v25 q0 23 -2 26q-25 -4 -86 -8t-92 -10q-4 -23 -10 -88q-14 -154 -31 -160q-2 2 -2 16.5t4 40t4 37.5q-8 -18 -10 -46.5t-6 -53t-7 -35t-5 -18.5t-2 -12.5t2 -16.5t2 -20q4 4 12 8l-16 -100q0 -12 2 -35q-2 2 -4 2q10 -6 10 -34t-6 -32t-6 -16t10 -43q-8 -14 -8 -41l2 -39 q0 -23 -9.5 -75t-23.5 -68q-25 14 -41 63t-32.5 122t-31.5 107q-14 -41 -32.5 -144t-48.5 -146q-23 33 -37.5 129t-34 340.5t-33.5 357.5q-43 0 -72 16v5l-30 -3q-14 -8 -27 -8q-41 6 -47 6t-27 -4v-6l-2 -24q0 -10 10.5 -78t30 -312.5t29.5 -341.5v-51q2 -2 2 -8t-4 -6 l-2 -21q0 -2 2 -5t4 -7q6 -12 6 -63l21 -113q4 -55 28.5 -157.5t30.5 -139.5l86 2l18 -10q23 45 62 159.5t59 157.5q33 0 70 -131q16 -63 16 -65q10 -12 18.5 -39t19.5 -44.5t34 -17.5l20 2l66 -10q23 0 33 68t10 127z" />
<glyph unicode="X" horiz-adv-x="892" d="M137 12l-63 -2q-41 0 -60 10q2 27 18.5 77t20.5 77l2 -2l60 143q14 45 12 56q-2 31 37 169t53 175l-209 686q4 16 10 22q-2 2 -10 2q4 8 18.5 15.5t16.5 9.5h74q-4 -8 -15.5 -8t-11.5 -10q31 -6 63.5 -6.5t32.5 4.5l-43 10v2q2 2 25 2l70 -6q14 0 16 2q2 -8 12 -8l17 2 q8 0 10 -2l4 10q10 0 14 -11.5t11.5 -11.5t9.5 2q27 -59 61.5 -154.5t55 -146.5t32.5 -51q6 0 12.5 24.5t12.5 36.5l-2 -16q80 332 82 346h22l74 -6q14 0 16 2q-4 -6 -19 -6t-22 -2q29 -4 31 -4h64q2 0 30 4l4 8q14 8 47 11t46 8l2 -11l-4 -6q12 -6 18 -6t9 1t7 1 q-135 -408 -168.5 -538t-48.5 -218l193 -698l-17 6l-165 -6q-59 0 -95 8l-12 17q-14 47 -37 133q-53 203 -90 282h-6q-35 -63 -74 -192t-67 -187q2 0 2 -8t-2 -10l-2 2q0 -23 -9.5 -27t-29 -5t-35.5 -11zM709 29l69 4h2l37 6q-4 29 -4 44t6 32q-4 137 -80 229 q-6 29 -31.5 117t-25.5 94v14q0 20 4 25l2 -2l-18 100q0 -18 -6 -28l-13 49q4 10 12.5 45t20.5 49q-2 2 -2 17.5t15.5 50t15.5 53t-2 20.5q2 23 19.5 65t21.5 64q29 59 71 213v-37l17 72l-9 2q2 8 5 25q4 41 22 49q-8 8 -29 8h-30q-27 -10 -45 -10l-78 8q-18 0 -37 -6 q-47 -96 -111.5 -308t-72.5 -239l-4 -2q-2 0 -11 8q-68 313 -141 535q-43 14 -95 14t-93 -1t-60 -1l2 -18q23 -61 72 -186.5t63.5 -172.5t40.5 -153q12 -20 13 -48v-10l-11 4q0 -10 2.5 -19t2.5 -11l6 6q6 -4 6 -8l-6 -19q8 -16 8 -55t-34 -157t-81 -274.5t-67 -252.5 q18 -2 103 -2t103 2q8 43 47 124t48.5 115.5t43 124.5t44.5 142q14 -4 21 -24.5t11 -25.5q43 -197 168 -456q34 -4 52 -4zM778 33l-2 4l4 -4h-2z" />
<glyph unicode="Y" horiz-adv-x="890" d="M25 8q0 2 2 6t-4 11q16 10 45.5 96t40.5 108l-5 4q16 10 21.5 33t13.5 47.5t54.5 131t64.5 173.5q33 61 37 82q-27 82 -33 95l4 18q-31 61 -87 215t-99 225q-8 20 -21.5 65.5t-23.5 67.5q6 6 6 14.5t4 10.5h33q25 0 43 -4q72 6 145 6h23q59 0 59 -14l-6 -2 q8 -35 29.5 -94.5t29.5 -83.5l7 -9q-2 -2 -2 -4t5 -4t5 -17.5t8 -40t23.5 -56t19.5 -46.5q23 37 55.5 117t46 104.5t25.5 47.5q27 51 27 78q2 8 16 14t16 12q4 -6 11 -10q170 4 221 10q2 -2 9 -5t7 -7q4 2 5 8t5 6h4l7 -10q-78 -233 -149 -387t-107.5 -230.5t-73.5 -150.5 l-43 -86q-123 -260 -197 -477q-12 -12 -18 -39t-12 -35q-14 8 -15 8zM205 45l80 12h12q29 51 69 150.5t50 120.5l235 522q154 332 217 530l-65 4q-14 -14 -36 -14t-24 2q-74 -35 -94 -41l-63 -98q-8 -23 -26.5 -60.5t-24.5 -52.5q0 -61 -43 -123l-7 2q-8 0 -13 -15t-11 -17 q2 2 2 15t-12 28l-9 -9q-33 82 -43 148v2q-6 6 -16 49h-6q-10 16 -10 22.5t2 8.5l2 -4q-20 23 -21 30l2 5q-12 0 -29.5 49t-23.5 59h-154l-14 4q-8 0 -21.5 -6t-21.5 -6q43 -172 127 -340q37 -43 58.5 -107.5t39 -122t25.5 -77.5q-86 -176 -131 -324l2 -20q0 -55 -45 -142 q-8 0 -12.5 -21.5t-8.5 -27.5l9 15q0 -27 -13 -64l-16 -49q-2 -8 -12.5 -16.5t-10.5 -14.5q2 -2 19 -2l49 4q19 -8 37 -8zM309 727l-2 4q0 -4 2 -4z" />
<glyph unicode="Z" horiz-adv-x="970" d="M162 1085l-99 19l-10 -4q-12 0 -12 105.5t10 211.5l84 2q57 0 117 -6h-6q33 -12 48 -12t40 6q57 -6 119 -6l381 14h51q6 -2 9 -10t7 -10q-8 -55 -8 -117l6 -199l-2 -26q-31 -49 -82 -127q-111 -164 -150.5 -234.5t-94 -136.5t-74.5 -96q0 8 -2 10q-55 -55 -93 -125v-20 h13q2 0 6 4l37 -2q4 0 6 -1t4 -1q10 -4 82 -9l18 4l-2 3h17v-7q152 -16 174 -20l20 2q4 2 12 4l-2 6l-18 2h16l31 2q49 0 78 -24l4 22q14 -27 14 -71.5t-8 -71.5q8 -14 8 -47l-2 -49q8 -8 9.5 -30t7.5 -30q-4 -6 -17 -6l-14 2q-8 -8 -188 -8h-519q-51 0 -153 4q-6 23 -6 80 l4 84q0 8 -4 8l12 141q0 6 -6 7q59 119 166.5 267t138.5 195q35 45 103.5 156t115.5 168q-63 -7 -397 -23zM844 1139q18 92 18 107.5t-2 17.5q0 111 19 120q-2 0 -2 7l-13 -2q-55 6 -90 6l-94 -11q-4 2 -25 2l-174 -10l-4 6q-86 -10 -143.5 -10t-91.5 8l-144 -12 q4 -160 11 -176q-8 0 -11.5 -13.5t-11.5 -13.5q41 -20 54.5 -20t19.5 10q25 -6 69 -6l60 2q29 0 57 -6v-4q-82 -4 -84 -4q29 -4 33 -4h78q10 0 39 4q-2 2 -2 6t8 3t24 -1l2 -8l70 10q6 0 18 -4h54q29 0 45 -6q-4 -4 -8 -4h-11q-2 0 -13 -48.5t-17 -56.5l-43 -53 q-14 -20 -15 -27l-10 -8v-4q-6 -18 -35 -55q-39 -53 -104 -170l-6 2q-14 -25 -46 -62t-42 -65q-20 -14 -47 -52t-48 -53l-2 2l-6 -6l4 2q-10 -20 -9 -24t1 -6q-49 -80 -51 -93q-6 -18 -25 -26q-2 0 -2 10l-18 -25h2q12 0 12 -10q-6 -43 -16 -250q18 2 57 2h57 q293 -12 396.5 -16t142.5 -4l-10 -6q51 -10 84 -10.5t43 16t9 46.5t5 42l-6 92q0 25 6 49q-305 6 -534 21q-8 6 -8.5 15t24.5 49t129 188.5t154 232.5q16 23 107 143.5t122 184.5l10 76q-6 -33 -18 -52q-2 3 -2 15z" />
<glyph unicode="[" horiz-adv-x="657" d="M590 1436l6 6q8 -8 8 -31l-4 -53v-94h-4v-33q6 -2 6 -10q-4 0 -8 -11.5t-6 -15.5q-29 4 -31 4l-41 -2h-45q-6 -2 -16 -4h-93q-2 -2 -2 -12v-43l-8 -109l2 -104l-2 -111q0 -39 6.5 -115.5t6.5 -149.5t-3 -75l3 -2h-3q2 -2 3 -6l-3 -72h7q0 -8 -2 -10l2 -43q0 -4 -2 -4 l4 -45q12 0 14 -2l51 -10q92 -6 96 -7l23 2l25 -4q2 2 8 2l6 -18v-66l-2 -10l4 -22v-23q-4 -20 -4 -27.5t2 -15.5l4 -45q0 -2 2 -4h-2q0 -8 2 -10l-4 -23l-2 2l-2 -8q-2 -2 -11.5 -2t-11.5 2l-8 -2v-2l-26 4v-2q-23 2 -306 2l-24 2q-20 0 -25 -2h-6l-27 -2l-8 2 q-25 -2 -39 -2v2q-4 -2 -9 -2t-7 -2l-2 22v91h-2q2 0 2 4v28q4 29 4 31l-8 90l14 326l-2 479v184q0 154 12 154q4 29 13 31v4q10 0 12 2v2l106 -6q2 -2 18.5 -2t41.5 4l31 -6q4 0 6 2l67 -6l21 4l10 -2l33 -2v2q23 -2 30 -2t9 2l4 -2l67 6q17 0 19 -2zM123 936l-4 -21l2 -24 q0 -10 -2 -12l-4 -74q-2 -2 -2 -23l2 -45v-94l-2 -31q0 -14 2 -16l4 -82l-2 -12l2 -51l-2 -58q0 -16 2 -18l-2 -19q2 0 2 -4l-2 -4q2 0 2 -4l-2 -86h2l2 -43l-4 -33q4 -45 4 -96v-41q4 0 5 -4t3 -4l27 -2q4 -4 20 -4l62 4h10l31 -4l194 12l12 -2q6 0 9 2q0 -2 4 -2v2h16 q39 0 45 9t6 20v145q0 33 -22 33q-10 0 -13 2l-32 4q-2 0 -4 -2l-64 2l-92 -4v4q-2 -2 -12 -2l-2 14l-13 2l-2 29l2 12v33q0 20 2 33l-2 20l2 60l-2 51q0 2 4 31v18l2 41l5 49l-3 29q0 20 5 65l4 72q2 16 2 33l-2 8q2 14 2 20.5t-2 8.5l4 47q0 16 2 18v33l-2 6l-2 -8l-4 25 l2 20l-4 14q0 6 6 68l-2 2h2l-4 61h2l-2 19l2 10q10 18 18 19q0 -6 25 -11l57 -2l25 4h51v4l65 2q-2 2 -2 19v41q0 51 2 133q-59 0 -82 6l-155 2l-21 2l-12 2l-12 -2h-142q-10 0 -10 -19.5t2 -21.5h2l-2 -14l-2 -23l2 -10l-4 -14q0 -2 2 -4l-2 -33q0 -2 -2 -4v-37h-2 q-8 -80 -8 -119v-51l2 -35v-12l2 -12v-2l-2 -37q-2 -2 -2 -13z" />
<glyph unicode="\" horiz-adv-x="843" d="M326 1309l2 -13l10 -28h2q0 -10 13.5 -32t28.5 -71t208 -614l137 -406h2v-10l12 -37q4 -16 7 -18l4 -10l4 -7q6 -37 8 -38h2q0 -8 -2 -11h-12q0 -8 -2 -10q-41 0 -74 6l-27 -2l-24 4q-8 0 -11 -2v-2q-2 2 -6 2l-59 -2q-37 0 -51 -6q-2 12 -6 16v9q-2 0 -5 2l2 6h-2 q0 20 -2 22l-26 82l-4 17q0 12 -24.5 83.5t-31.5 82.5q-4 10 -31.5 99t-42 126t-39 116.5t-46.5 120.5l4 2l-4 5q0 31 -21.5 80t-25.5 59q-2 0 -5 -2v4q0 20 -14 35q0 4 2 4l-4 12q-18 14 -26.5 53t-18.5 59.5t-35.5 95.5t-42.5 114q-39 100 -39 121.5t4 21.5q0 -4 2 -5 t2 -3l19 6l29 -2l2 -2q2 2 32 2l70 -2v4h4q2 -2 2 -4h29v2l43 2v-2h10q8 0 15.5 -7t7.5 -12l4 -10l8 -24l12 -25zM430 336l2 -14l4 -11l4 -4q0 -8 2 -10l9 -16l24 -80l4 -17q12 -37 17 -65q6 -8 6 -21l20 -47l8 -8l5 -8q8 -8 55 -8h63q2 0 39 4l23 -4l4 2q-6 31 -29 90 q0 12 -2 14l-33 100l-18 52l-4 12l-4 6q-2 8 -4 21q0 2 -11 32h-2q0 8 -6 15q0 6 -18 61h-2q0 18 -17 68h-2q-2 4 -2 12t-2 8l-4 2l-29 92l-4 13l-2 12l-28 72l-2 4q0 10 -7 16q0 4 -2 6h-2q-4 6 -6 27l-4 4l-4 25h-2q-2 2 -2 8h-2q-12 37 -12 41l-19 49q-6 10 -6 14l-6 21 l-6 8l-2 4l-6 25q0 2 -3 4l-16 43q-2 10 -6 14l-14 51q-4 4 -5 12l-12 37l-12 25q-10 20 -10 35l-4 10l-5 14l-8 19l-12 35l-4 14h-2q-2 0 -2 4l-2 16l-19 52l-4 4l-20 69l-84 4l-33 -2q-12 4 -23 4l-18 -2v2q-6 0 -19.5 1.5t-21.5 1.5l6 -29l6 -23l4 -2l33 -90l2 -12l4 -4 q0 -12 7 -19l10 -26l6 -29l6 -16q0 -12 8 -27h2q2 -2 2 -9t7 -14q0 -12 2 -14l16 -49q14 -35 14 -39l6 -8q0 -2 2.5 -7t4.5 -12.5t4 -13.5l8 -24q4 -14 6 -17l2 -4q0 -6 10 -27h2q0 -10 2 -12l23 -61l4 -2q0 -25 8 -25l17 -39q0 -18 4 -18q12 -12 28 -76l4 -4l2 -12l3 -4 q6 0 6 -21l24 -68l4 -12h2q0 -8 2 -10h2q0 -12 3 -14l4 -9l10 -30l16 -64l8 -14l-2 -4q4 0 5 -2l12 -47l4 -13l4 -14z" />
<glyph unicode="]" horiz-adv-x="657" d="M57 1442l6 -6q2 2 19 2l68 -6l4 2q2 -2 9 -2t30 2v-2l32 2l11 2l20 -4l68 6q2 -2 6 -2l30 6q25 -4 41.5 -4t18.5 2l106 6v-2q2 -2 13 -2v-4q10 0 11 -5.5t1 -25.5q12 0 12 -154v-184l-2 -479l14 -326l-8 -90q0 -2 4 -31v-28q0 -4 2 -4h-2v-91q0 -4 -1 -12t-1 -10 q-8 4 -16 4v-2q-14 0 -39 2l-8 -2l-27 2h-6q-4 2 -24 2l-25 -2q-283 0 -305 -2v2l-27 -4v2l-8 2q-2 -2 -11.5 -2t-11.5 2l-2 8l-2 -2l-4 23q2 2 2 10h-2q2 2 2 4l4 45q2 8 2 15.5t-4 27.5v23l4 22l-2 10v66l7 18q6 0 8 -2l24 4l23 -2q66 0 106 9l41 8q2 2 15 2l4 45 q-2 0 -2 4l2 43q-2 2 -2 10h6l-2 72q0 4 2 6h-2l2 2q-2 2 -2 75t6 149.5t6 115.5l-2 111l2 104l-8 109v43q0 10 -2 12h-92l-17 4h-45l-41 2q-2 0 -30 -4l-5 10q-6 16 -10 17q0 8 6 10v33h-4v94l-4 53q0 23 8 31zM354 1419l-12 -2l-20 -2l-156 -2q-23 -6 -82 -6q2 -82 2 -133 v-41q0 -16 -2 -19l66 -2v-4h51l24 -4l58 2q25 4 24 11q14 0 21 -29l-2 -19h2l-4 -61h2l-2 -2q6 -61 6 -68l-4 -14l2 -20l-4 -25l-2 8l-3 -6v-33q2 -2 3 -18l4 -47q-2 -2 -2 -8.5t2 -20.5l-2 -8q0 -16 2 -33l4 -72q2 -16 2 -47v-47l4 -49l2 -41v-18q4 -29 4 -31l-2 -51v-113 q0 -20 4 -45l-2 -29l-12 -2l-2 -14q-10 0 -13 2v-4l-92 4l-63 -2q-2 2 -4 2l-33 -4q-2 -2 -12 -2q-23 0 -23 -33v-145q0 -20 12.5 -23.5t19.5 -4.5t19 -1h17v-2q4 0 4 2q2 -2 8 -2l12 2l195 -12l31 4h10l61 -4q16 0 21 4l26 2q4 2 5 5t3 3v41q0 51 5 96l-5 33l3 43h2l-2 86 q0 4 2 4l-2 4q0 4 2 4l-2 19q2 2 2 18l-2 58l2 51l-2 12l4 82q2 2 2 16l-2 31v94l2 45q0 20 -2 23l-4 74q-2 2 -3 12l3 24q-4 4 -4.5 20.5t0.5 24t-1 9.5l-2 37v2l4 51v31q0 68 -8 147h-2v37q-2 2 -2 4l-2 33q2 2 2 4l-4 14l2 10l-2 23l-2 14h2q2 2 2 21.5t-10 19.5h-143 q-5 0 -11 2z" />
<glyph unicode="^" horiz-adv-x="901" d="M315 1300q0 10 9.5 12.5t11.5 4.5l16 16q12 29 25 31l10 18l33 41h22l17 -16l28 -41q16 -12 17 -23l28 -30h5l12 -13l20 -10l-2 -2l15 -16l12 -8l2 -4l29 -29q37 -47 59 -70l29 -31q18 -16 67 -59l31 -33l29 -24l-29 -4l-4 -11l2 -2l-16 -12l-9 2q-14 0 -39.5 -9 t-27.5 -9h-6l-9 6l-16 2l-108 -4q-20 0 -23 2q-2 -2 -10 -2l-19 2l-18 -4h-6q-2 2 -11.5 9t-17.5 15q-23 23 -22 31l-21 14l-22 -16q-27 -45 -35 -48t-11 -5h-6q-33 0 -47 6l-28 -4l-103 4l-20 -2l-6 -6h-7q-4 0 -41 12l-24 6l-4 -2q-8 0 -15.5 7t-7.5 12l-4 6l-26 4l59 57 q96 90 156 160l30 33q6 6 13 8v4l14 14l10 4q0 4 10 6zM500 1032q0 -8 20 -22h17q12 0 14 2h4q14 -2 29 -2h20q2 2 29 2h94v-4l47 16l-16 16q-70 63 -160 166l-8 13q-2 0 -4 2l-37 32v-4l-39 35q-4 0 -5 3t-5 7q-8 4 -19 19l-51 49l-4 -6l-29 -35q-14 -14 -39 -31l-14 -14 l2 -2l-33 -25v2l-16 -10l-16 -18h-5q-20 -33 -170 -183l-18 -16q4 0 47 -16v4h94q27 0 29 -2h18q16 0 33 2h4q2 -2 13 -2h18q10 8 23 28q39 35 43 37l22 21l19 -21q2 0 26 -14z" />
<glyph unicode="_" horiz-adv-x="1331" d="M1257 -156q4 -25 9 -32q0 -49 -2 -54l2 -57q-10 -10 -11 -12h-6q-4 4 -8 4t-10 2l-4 -2q-84 6 -88 6l-9 -6q-4 4 -10 2l-6 2h-29l-6 -4q0 -2 -6 -2l-20 4q-2 -2 -17 -2h-49q-4 -4 -6 -4l-4 4l-31 2l-12 -2l-100 2q-10 2 -23 2q-27 -4 -33 2l-20 -2q-8 2 -13 2v-2l-67 4 h-66q-53 0 -88 -2l-104 -6h-21q-16 -2 -28 -2l-17 2h-131l-20 2l-4 -2l-82 -6l-6 2l-5 12q-2 2 -2 8h5l-3 49q2 14 3 29v12q0 18 -9 51q2 4 2 25l-2 27q-2 0 -2 8h2q6 6 6 24q8 -8 9 -14q4 0 6 2l4 -4h51l27 4q29 4 69 4l160 -4l35 -4h160l301 8l159 -4l27 -2q2 -2 35 -2 l20 -2q53 0 58 2q2 -2 24 -2l4 -27q0 -8 2 -10v-35zM1239 -195l6 74l-12 15h-8q-8 -2 -32 -2.5t-26 2.5h-34q-2 0 -23 4h-49h-25l-108 4l-189 -2q-12 0 -14 2h-8l-17 -2q-2 0 -86 1t-108 -5l-14 2q-4 -4 -20.5 -4t-16.5 4l-191 2l-100 -6q-23 0 -31 8v-15q0 -18 -8 -34 q6 -14 6 -80l-6 -56l18 -4l4 2l54 2q2 -2 12 -2l215 4q2 0 5 1t11 -1l232 7q4 0 8 -1t6 -1l-12 -7l35 7h30l68 -5h135q8 0 20.5 -2t16.5 -2l-2 2h55q14 0 17 2l14 -4q6 0 12 6l29 -2q10 2 13 1t11.5 0t18.5 1l90 -4q2 0 4 -2l2 4q-8 18 -8 86zM518 -276h6h-6z" />
<glyph unicode="`" horiz-adv-x="522" d="M63 1325q14 10 21 10h6q14 10 41 37v10q0 16 12 19l41 51l17 -20q6 0 28 -19l-4 -4q27 -23 37 -35l19 -18h4l10 -10l16 -9l-2 -4l51 -47q45 -59 60.5 -74.5t48.5 -44t78 -69.5l-23 -2q0 -2 -3 -6.5t-1 -6.5l-14 -12l-8 4q-49 -16 -58 -16l-8 -2l-4 6l-14 2l-99 -4 q-6 2 -16 4q-20 -4 -47 -4q-29 33 -49.5 53.5t-35.5 36.5t-28 27l-80 75q-2 -2 -6 -2t-8 -1t-10 10l-8 10l12 10l-6 14l-2 23l20 -6q2 6 12 10v4zM272 1094q20 0 23 2h119l41 -2q8 4 34 12q-94 86 -116.5 114.5t-34.5 45.5l-45 41v-4l-55 53q-37 31 -43 41 q-18 -29 -51 -57.5t-50 -45.5l-18 -16q25 -20 76 -68l81 -73l27 -31l8 -12h4z" />
<glyph unicode="a" d="M879 164q8 -70 8 -131q0 -23 -23 -33q-74 8 -160 8t-116 -8q-14 18 -14.5 27.5t4 28t4.5 26.5q-25 -10 -62 -33q-76 -51 -143 -51q-172 0 -252 142.5t-80 361.5q0 147 29 252l28 80q186 180 271 180l22 6q154 -4 197 -55q2 2 2 18v23q0 6 4 26q86 -18 264 -18q2 0 4 5 t6 5q14 0 14.5 -61.5t-1.5 -113.5t-6.5 -109.5t-6.5 -116.5v-41l-2 -111v-92q0 -123 9 -213v-2zM864 618l-2 160l8 176q0 31 -10 35q-4 0 -4 -9t-10 -9t-39 12q-27 -20 -70 -20t-104 22q-2 -6 -6 -22q-8 -31 -21 -43q-10 6 -40.5 31.5t-45.5 25.5l2 6q0 4 -21.5 9t-39.5 5 q-127 0 -151.5 -20.5t-71.5 -54.5q-96 -72 -121 -121q-35 -61 -35 -198.5t6 -202t25 -142.5q39 -158 172 -195q6 0 24.5 -7t47 -7t84 13.5t63.5 23.5q4 0 4 -5t2 -5q86 63 90 65q2 -2 2 -20l-6 -68q0 -25 33 -24l174 12q31 0 61 -6q-4 229 -4 330zM573 356l-12 -51h2v14 q-8 -4 -35 -20q-47 -27 -92 -27t-109.5 68t-64.5 150.5t30 163.5t74 99.5t187 22.5q61 -29 61 -147.5t-41 -272.5zM582 569v23q0 143 -121 143q-72 0 -112 -45t-40 -123q0 -133 35 -200.5t131 -71.5q88 86 105 250q2 4 2 24z" />
<glyph unicode="b" horiz-adv-x="950" d="M500 1036l12 -2q14 2 97 2t125 -12t71 -57q49 -74 76 -273q14 -90 14 -125q0 -182 -34 -309t-126 -197q-33 -27 -113.5 -53t-107.5 -26t-59 16q-41 20 -111 78q-4 -4 -4 -19l8 -57q-12 -10 -29.5 -10t-26.5 4t-9 2v-4q0 -2 1 -4t-18 -6q-43 -10 -118.5 -10.5t-96.5 32.5 l-2 434l23 666q0 141 10 305v4q0 4 -6 6t-6 11l28 28q6 0 7 -8t6 -8h14l168 -6q25 0 26 2q25 -35 25 -114t8 -153.5t8 -113.5l-4 4v-4l2 -29q0 -4 -4 -24q2 -2 19 -2zM827 692l4 90q0 78 -27.5 138.5t-94.5 60.5l-88 -4l-121 8q-47 0 -154 -41q-14 80 -16 238.5t-13 236.5 q-8 6 -22 6h-25l2 -6q-63 -20 -100 -20l-55 6q-2 0 -2 -9.5t-4 -9.5v-10q-14 -37 -15 -61q4 -4 6 -4q-12 -92 -12 -111v-20l4 -25q12 -74 12 -111.5t-6 -37.5q-4 4 -8 4q-16 0 -22 -607l2 3q4 0 4 -31l-10 -209q0 -47 12 -88q0 6 4 18l-2 25q4 12 4 18q0 -94 16 -116 q88 0 193 6q10 -20 18 -21q16 0 16.5 51.5t-14.5 71.5q8 8 25 16q10 -8 12 -30q25 -12 64 -39q90 -66 125 -66q59 0 125.5 54.5t118 162t57.5 146.5v16l-13 291v10zM340 764l-4 -19q0 -10 11 -0.5t13 12.5t7.5 12t7.5 11q23 -2 85 -2t97 -10t57 -41q29 -47 39.5 -89 t10.5 -150.5t-56.5 -193.5t-142.5 -85t-117 79t-31 255l7 96q0 31 -11 68q6 6 6 22t2.5 27.5t14.5 11.5q4 0 4 -4zM635 549q0 96 -42 150.5t-106.5 54.5t-89.5 -15q-49 -29 -49 -245q0 -137 37 -185q14 -20 43 -40.5t46.5 -20.5t27.5 8t26.5 26.5t20.5 22.5q86 99 86 244z " />
<glyph unicode="c" horiz-adv-x="905" d="M649 418l90 -6q25 0 49 6l5 -2q4 0 5 9t21.5 9t32.5 -11t12 -94t-25.5 -192.5t-84.5 -138.5q-49 -27 -142 -27l-153 9l-82 -5q-35 0 -82 21q-72 31 -105 63q-84 59 -109.5 195.5t-25.5 341.5q0 344 82 393q8 4 26.5 7t32 7.5t43 21.5t59.5 25.5t77 8.5t108 -17 q23 -4 84.5 -4t87.5 -8q82 -18 114 -55t48.5 -94.5t30.5 -98.5q29 -78 29 -124t-32 -58t-97 -12l-150 14l-27 -2q-45 127 -125 127q-47 0 -82.5 -46t-35.5 -95l6 -115l-4 -43q0 -63 60.5 -97t117.5 -34t84 43q0 4 -1 21.5t18.5 37t39.5 19.5zM807 260l16 -6v2q2 2 2 4l2 82 v23q-82 0 -178 12q-2 -6 -4 -19.5t-6 -21.5q-20 -33 -90 -63.5t-118 -30.5t-79 37q-39 49 -39 114v6l-12 133q0 111 48 188t132 77q49 0 101 -121l20 -47q39 16 68 16l84 -4q10 0 80 4q0 82 -2.5 115t-25 86t-69.5 100q-4 4 -18 19.5t-23 21.5q-23 25 -54.5 33t-119.5 8 t-141 -6q-137 -14 -174 -35.5t-60.5 -52.5t-37 -81t-20.5 -83t-10 -103.5t-3 -88.5v-89q0 -487 352 -487q188 0 284.5 43t96.5 160q0 25 -6 55h4z" />
<glyph unicode="d" horiz-adv-x="948" d="M799 6l-17 2h-28q0 -8 -54.5 -10t-62.5 -4t-14.5 -4t-10.5 -3t-7 -2t-5 -1h-2q-6 0 -10 30l-2 68q0 16 2 18q-8 -8 -14.5 -31.5t-24.5 -43.5q-49 -39 -131 -39t-136.5 11t-54.5 26q0 4 2 6q-86 53 -148.5 194.5t-62.5 280.5q0 406 181 504q6 6 106.5 28.5t135 22.5 t153.5 -43q-2 2 -2 10t10 106.5t10 173t-22 154.5l51 10q41 0 106.5 -11t95 -11t37 11t15.5 11q-2 -96 -2 -212.5t-13.5 -410.5t-13.5 -454v-96l11 -188q0 -53 -7 -103q-10 0 -25.5 11.5t-31.5 11.5q-2 -2 -3 -12.5t-11 -10.5zM604 991l-39 -6q-20 0 -58 14.5t-63.5 14.5 t-105.5 -19q-14 8 -31 9q-102 0 -175 -126t-73 -311q0 -72 23.5 -148.5t30.5 -99.5q35 -141 87 -199.5t179 -58.5q66 0 116 33t70 39q12 25 23 25q16 -6 16 -18.5t-6 -20.5q14 -16 14 -72q37 -10 70 -10t172 10q-2 39 -2 115v114l18 1149l-131 19l-24 -2h-2q-20 0 -45 -12.5 t-30 -43t-15 -342.5l2 -40q0 -4 -1 -12.5t-1 -10.5q-11 10 -19 10zM623 391l-9 6q-4 0 -4 -2q-8 -78 -47 -135t-97 -57t-92 38t-54.5 81t-22.5 55t-3 30.5t-3 32.5q-27 102 -27 152q0 88 63.5 155.5t161.5 79.5h17q82 0 107.5 -50t25.5 -218t-16 -168zM604 526v45t-2 72 t-10 78q-16 86 -91 86t-144.5 -68.5t-69.5 -189.5t57 -209t141 -88q119 0 119 274z" />
<glyph unicode="e" horiz-adv-x="909" d="M520 506l-45 8l-63 -4q-43 0 -78 18q8 -29 16 -87t14.5 -95t34 -67.5t76.5 -30.5q119 0 131 166q57 -8 209 -8q18 0 27 8l2 -138q0 -135 -39 -182q-47 -49 -141.5 -85t-190.5 -36q-205 0 -312.5 132.5t-107.5 334.5v146q0 270 113 381q33 33 123 58.5t196.5 25.5 t200.5 -42t115 -104q6 -10 10 -31q8 -45 25 -55q27 -166 26.5 -214t-8.5 -73q-35 -35 -123 -34l-201 12zM305 559l17 -2q10 0 20 18q10 -10 23 -10l55 6q23 0 63.5 -9t46.5 -9l258 -14q27 0 31 2q16 45 17 116q0 244 -154 322q-55 31 -221 31q-203 0 -301 -105 q-41 -41 -69 -118.5t-28 -184.5q0 -225 82 -392t201 -179q55 -6 161.5 -6t149.5 14t91 74q72 109 71 276q-53 4 -69 4h-74q-18 0 -33 2q-25 -76 -39 -99.5t-33 -51.5q-33 -51 -107.5 -51t-124.5 79.5t-50 182.5q0 43 16 104zM477 856l31 2q12 0 32.5 -11t30 -11t11.5 2 q70 -80 69 -131q0 -10 -10 -33t-13 -23t-14 11q-14 -8 -56 -8.5t-112.5 13t-94 13.5t-27.5 -23l-9 9q-16 12 -16 30l6 58q0 18 -2 20q12 12 23 29l22 33q29 39 64 38zM567 715l41 -2q0 59 -22.5 88.5t-82 29.5t-111.5 -20t-52 -51q0 -8 6 -25.5t6 -29.5q2 2 76 2t96 -2 q2 2 2 4q-2 0 -2 2v4q27 -6 29 -8q0 8 14 8z" />
<glyph unicode="f" horiz-adv-x="776" d="M569 1108l-47 2q-41 -4 -67.5 -32.5t-26.5 -62.5t14 -61q35 4 146.5 6.5t163.5 20.5q4 -37 8 -37q-4 -170 -23 -231h-22l-176 -19q-47 0 -82 23q-8 -76 -13.5 -224.5t-7.5 -187.5q-16 -170 -16 -182q0 -90 24 -111q-6 -14 -15 -14t-71.5 5t-207.5 5q-6 8 -7 37l7 88 l-7 213l13 135l-11 191q-115 16 -127 16l-4 57v158q0 53 -8 76q8 18 8 25q10 -2 31 -9q47 -16 84 -16q14 23 22.5 91.5t32 120.5t48 80.5t41 38t38 17.5t36.5 21.5t32.5 13.5t54.5 22.5t52.5 22.5t15.5 -8l-2 -2q150 23 166 22.5t35.5 -0.5t31.5 -1t23.5 -11t11.5 -31 l-2 -92q0 -80 12 -141q-127 -35 -209 -35zM369 109l-2 36q0 90 15 261.5t15 263.5v67q10 10 35 11.5t31 3.5q6 -2 6 -7v-4q0 -8 95 -8t149 25l6 49q10 137 12 143q-20 -4 -22 -4q-84 8 -121 8l-129 -18l-35 4q-14 27 -14 69t34.5 80.5t81.5 38.5l47 -2q68 0 175 31 q4 70 4 146.5t-9.5 85t-42 8.5t-93 -17.5t-91.5 -17.5l-43 4q-51 -4 -78.5 -23.5t-50 -38t-33.5 -26.5q6 10 26.5 27.5t22.5 27.5q-172 -80 -172 -256v-18q20 111 93 182q-84 -111 -99 -285l-6 -6l-6 2q-6 0 -20.5 -10t-36 -8t-27.5 2q-55 0 -55 -80l8 -121h35q86 0 100 35 q0 -31 14 -45q-6 -20 -6 -41l15 -145l-9 -107q0 -193 25 -350q0 -20 -2 -25q31 -10 82 -13t67 -5q9 27 9 70z" />
<glyph unicode="g" horiz-adv-x="956" d="M879 905l-7 -262q0 -66 14.5 -176.5t16.5 -149.5q0 -217 -20 -462q-12 -154 -103.5 -226.5t-226.5 -72.5q-229 0 -311 71q-25 20 -49 33q-37 16 -60 45q-80 106 -88 205q18 4 145 11t154 7q0 -51 35 -81.5t88 -30.5t87 42t34 113v23q0 18 -2 20q-127 -63 -172 -63 q-92 0 -197.5 39t-140.5 102q-74 119 -74 393q0 127 24.5 213t92.5 166q6 6 29.5 46t46.5 59q82 66 203.5 65.5t185.5 -53.5q2 4 2 35v43l8 4q23 -23 133 -23l104 4q47 0 48 -45v-94zM72 469l-17 -160q0 -127 108.5 -212t205.5 -85q59 0 94 15.5t68.5 32t52.5 24.5 q2 -14 18 -49t16 -64q0 -82 -43 -144.5t-98 -62.5t-99 35t-56 84q-37 14 -101.5 14.5t-116.5 -8.5q8 -123 80 -172q53 -39 119 -58t88 -30q102 -49 200.5 -49t150 44t89 163t37.5 270l-16 287l2 207v55q0 43 -18.5 136.5t-18.5 140.5l8 110q0 4 -1 12.5t-1 14.5 q-33 -4 -51 -4l-145 8q-20 0 -21 -18l12 -66q-10 0 -12 -10t-6 -12q-20 70 -164 69l-108 -16q-98 0 -177 -136.5t-79 -312.5v-53zM379 784l27 23q70 -6 167 -51q20 -20 41 -135q8 -37 17 -68q14 -53 14 -96q0 -121 -43 -188.5t-158 -67.5q-74 0 -142.5 116.5t-68.5 227.5 q0 164 129 241zM481 238h6q53 10 87 108t34 146q0 125 -52 203.5t-132 78.5q-59 0 -97 -79t-38 -186.5t47 -189t145 -81.5z" />
<glyph unicode="h" horiz-adv-x="917" d="M856 717l-2 -103q0 -82 -14.5 -258t-14.5 -247v-33q0 -4 4 -33q2 -2 9 -2q12 -4 12 -14q-72 -33 -160 -43.5t-110 -16.5v4q0 16 33.5 20.5t39.5 10.5q-8 8 -33.5 8t-41.5 -10q-8 8 -8.5 16.5t8.5 22.5q8 63 8 162.5t-8.5 169t-12.5 106.5t-7 54.5t-9 49t-15.5 47 t-21.5 34t-30.5 26.5t-43 8t-43 -20.5t-29 -61.5t-17.5 -78.5t-9 -101.5q-4 -123 -4 -190l12 -121l-8 -53q0 -8 6 -19q-2 -4 -7 -13t-7 -15q-8 -16 -27 -17l-145 8h-35q-66 0 -66 86l4 170l-2 88v56l-4 125q0 41 6.5 158.5t6.5 260.5l10 224q0 43 -17 211q-8 25 -8 55.5 t33 54.5q18 -10 64 -10q115 -10 144.5 -10t33.5 3t5 9t5 10q10 0 10 -37v-55l21 -403l-6 -2q-2 0 -11 8v-51q39 4 115 22.5t123 20.5l49 -11q8 -2 43 -4q74 -4 98.5 -23.5t38 -46t19.5 -49.5q16 -46 16 -157zM111 1090l-19 -627q0 -135 7 -261t7 -128q31 -18 102 -18.5 t93 5.5q-2 18 -2 54v55q0 100 18 395v33q0 43 36 89t73 46t63.5 -12t41 -29.5t22.5 -52.5q12 -43 20 -129q29 -127 29 -379v-47q0 -16 -4 -45q45 6 93 6t112 -8q14 115 14 416v143q0 35 -7 80t-10 87t-8.5 55t-13.5 24.5t-19 25t-38 47t-56.5 50t-77.5 16.5t-70.5 -3 t-47.5 -12.5t-36 -13.5t-43 -21.5t-42 -21.5q-16 23 -20 25q6 43 6 253t-4 255q-47 0 -117 9t-92 11q-27 0 -27 -82v-26z" />
<glyph unicode="i" horiz-adv-x="423" d="M117 1042l114 -12q131 0 136 4q4 -111 4 -168l-21 -741v-68q2 -4 8.5 -13t6.5 -17q0 -23 -91 -23h-30l-160 4q-8 -2 -10 -11t-6 -9q-10 0 -11 59v74q0 287 31 782v101q0 12 -4 32q13 6 33 6zM168 53l141 -2h17q2 94 8 430t16 523q-14 -2 -37 -3h-37q-100 0 -155 9 q-16 -37 -16.5 -99.5t-7.5 -109.5t-10 -180.5t-8 -198t-5 -154.5t4 -205l8 -2q2 0 14 -4q21 -4 68 -4zM66 1475l245 -15h25q20 0 24 2q-2 -2 -2 -22v-29q0 -92 15 -211q-8 -4 -8 -16.5t-5 -18.5q-6 0 -6 11v12q0 6 -10 6q-223 0 -223 -25q-6 6 -12 7h-5q-10 0 -19 78.5 t-9 127t6 66.5q0 8 -8 13.5t-8 13.5zM268 1454l2 -12q0 -14 -77.5 -14.5t-79.5 2.5l-4 -21q2 -20 4 -40.5t4 -34t2 -19.5q4 0 12 -48t8 -65l37 2l82 -2q59 0 92 12q-20 123 -20 175.5t2 54.5q-14 10 -56 10h-8z" />
<glyph unicode="j" horiz-adv-x="417" d="M354 1014l-4 -60q0 -70 21 -229q6 -70 6 -147l-10 -336q0 -270 -25 -379l-12 -37q-29 -88 -46.5 -103.5t-29.5 -15.5q-14 0 -39 -24q-2 -6 -37 -6.5t-108.5 -21t-102.5 -24.5l-24 11q-92 -18 -124 -18.5t-34 1.5l-35 -4q-8 0 -12 -4q-8 6 -8 23v16q0 20 -14.5 60 t-14.5 63l12 51q0 18 8 43l9 33q178 4 247.5 29.5t69.5 101.5l-2 39l23 225l4 174q0 236 -7.5 374t-7.5 168t13 36l217 -25q39 0 39 12v7q0 4 10 4q18 -14 18 -37zM90 584l-2 -131q-8 -199 -8 -293t8 -117q-18 -14 -24.5 -51t-12.5 -45q-29 -39 -152.5 -61.5t-150.5 -35.5 q-8 -51 -8 -98t2 -63.5t19.5 -31.5t44 -15t43 2t32 5t59.5 13t108.5 25.5t94 29t49 38t33.5 36.5q6 4 21.5 10t19.5 13q68 72 68 602q0 115 -17 596q-14 -6 -45 -6l-172 12q-4 0 -10 -6l-4 6q14 -111 14 -168l-12 -174v-33l2 -20v-39zM258 1182l-166 -13q-6 0 -16 1t-15 1 q2 4 1 59.5t-1 153t19 97.5q6 0 8 -13.5t18.5 -13.5t98.5 13.5t125 13.5q10 -25 13 -86.5t5 -75.5q-12 -12 -12 -47t18 -66q-4 -8 -19.5 -8t-17.5 -2q0 -6 7 -20q-33 6 -66 6zM127 1208l127 -2q41 0 72 8q-8 37 -12.5 124t-12.5 124q-2 0 -6 4q-33 -20 -104.5 -21 t-102.5 -13v-23l6 -180v-21h33z" />
<glyph unicode="k" horiz-adv-x="890" d="M365 14l4 -26q0 -6 -2 -8q-84 25 -113 24.5t-64 -10.5q-84 6 -99 6t-17 -2q-14 207 -15 438q8 256 15 377q16 567 16 676q23 2 123 5t135 9q4 -12 27 -12q-12 -33 -13 -64q0 -381 19 -606q145 178 197 250q14 -2 34 -2h142q82 0 125 -6q-6 -45 -37 -83t-42.5 -54.5 t-33.5 -59.5q-45 -90 -92 -125q-12 -25 -47 -72.5t-45 -74.5q106 -186 139 -243.5t54.5 -97.5t35.5 -64.5t24.5 -44t17.5 -31t10 -17.5t8.5 -12t15.5 -16l18 -19q0 -18 10.5 -31.5t14.5 -21.5q-29 -4 -37 -4h-37l-205 8h-37q-4 0 -32 -4q-57 92 -191 346q-14 -39 -14 -119 l2 -135v-51q0 -8 -6 -10q-8 -5 -8 -13zM338 766l-21 717q-154 -4 -202 -13q6 -86 6 -165q-16 -322 -16.5 -553.5t12 -383t12.5 -235.5v-51q0 -33 -2 -51q37 -4 100 -4h78q2 2 17 2q0 328 36 450q55 -72 123 -200.5t77 -146t20 -42.5q25 -55 40 -61q18 -14 66 -15l152 13 q29 0 55 -7q-25 45 -80 137.5t-82 143.5l-172 277q-4 0 -8 -8.5t-6 -8.5l-4 4q12 63 68.5 131t74.5 95q117 211 178 256q-49 6 -100 6l-172 -4q-57 -98 -60.5 -98.5t-3.5 1.5q-16 -6 -16 -20l-80 -129q-39 -61 -55.5 -71.5t-30.5 -12.5q0 4 -6 4q2 2 2 43z" />
<glyph unicode="l" horiz-adv-x="421" d="M346 168l10 -158v-12l-59 2l-152 -4h-36q-6 0 -35 4q0 135 -12.5 424t-12.5 444l12 422v72q0 25 -4 78q0 6 -10 8t-10 10q8 0 20 12q23 23 23 37h2q4 0 10 -16h21l178 -16q39 0 53 8q8 -14 8 -41l-6 -359l6 -313v-201l4 -254l-12 -125q0 -20 2 -22zM86 571l6 -426 q0 -20 -1 -61t-1 -61q84 23 142.5 22.5t103.5 -4.5q-12 256 -12 631v252q0 348 -7 528q-14 -8 -47.5 -8t-83 14.5t-66 14.5t-30.5 -9q10 -37 10 -260l-12 -293l2 -131z" />
<glyph unicode="m" horiz-adv-x="1400" d="M369 952q133 53 215 54q137 0 211 -74q4 2 38.5 22.5t49 26.5t47.5 18q51 23 123.5 23t128.5 -18q100 -31 112 -56q39 -180 39 -317v-51q-2 -41 -13 -173.5t-11 -199.5l4 -113l-10 -76q0 -4 9 -7t9 -11q-41 -8 -142.5 -13t-127.5 -12q6 166 6 205l-4 125l4 150 q0 90 -35 152.5t-104 62.5q-16 0 -48 -11q-31 -94 -30 -260l8 -327l-2 -74l-37 2l-154 -6h-24q-16 0 -34.5 9t-31.5 11q23 98 23 270.5t-53 362.5q-25 25 -67 25t-70.5 -17.5t-41.5 -56.5q-20 -57 -20 -180l8 -201l-6 -143q0 -37 6 -64q-16 -12 -49 -12l-74 2 q-35 0 -87 -13.5t-56 -13.5q-10 8 -10 48t-11 45q2 2 2 20v20l-10 326q0 436 2 518t15 82q2 0 20 -18q49 -6 276 -10q6 -8 7 -27v-25zM831 383l-4 92v121q0 49 10.5 64.5t48.5 32t64 16.5q59 0 113 -127q33 -84 33 -182.5t-19 -374.5q70 -16 125 -16.5t80 7.5q12 143 12 349 t-32 557q-86 74 -143.5 73.5t-144.5 -17.5t-114 -44l-24 -25q-29 -29 -46.5 -28.5t-34 7.5t-36.5 19q-76 45 -165 45t-179 -55q-4 -2 -17.5 -15.5t-27.5 -13.5q10 41 10 64.5t-8 50.5q-31 2 -111 3t-119 7l-4 -4q0 -4 2 -6q-8 -129 -8 -276l4 -383l-10 -209q0 -63 12 -111 q53 12 122 14t93 5q0 2 -6 86l-8 75l8 72l-2 121v104q0 96 34 171t112 75q35 0 57 -22l27 -27q6 -8 23 -19.5t24 -19.5q51 -68 51 -334v-41q0 -119 -10 -227q2 2 18 2h18q76 0 170 -25q2 2 2 21l-10 112z" />
<glyph unicode="n" horiz-adv-x="921" d="M350 319l-18 -301q0 -20 4 -53q-2 -2 -14 -2l-224 19q-8 -2 -14 -12.5t-10 -10.5q-20 0 -23.5 30.5t-15.5 33.5q0 4 5 9t5 13q-10 100 -10 204.5t16 520.5l12 182q-4 29 -4 46.5t23 35.5q45 -10 82 -10l166 16q10 0 39 -4q-8 -18 -13.5 -57t-7.5 -45v-6q14 0 39 24 q12 8 40 17.5t38 14.5t23.5 12.5t21.5 11.5q25 12 45 12l51 -6l82 4q133 0 172 -162q31 -127 31 -247t-11.5 -265t-11.5 -162v-37q0 -57 -24 -180q-29 16 -76 17l-158 -17h-14q-10 0 -12 2q8 27 8 82t-9.5 143.5t-11.5 120t-2 93t-2 101.5t-8 83q-12 86 -67 86 q-96 0 -123 -82q-20 -70 -21 -191zM834 -12q25 270 24 293v36q0 322 -53 494t-187 172q-180 0 -264 -84l4 -12q-2 -2 -2 -4q-12 0 -12 4l-20 -6q-2 0 -5 2l13 88l-2 18l-211 8q-27 0 -27 -39q2 -2 2 -6t2 -6q2 2 3 9.5t10 7.5q-25 -59 -25 -160l8 -252l-2 -109l2 -129 l-18 -284q45 0 117.5 -17.5t109.5 -17.5q20 0 21 35v8l-13 223q0 117 23.5 237.5t31 137t46.5 46.5t76.5 30t67.5 -37t42 -105.5t16 -131t6.5 -150.5t6.5 -132t4 -67v-76q0 -4 -7.5 -7t-7.5 -11q47 8 118 8t102 -14z" />
<glyph unicode="o" horiz-adv-x="917" d="M61 801l-4 49q0 182 215 209q68 10 149 10t205 -29.5t158 -64.5q6 -4 13.5 -22.5t17.5 -18.5q6 -4 6 -12v-13q0 -29 12.5 -80t15.5 -76.5t5 -86t7 -113.5t5 -150.5t-24 -173.5q-2 -6 -11.5 -35.5t-13.5 -40t-13 -36t-18.5 -38.5t-21.5 -30q-25 -35 -63.5 -49t-139.5 -14 l-86 2q-233 0 -298.5 43t-105.5 159.5t-40 215t15 218.5t15 177zM823 696q0 248 -108 291q-8 4 -25.5 5t-31 4t-46 20.5t-45 17.5t-47.5 -4t-127 -6q-195 -2 -235 -29q-10 -8 -23.5 -45t-17.5 -45q-45 -121 -45 -215v-246q0 -201 18 -245q8 -16 26.5 -39t26.5 -41 q23 -35 123.5 -69t176 -34t198.5 33q131 51 156.5 154.5t25.5 492.5zM311 547l-8 69q2 10 12.5 39t10.5 47v13q8 6 39 30q57 49 101 49.5t93 -59t55.5 -103.5t6.5 -59l-9 -223q-4 -51 -29.5 -75.5t-113.5 -24.5t-131 29.5t-43 105.5q0 31 16 162zM382 306.5 q36 -19.5 63.5 -19.5t41 3t23.5 12t16 15.5t13.5 24.5t9.5 24.5t8 32.5q25 88 25 169t-27 123t-98 50q-72 0 -97 -41q-33 -53 -34 -98q-6 -72 -6.5 -144.5t16.5 -103.5q10 -28 46 -47.5z" />
<glyph unicode="p" horiz-adv-x="950" d="M650.5 983.5q56.5 -22.5 83 -43t63.5 -59.5t39 -41q39 -33 41 -64q4 -12 19 -41.5t17 -36.5q25 -74 25 -200.5t-68 -329.5q-4 -10 -13 -42t-28 -60q-70 -113 -290 -113q-94 0 -177 35q-6 -47 -11 -216t-3 -184q-18 -10 -22 -26q-47 12 -136 12h-69q-25 0 -62 4 q-16 53 -16 182t8 1074q0 111 -14 163q-6 29 -5 37t9 10q25 -8 68 -8q90 8 148 8t71.5 -8t13.5 -31.5t4 -33.5q61 35 154.5 35t150 -22.5zM328 961q0 16 -2 18q-31 2 -105 5t-110 7q-2 -4 -5 -6q-12 -14 -34 -653q6 -168 6 -332l-2 -332v-55q27 -14 76 -14l163 14l2 70 q6 215 7 274v47q0 18 -5 47q2 -2 9.5 -2t36.5 12q-2 -14 -3 -24q0 -23 78 -43.5t140 -20.5q113 0 147 60q4 6 29.5 37.5t46 62.5t41 90.5t24.5 126.5v23q0 106 -5 169.5t-35.5 158t-85 151.5t-113 90t-97 33t-95 -6t-64.5 -14.5t-17.5 -30t-21.5 -21.5q-8 8 -8 27zM319 575 q0 59 -8 84q43 119 170 138h13q86 0 137 -82t51 -180q0 -158 -66 -244q-27 -35 -58.5 -57.5t-54 -29.5t-34.5 -7t-35.5 10t-40.5 10q-33 0 -57.5 46t-24.5 122zM426 233q88 0 145.5 74t69.5 178v19q0 80 -43 135q-14 18 -31.5 34.5t-29 29t-18.5 17.5t-17 13t-20.5 12.5 t-25 4.5t-46 -26t-51 -52.5t-19.5 -79.5q0 -264 14 -303q25 -56 72 -56z" />
<glyph unicode="q" horiz-adv-x="948" d="M881 453l2 -62v-43l-11 -465l9 -231v-41q-25 0 -90.5 -14.5t-104.5 -14.5h-123q-8 35 -8 82l2 191q0 45 -4 155q-63 -8 -137 -8q-219 0 -269 117q-16 43 -32 67q-78 109 -78 330q0 102 52 225t85 156q33 49 102.5 79t135 30t157.5 -52v23q0 31 48.5 44t144.5 16t106 5 q16 -12 16.5 -30.5t-14.5 -38.5q10 -63 11 -506v-14zM598 -55l14 -267v-32q0 -29 -2 -35q154 10 234 43q-2 18 -2 55v51l4 287l-15 397l-6 529l-198 10q-8 -14 -9 -35l3 -41q0 -27 -17 -37q-29 8 -97.5 55.5t-112.5 47.5t-101 -10l-51 -37q-160 -133 -160 -502 q0 -78 11 -133t46 -115q72 -123 312 -123l133 13q16 0 43 -11q-29 -28 -29 -110zM618 592l-2 -92q0 -240 -65 -277q-27 6 -77 12.5t-71.5 11.5t-54.5 21.5t-45 42.5q-39 74 -43 187q39 205 109 239q8 4 51 17l37 8q45 0 90 -20.5t55 -47.5q16 -39 16 -102zM582 639 q-10 96 -102.5 96t-138.5 -92t-46 -221q0 -74 58.5 -119t158.5 -49q70 53 70 385z" />
<glyph unicode="r" horiz-adv-x="753" d="M80 1032l24 -4q49 0 117 8t96 8h23l4 7l6 6q8 -14 10 -53t9 -56q264 59 344 86q6 -2 9 -7t5 -5q0 2 4 2t6 2q0 -403 -16 -403l-27 2q-2 2 -3 5t-3 5q-8 12 -26 18q-80 35 -164 35q-141 0 -142 -280q0 -121 11.5 -253t13.5 -163q-143 -25 -283 -25q-29 0 -45 17v57 q-16 332 -16 416l18 426q0 59 -6 108q16 0 20.5 6.5t6.5 17.5t4 17zM688 670l12 235q0 45 -6 88q-45 0 -114.5 -28.5t-87 -31.5t-60.5 -6t-67 -14v-4l2 -8q0 -10 -11 -14q-45 29 -45 106l-202 -18q-12 -59 -13 -146l2 -163l-4 -27v8q-6 -16 -6 -39l12 -248q2 -47 6 -118 q8 -147 9 -168v-19l10 -18l-14 -39q-4 0 -9 8v-4q0 -12 39 -12t76 6q43 6 139 24q-31 145 -30 410q0 309 149 309q47 0 120 -31.5t93 -37.5z" />
<glyph unicode="s" horiz-adv-x="921" d="M645 594l29 2q49 0 107.5 -49t88 -99.5t29.5 -119t-52 -167t-115.5 -150.5t-123 -75.5t-151.5 -23.5q-186 0 -307 105.5t-121 293.5q0 6 1 21.5t1 23.5q29 -14 84 -14l188 16h21q39 0 55 -67q6 -25 33.5 -46.5t72.5 -21.5t79 35t34 86t-58.5 81t-142.5 47t-168 43 t-142 89.5t-58 170t59 173t191 105.5q14 4 43 14q57 20 96 20q133 0 261 -35.5t173 -103.5q16 -29 29 -106l8 -60q2 -27 16 -57q-47 -47 -153.5 -47t-165.5 35q-12 18 -17.5 57t-23 59.5t-64.5 20.5t-72.5 -20.5t-25.5 -50t15.5 -62.5t17.5 -45q18 -14 61 -25.5t51.5 -14.5 t34.5 -14q55 -24 82 -24zM246 324l-162 -13h-18q-14 0 -17 2q10 -100 25 -137q68 -182 405 -182q193 0 283 129q94 152 94 246q0 47 -40 103t-83 81t-150.5 40t-146.5 34.5t-68.5 66.5t-29.5 103q0 96 80 96q70 0 139 -51q25 -68 94 -80q61 -12 139 -12t78 47 q0 66 -32.5 122t-71.5 56t-88 28.5t-76 28.5h-31q-25 0 -61.5 10.5t-54 10.5t-26.5 -4.5t-65.5 -18.5t-78.5 -22q-92 -33 -183 -140q-33 -39 -32.5 -111.5t38 -111.5t113.5 -65l41 -17q35 -14 147.5 -41.5t171 -62.5t58.5 -103.5t-44 -115.5t-93 -47q-86 0 -131 59 q-4 6 -17.5 26.5t-34 33t-71.5 12.5z" />
<glyph unicode="t" horiz-adv-x="792" d="M440 631l9 -283q23 0 52 -18.5t56 -18.5t60.5 -14t42 -16t41 -2t63.5 8q10 -66 10 -100.5t-22 -209.5q-16 -8 -76 -8t-135.5 21.5t-115.5 30t-59.5 13.5t-48.5 13q-49 14 -81 51q-82 94 -82 353l4 243v43q-16 12 -58.5 14.5t-54.5 4.5q-8 -2 -10 -11.5t-7 -9.5t-8.5 22.5 t-11.5 26.5q25 51 25 105.5t-6 128.5q2 0 6 -2l16 8q2 0 9.5 -9t25.5 -9h76q18 0 20 -2q6 31 6 132t-6 269q20 4 33 4l176 -10q23 0 41 18q6 -12 41 -12q-4 -193 -4 -253t4 -130h16l156 -6l109 16q16 0 24 -8q-2 -2 -2 -4l-2 -16v-15l-12 -239l-289 10q-12 0 -25 -4 q-6 -62 -6 -125zM209 1049l2 -31q-8 -4 -12 -19.5t-9 -19.5q-121 10 -133 14q0 -115 -10 -188q35 0 137 -19v-8q0 -16 13 -30q0 -4 -6.5 -9.5t-6.5 -17.5v-49q0 -84 20.5 -224.5t20.5 -201.5v-33q0 -98 113 -135q74 -25 197.5 -47.5t173.5 -34.5q31 27 30 110l-2 91v16 q0 16 2 18q-2 -2 -18 -2h-19q-61 0 -145 39q-10 4 -39 15.5t-41 17.5q-33 16 -53 45v-4q0 -6 -8 -6t-8 133t8 272q0 6 -10.5 9.5t-10.5 11.5l2 6l29 6q98 16 123.5 16.5t94.5 7.5t104 7q-8 63 -8.5 108t5 59.5t9.5 21.5t4 10q-27 -12 -77 -10.5t-117.5 1.5t-141.5 -8l2 123 q0 115 -6 264q-86 12 -126 12t-77 -12q-6 -268 -6 -325zM602 0q8 0 10 2q-10 0 -10 -2z" />
<glyph unicode="u" horiz-adv-x="921" d="M756 1024l69 6q23 0 39 -12q-4 -49 -4 -80l8 -276q0 -88 -16 -264.5t-16 -256.5v-37q-16 -96 -21 -102q-45 10 -65 10l-189 -18q-18 0 -22 5t-4 17v13q0 43 8 73q-8 -8 -28.5 -18t-38 -20.5t-26 -13.5t-25.5 -12t-28.5 -12t-28 -9.5t-28.5 -8.5q-41 -6 -64 -6 q-111 0 -173 97.5t-62 246.5l4 94l-10 72l8 430l-2 102v7q4 4 7 4t6 -6.5t5 -6.5h29q14 0 16 9q35 -10 52 -11l125 11q27 0 49 -7q10 -51 10 -172l-4 -280v-76q0 -184 94 -184q78 0 119 55q33 43 33 227v31l2 213v76q0 27 -4 63q2 6 15 9.5t13 11.5q6 -6 23 -6l86 14z M813 428q0 98 4 217v82l-2 143v127q-66 4 -112 4t-87 -10q-14 -94 -14 -209l12 -247q0 -43 -32.5 -103.5t-36.5 -75.5q-41 -43 -92.5 -43t-78 17.5t-43 55.5t-25.5 72t-11 91q-6 98 -6 228t8 227q-23 6 -51.5 6t-68.5 -3t-66 -3q2 -6 2 -35v-35q0 -57 -14.5 -174t-14.5 -207 l4 -246q0 -113 66.5 -190.5t147.5 -77.5t130 30.5t84 82t64 61.5q0 -12 6 -25q10 -6 12 -8q-14 -14 -14 -36.5t1 -46t1 -36.5q18 6 41 7l116 -15q37 0 50.5 59.5t16.5 138.5t3 177z" />
<glyph unicode="v" horiz-adv-x="878" d="M848 1004q-2 -4 -2 -9.5t4 -9.5q-20 -80 -57 -238.5t-60.5 -248.5t-87.5 -465l17 -8q0 -4 -236 -25q-182 18 -184 33q-2 29 -4 28h-2q-16 0 -94.5 360.5t-82.5 379t-29.5 87t-25.5 107.5v13q0 8 4 8l12 -8q8 8 46 8l98 -2q88 0 88 26q6 0 8 -11t8 -11t13 4q4 0 15 -21.5 t11 -27.5q-4 0 -26 26h-7q4 -25 30 -119t34 -151q72 -215 87 -240.5t21 -44.5q31 96 71 282.5t61 258.5l14 37q0 -10 43 -10l153 10q60 0 60 -18zM682 995l-76 4q-35 -131 -82 -376.5t-61 -313.5q-10 0 -10 4l2 13v4q-8 -8 -13.5 -8t-9.5 4h-2q-37 150 -182 655 q-57 2 -115 2h-35q-25 0 -39 -2q55 -260 68 -336q25 -139 57 -231q35 -127 63.5 -243t31.5 -122q33 -14 114 -14h60l86 -10q12 0 29.5 8t33.5 8q8 0 52 202.5t56.5 276.5t45 234.5t47.5 242.5q-2 2 -26.5 2t-28.5 -2h-7q0 2 11 7q-19 -1 -70 -9z" />
<glyph unicode="w" horiz-adv-x="1398" d="M1233 1016l98 16h19q4 0 5 10.5t7 14.5q6 -2 9 -17.5t13 -17.5q0 -8 -6 -14.5t-6 -10.5q0 -88 -44 -207.5t-75.5 -268t-54.5 -216.5q-37 -186 -61 -250q2 -4 11 -4t9 -4q0 -10 -16 -14q-14 0 -15 -19q0 -4 1 -12t1 -12q-100 14 -199.5 14t-185.5 -4q-2 145 -61 365 q-61 -229 -68 -320q-12 -6 -16 -41q-29 6 -55.5 6t-42.5 -6q-41 6 -70 6l-65 -2l-70 2l-49 -12q-10 0 -10 9t14 16q0 8 -7 13t-10 9q-14 53 -31.5 172t-29.5 172t-40 157.5t-40 155.5q-47 223 -88 318q29 14 117 14t110 -6l45 -12q6 4 7 6l-4 16q0 6 6 9q53 -82 88 -294 t55 -272q14 37 40 141.5t82 246t65.5 150.5t15.5 15q27 0 74 -10q72 -12 71 -6v10q0 6 2 6q8 0 13.5 -10t7.5 -12q6 0 6 10v6q0 8 4 8h4q0 -14 15.5 -23t15.5 -16.5t-19 -13.5q14 -63 117 -592q45 115 81 292t41 198.5t13 46t10 37.5l3 30q0 33 40 33zM1071 55l35 -2 q35 129 78 334q12 43 38.5 122t40 129t39 174t41.5 185q-23 -2 -80 -12t-94 -10h-18q-16 0 -18 2q-31 -106 -84.5 -323.5t-85.5 -323.5q-31 -12 -35 -17q-51 96 -84 347t-64 337l-114 17q-23 0 -25 -2q-41 -131 -115.5 -418t-87.5 -287q0 33 -41 43l15 76q0 98 -58.5 310 t-66.5 255q-4 0 -27.5 6.5t-56.5 6.5l-101 -3q-29 0 -55 11q10 -86 57.5 -279.5t56.5 -219.5t18 -47.5t14.5 -42t10.5 -79.5t13 -96q8 -43 55 -219l107 -9q70 20 133 21l57 -2q12 0 15 2q6 39 42 189.5t36 244.5q14 8 24 8q18 0 19 -18q4 -143 65 -324q18 -57 18 -63l-2 -12 q0 -29 54 -29z" />
<glyph unicode="x" horiz-adv-x="845" d="M-10 995l-27 -2q-14 0 -16 8q0 14 22 15h15q2 2 2 6v8q0 6 4 10l18 -4q12 0 55 17q39 0 122 -13.5t128 -13.5h19q18 0 20 2q4 -23 19 -24q2 -45 28.5 -131.5t32.5 -122.5q14 53 31 131q31 141 45 147q35 -8 79 -8t230 14q-2 -2 -2 -6t3 -6t10.5 -3t13.5 -3 q-152 -416 -189 -543q0 -4 2 -4h7q23 0 73 -182q66 -229 82 -254q2 -4 13.5 -16.5t13.5 -22.5q-20 -4 -29 -4h-27l-227 18l-37 -2q-20 45 -52 144.5t-52 144.5q-16 -29 -29.5 -89.5t-17.5 -68.5t-17 -49q-29 -104 -41 -104q-4 0 -4 6v8q0 10 -131 10l-125 -14q-25 0 -41 12 q39 152 97.5 304.5t58.5 162.5t-10 29.5t-12.5 27t-24.5 101.5q-49 190 -90 250q-35 70 -37 114h-6zM242 27l57 -2q14 39 55 158.5t66 185.5q14 -8 16 -34t9.5 -54.5t41 -120.5t43.5 -133q41 0 120 -8.5t124 -10.5q-16 86 -73.5 249t-71.5 247q156 397 155 452q0 23 -6 23 h-2l-176 2q-43 0 -65.5 -10t-22.5 -45l2 -8q-12 -20 -68 -267q-12 0 -14 21q-6 -4 -10 -15.5t-14 -11.5v6l8 43q-59 217 -88 277q-10 0 -24.5 -9.5t-20.5 -9.5l-39 9h-54l9 -7q-23 4 -56 15q-80 25 -120 26q23 -88 84 -233.5t81 -212.5q-12 -6 -12 -19.5t6 -23.5q2 12 6 12 l5 -2q-8 -37 -29 -89t-21 -54l2 -2q25 47 37 84q20 51 37 63q0 -37 -43 -123q-18 -66 -71.5 -186.5t-71.5 -190.5z" />
<glyph unicode="y" horiz-adv-x="919" d="M598 1030l-10 23q0 4 6 8q25 -25 57 -25l205 -12l51 -4q-4 -23 -29.5 -167t-38 -196.5t-24.5 -113t-20 -94.5q-23 -92 -56.5 -166t-64.5 -183q-2 -4 -56.5 -139t-105.5 -197q-109 -135 -397 -135q-80 0 -142 13q-23 51 -24.5 157.5t-3.5 128.5q23 6 43 6l92 -6 q72 0 111.5 70t39.5 140.5t-18 148.5t-50 170t-48.5 159.5t-53.5 214.5l-43 173q0 6 -8 10t-10 6q4 8 6 18.5t6 10.5t4 -5q0 -8 9 -8l57 2l143 -4q41 0 82 6l4 -10l-2 -10q2 -2 4 -2l11 4q6 0 75.5 -306t77.5 -358q51 248 113 619q0 6 -15.5 13t-15.5 17.5t19.5 13.5t19.5 9 zM-4 -133l-2 -80q0 -66 18 -115h21q43 0 116.5 17.5t83.5 19.5q117 20 150 35.5t47 31t30.5 39t31.5 38.5q82 90 136 229t99 310t71.5 234.5t36 116t16.5 120t13 102.5q-18 4 -231 14q-82 -305 -106.5 -465t-27.5 -172t-3 -35q-4 -45 -27 -51q-4 4 -4 6l8 21l-8 -2 q-2 0 -13.5 55t-27.5 135q-27 129 -57 291l-11 51q-18 102 -47 166q-2 2 -11 4t-9 7t10 7q0 16 -139 17q-12 0 -52 -1t-67 -1q14 -57 41 -181q57 -248 74.5 -293.5t31 -115.5t19.5 -88.5t22.5 -70.5t22.5 -75q20 -70 20 -133q0 -113 -79 -127q-19 -2 -197 -61z" />
<glyph unicode="z" horiz-adv-x="933" d="M293 1032l35 -2q0 8 15 8t15 -2l-4 -4l82 4q121 4 162 14.5t49 10.5l64 -10l102 8q45 0 64 -29q-2 -2 -3 -12l5 -31q0 -10 -2 -12q2 2 5 14t7 17q4 -33 4 -52l-8 -131q0 -31 10 -61q-2 -10 -8 -26.5t-10 -28.5q-92 -78 -162 -150q-135 -139 -238 -252q8 -8 31 -8l127 4 q94 14 118.5 14t59.5 -12t45 -12t12 2q-8 -18 -8 -70l15 -160q0 -78 -23 -77q-8 0 -9 7t-5 7q-33 -6 -62 -6l-162 8q-16 0 -18 -2q0 4 3 6t3 4q-29 -4 -76 -4t-219 14q-20 0 -22 -2q-16 4 -29 5l-170 -7h-20q-18 0 -21 2q10 39 10 101l-6 194q6 6 21 6q129 117 135 136 q4 16 24 28q219 219 228 219l2 -2q-2 2 -4 2l-23 -2l-102 11q-6 0 -129 -13q-94 0 -115 -12q0 12 -14.5 12t-16.5 9q0 6 10.5 14t10.5 18v9q0 4 -4 4l-6 -2l-5 4q8 23 9 65l-13 131q0 10 4 39q-4 4 -14 5t-14 7q6 14 26 15l56 -2zM618 1040l-186 -22q-301 0 -301 -19l-4 -6 l-21 2q-20 0 -24 4q-6 -33 -6 -63l24 -207q14 -8 47 -8l48 2l79 -6q18 0 91 13t112 13q2 -2 2 -8t8.5 -6t18.5 12.5t20 12.5v-6l-12 -29q0 -4 4 -8q-82 -63 -185.5 -172t-169 -179.5t-83.5 -70.5q-10 0 -10 -17v-34q8 -100 8 -150l-2 -37q0 -2 2 -2h6q2 0 2 -2l-2 -4 q133 10 199.5 10t123 -8t134.5 -8l286 10q4 0 6.5 -9t6.5 -9q10 0 10 57v23q0 27 -6 167q-27 14 -86 15q-229 -20 -332 -21q10 29 38 52.5t32 27.5q-2 -2 -2 -8q168 168 211 220t56 65.5t30 36.5q35 45 67 55q4 78 4 133t-10 162q-53 20 -98 20l-43 -2l-62 8h-31z" />
<glyph unicode="{" horiz-adv-x="651" d="M612 231l11 2q4 0 8 -6v-6l-8 -51q0 -8 2 -10l4 -37l-2 -31q2 -2 2 -29l-2 -61l-2 -6q2 -2 2 -8q-2 0 -4 -2v-4q-2 2 -13 2v2q-2 -2 -8 -2l-10 -2q-2 2 -8 2l-41 -2h-15q-43 0 -84 10l-24 4l-35 8v2l-16 8h-4q0 4 -13 6q0 2 -2 5l-20 8q0 2 -17 12v4q-12 2 -16 19h-4v4 q-51 25 -51 108l2 43q0 270 -144 328q-10 6 -39 8q-59 4 -63 47q0 43 6 76l-4 37h-2q-8 14 -8 55t7 53.5t36 12.5l39 -2q82 0 123 67.5t41 153.5l-5 123q0 242 275 241h67q39 0 54 -14q-4 -20 -4 -29v-118q-4 -20 -5 -21v-41q0 -14 3 -16h4q0 -14 -13 -19l-18 -6v-2l-27 -2 l-4 -4q-61 0 -61 -119v-59l2 -68l-4 -78q0 -6 -4 -34h-2q0 -18 -2 -21l-5 -8q-4 -23 -16 -35l-2 -8h-4l-6 -8h-4q-2 -2 -2 -4h-4l-19 -15l10 -8h4q0 -2 5 -6l2 -4q53 -47 53 -170v-53q0 -176 102 -217v-3q2 -2 6 -2zM375 37q6 -4 43 -19v-2l12 -2v-2q96 -14 133 -14v2 q2 0 8.5 1t8.5 1l-5 12l3 2q14 -10 24 -10l2 27q-2 2 -2 20l2 49l-4 31q0 2 6 21v59l-47 10l-22 15q-10 10 -21 20l-8 16q-2 0 -2 5l-2 16h-2q0 6 -2 8h-2q0 10 -2 12l-9 25l-4 27q2 10 2 32l-2 115q0 8 -4 29l-12 65q-2 0 -6 5t-4 8v4q-4 0 -11 12v6q-12 0 -34 23l-11 6 l-8 10l-6 2q-2 2 -4 2v4q-2 2 -4 2v10l6 9q57 18 57 28h4l17 21q8 8 8 26l4 13h2q2 2 2 14l8 57v33l-2 17l2 4l-2 96l7 90l4 12q14 33 18 33l14 10h4q18 12 25 13v2q2 0 31 4v2q6 0 8 2l4 14l-2 25q0 18 4 22l-2 4l2 19h-2q0 2 2 4v22q0 20 -2 23v41q-2 4 -2 12t-2 8l-21 -2 q-2 2 -8 2h-43l-2 2l-10 -2h-37l-22 -2l-2 2v-2q-2 2 -19 0q-6 0 -30.5 -8t-39.5 -8l-20 -8h-4l-19 -19h-4l-24 -24v-4l-8 -6l-15 -48q-2 -6 -2 -18v-84h-6v-10q2 0 2 -4l-6 -68v-18q0 -10 2 -13h2v-8l-2 -43l2 -8h-2l4 -25l-16 -49l-4 -6q-4 -18 -11 -18v-4q-2 0 -4 -2v-5 l-14 -14h-4q0 -2 -4 -6h-4q-20 -20 -66 -39l-20 -4l-25 -2q-14 0 -16 -2l-27 -4l-8 2q-6 -6 -6 -21l-2 -59q-4 -29 -4 -31l2 -41l-2 -28q0 -27 28.5 -27t34.5 -2l27 -4l57 -21l6 -8h4v-4q4 0 19 -14h4l14 -15v-4q6 0 6 -12h2q2 -2 2 -10l19 -39q6 0 6 -17l2 -102l2 -10 l-4 -37v-72q8 -8 12 -30h-4q6 -20 10 -25l-4 -2v-6l6 2v-6q-6 -2 -6 -8q10 -25 33 -48q0 -2 -1 -5t1 -5l2 4l2 -2q25 -12 47 -35l23 -24q-2 0 -2 2zM375 37v4l2 -4h-2z" />
<glyph unicode="|" horiz-adv-x="411" d="M90 -49l12 12q-2 2 -2 8v2q2 0 2 7l-2 4h2l-2 100q-6 35 -6 78l4 106v109h2v41q-4 8 -4 18l2 49v80q0 18 -2 27v135q0 4 -2 4l2 408l-2 73q0 18 4 56l2 26q0 20 2 25v106l2 35l9 2l4 6q0 4 2 5v-3q4 0 6 -2v-2h14q31 0 58 13h67q4 2 25 2h24l11 -15l-5 -16l3 -12h-3 q0 -10 3 -13l-5 -63q-2 -2 -2 -57l2 -39v-35q0 -2 5 -2q-2 -25 -3 -45l3 -23h-3q0 -18 3 -20l-3 -107l3 -18l-5 -105q0 -14 2 -16v-18q-4 -20 -4 -74l2 -29l-2 -12v-8h2q-4 -16 -4 -25v-27q0 -23 2 -24q-2 -8 -2 -12v-13l2 -4h-2q2 -84 2 -141l2 -59q-2 -2 -2 -11l4 -162 q0 -10 3 -12l-3 -102l5 -21l-2 -26h2q-2 -2 -2 -31l2 -6q-2 -2 -2 -8v-43q0 -37 6 -62l-2 -8l-27 -2v-4l-33 -2q-2 2 -14 2h-2q-12 0 -17 4q-12 0 -18 -6h-18q-80 -2 -80 -15l-6 7q-7 10 -21 10zM115 233q0 -14 -4 -30q4 -29 4 -31l-2 -39l4 -65l-2 -5q2 -6 2 -10h-2l2 -20 l-4 -2l4 -4v-41q0 -4 4 -9h31q4 4 10 5h4q12 0 133 16q4 12 6 12t2 -2l-8 709l-2 59v19l4 116q0 25 -4 58v100q0 29 2 39v76q0 2 2 4q-2 2 -2 5t2 5h-2q0 10 2 12l-2 19l2 51v16l-2 144l-98 -2l-60 2q-12 0 -16 -5t-4 -24l2 -43h-2q2 -2 2 -14l-2 -15q2 -2 2 -6 q-2 -6 -2 -10h2l-2 -12l4 -45l-2 -6q2 -2 2 -17l-2 -6q0 -2 2 -2l-2 -4q2 -2 2 -4v-62q0 -16 -2 -18q2 0 2 -4l-2 -96l-2 -15l-2 -135q-2 -4 -2 -27l-2 -174l-2 -12v-6l2 -23v-94q-4 -29 -4 -45l2 -76q-2 -2 -2 -18v-19l-2 -57q0 -25 2 -27l-2 -55l2 -22zM322 158l-3 -6z " />
<glyph unicode="}" horiz-adv-x="651" d="M33 170l-8 51v6q4 6 8 6l10 -2q4 0 6 2v3q10 0 10 4q92 47 93 213v53q0 123 53 170l2 4q4 4 4 6h4l8 6l2 2q-14 8 -18 15h-4q0 2 -2 4h-4l-7 8h-4l-2 8q-12 12 -16 35l-4 8q-2 2 -2 21h-2q-4 29 -4 34l-4 78v17l2 69v41q0 119 -62 119l-4 4l-27 2v2l-18 6q-12 4 -12 19h4 q2 2 2 16v41q-4 12 -4 21v118q0 8 -4 29q14 14 53 14h68q274 0 274 -241l-4 -123q0 -86 41 -153.5t123 -67.5l39 2q29 0 36 -12.5t7 -53.5t-9 -55h-2l-4 -37q6 -33 5 -66.5t-18 -44t-45 -12.5t-38 -8q-143 -57 -143 -328l2 -43q0 -84 -52 -108v-4h-4q-4 -16 -16 -19v-4 q-16 -10 -16 -12l-21 -8q-2 -2 -2 -5q-12 -2 -12 -6h-4l-17 -8v-2l-34 -8l-25 -4q-41 -10 -84 -10h-14l-41 2q-6 0 -9 -2l-10 2q-6 0 -8 2v-2q-10 0 -12 -2v4q-2 2 -4 2q0 6 2 8l-2 6l-2 61q0 27 2 29l-2 31l4 37q2 2 2 10zM170 920l-2 -17v-33l8 -57q0 -12 2 -14h2l4 -13 q0 -18 9 -26l16 -21h4q0 -10 57 -28l6 -9v-10q-2 0 -4 -2v-4q-2 0 -4 -2l-6 -2l-8 -10l-10 -6q-23 -23 -35 -23v-6q-2 -6 -10 -12v-4q0 -2 -4.5 -7.5t-6.5 -5.5l-12 -65q-4 -20 -4 -29l-2 -115q0 -23 2 -32l-4 -27l-8 -25q-2 -2 -2 -12h-2q-2 -2 -2 -8h-2q-2 -6 -2 -13.5 t-3 -7.5l-8 -16q-4 -4 -11 -10t-9 -10l-23 -15l-47 -10v-59q6 -18 6 -21l-4 -31l2 -49q0 -18 -2 -20l2 -27q10 0 25 10l2 -2l-4 -12l16 -2v-2q37 0 133 14v2l13 2v2l10 5q8 0 33 14l-2 -2q-2 0 8 10q29 37 61 49l2 2l2 -4q2 2 1 5t-1 5q23 23 33 48q0 6 -6 8v6l6 -2v6l-4 2 q4 4 10 25h-4q4 23 12 30v72l-4 37l2 10l2 102q0 16 7 17l18 39q0 8 2 10h2q0 12 6 12v4l15 15h4q14 14 18 14v4h4l6 8l58 21l26 4q6 2 35 2t29 27l-2 28l2 41q0 2 -4 31l-2 59q0 14 -7 21l-8 -2l-26 4q-2 2 -17 2l-24 2l-21 4q-45 18 -65 39h-4q-4 4 -5 6h-4l-14 14v5 q-2 2 -4 2v4q-6 0 -10 18l-4 6l-17 49l4 25h-2l2 8l-2 43v8h2q2 2 2 13v18l-6 68q0 4 2 4v10h-6v84q0 14 -2 18l-14 48l-8 6v4l-25 24h-4l-19 19h-4l-20 8q-14 0 -17 2l-14 4q-51 16 -57 10v2l-2 -2l-23 2h-37l-10 2l-2 -2h-43q-6 0 -8 -2l-21 2q-2 0 -2 -4l-2 -16v-41 q-2 -2 -2 -23v-22q2 -2 2 -4h-2l2 -19l-2 -4q4 -4 4 -22l-2 -25l4 -14q2 -2 9 -2v-2q29 -4 30 -4v-2q6 0 25 -13h4l14 -10q8 0 23 -45l6 -90l-2 -96zM279 37v2q0 2 2 2v-4h-2z" />
<glyph unicode="~" horiz-adv-x="1167" d="M369 342l10 -31l22 -41l-20 4l2 -10l-29 6q-23 6 -112 6l-164 -4h-29l31 93q55 172 131 260t205 88t211 -107q20 -25 28 -37q27 -31 56.5 -30.5t31.5 2.5h2q35 0 58 65q18 57 43 82h198l3 8h10q49 0 49 -42t-23 -101q-20 -84 -88 -188q-70 -109 -213 -109 q-80 0 -129 27.5t-65 60.5q-43 88 -105 88q-41 0 -77.5 -21.5t-36.5 -68.5zM102 311l129 2q41 0 103 -4l-4 15v14q0 55 42 94t92 39t88 -27.5t62.5 -61.5t67.5 -61.5t93 -27.5t92 18.5t65.5 37t49.5 66.5t32 64.5t28 73.5l-4 18q-6 6 -6 38t8 42v4l-180 -4q-6 -8 -18 -49 q-31 -98 -88 -98h-6q-2 -2 -36 -2t-70 27.5t-57.5 59.5t-63.5 59.5t-114.5 27.5t-152.5 -60q-41 -29 -84 -124t-68 -181z" />
<glyph unicode="&#xa1;" horiz-adv-x="442" d="M92 457l-4 98l-2 20q2 2 2 9l-4 63q0 115 -2 217l-2 33v6l-2 -2l-4 19l2 6l12 4q2 2 10 2v-4l148 4q4 0 24 4q4 -2 25 -2h22q4 4 5 8q12 -12 30 -12q-2 -2 -4 -2v-2q-2 0 -4 2v-2q-4 -4 -6 -4q2 -2 2 -7v-2q-2 0 -2 -4l2 -47v-26q4 -20 4 -33l-2 -98v-72q0 -2 -2 -4l2 -2 h-2q2 -2 2 -15l-2 -14l4 -20l-2 -29v-37q2 -4 2 -20v-19h2q-4 -262 -4 -280l2 -150q0 -82 -6 -88l-2 -21q2 -4 2 -26v-29l-2 -24l-10 -2q-2 0 -4 -3v-2q-2 0 -5 -2l-6 4q-43 0 -84 -8l-26 -2h-15l-39 2q-4 -2 -57 -2q-10 10 -12 10v7l6 18q-2 0 -1 3t1 16l-2 278h2 q8 166 8 285zM102 551l2 -49v-127q0 -141 5 -170v-41l2 -35q-4 -12 -5 -23v-53q0 -2 -2 -4l2 -10q-2 -2 -2 -6h2q2 -12 2.5 -30.5t-4.5 -31.5l2 -102l117 2l70 -2q12 0 17 3t5 80t-2 341l13 106l-2 9h2v4q0 4 -2 6l4 2l-4 8l2 453q0 31 -11 30h-34q-4 -4 -17 -4h-10 l-148 -10v-2q0 -4 -8 -6q4 -217 4 -221v-117zM80 1104l4 168h4v8q6 0 10 8q2 0 4 -2l2 -4q6 -6 23 -6q12 4 23 4h18q29 4 47 4t47 -6l8 2v-2q16 -2 35 -2t21 2v-4q8 -6 8 -8v-31q-4 -125 -12 -182h2q6 -6 6 -9l-2 -2q0 -4 -19 -10v-2q-8 -8 -41 -8l-106 8l-56 -4 q-20 0 -30 10l-2 17l-2 6q4 4 4 26zM305 1061l4 72v26q-2 18 -2 43l-2 33l-2 10q-4 12 -22 12l-41 -4v2l-62 -6l-20 2l-56 -8q-4 -10 -6 -94l4 -64q4 -14 16.5 -17t63.5 -3q106 -4 113 -6z" />
<glyph unicode="&#xa2;" horiz-adv-x="716" d="M401 629l-2 -133v-74q35 10 47.5 37.5t14.5 81t4 61.5q29 -4 35 -4h90l33 2q18 0 28 -6l11 -148q0 -100 -81 -172.5t-180 -80.5v-103l2 -24l-8 -7l-16 -2v-4q0 2 -2 4v-4l-8 4q-8 0 -17 -8q-2 2 -16 2v-2l-8 6v4q2 2 2 4v74q-2 2 -2 19v37l-52 10q0 -12 -14 -13 q-137 0 -180 144q-8 23 -19 262v264q0 35 -4 113q33 129 93 201q47 25 151 24h27v127h6l2 10l2 -2l35 4h4q2 2 20 2q0 -4 2 -6l-2 -137q55 0 86 -14q12 -12 49 -32t52 -42q59 -78 82 -178l-15 -144q-23 -6 -63 -6h-39q-104 0 -105 21q-4 16 -4 59q0 88 -43 111zM479 567 l2 -18q0 -119 -75 -148l-27 21v33l2 157l-2 396q80 -47 84 -115q0 -18 1 -44t3 -42l129 -8q8 0 37 4l14 123q-16 76 -51 133t-76 76l-47 30q-33 10 -94 15l4 18l4 111q0 6 -6 6l-27 -2q-2 -2 -4 -2v-103l-14 -30h-33q-94 0 -141 -23q-45 -61 -82 -184q4 -70 4 -103l-12 -258 q2 0 2 7.5t2 11.5q4 -29 4 -37v-66q0 -213 76 -272q37 -29 98 -41v4q2 8 2 12l92 -22q-6 -53 -6 -91t23 -38q14 0 16 2v131q104 12 181 77.5t77 153.5l-8 138h-33l-47 -2h-53q-14 0 -17 2zM244 606v80q0 113 10 250l22 29q35 25 72 30v-573l-29 -19q-75 39 -75 203zM274 930 q-10 -133 -10 -301t66 -207v276l18 222l-20 53q-12 -6 -37 -23z" />
<glyph unicode="&#xa3;" horiz-adv-x="995" d="M696 735l33 -4l16 2l52 -10q14 0 20 20q16 -12 35 -12q-8 -8 -8 -17t4 -14l-4 -26q-2 -2 -2 -21l-4 -14q0 -8 -2 -10l2 -121q0 -27 -21 -39l-22 -2l-9 4h-71q-18 0 -33 6l-2 6q-37 -10 -53.5 -10t-28.5 3t-19.5 6t-10.5 3t-3 -4v-4q2 -2 2 -8l8 -82l-4 -6q0 -4 17.5 -9 t23.5 -5l60 8l4 -6l2 2q31 -8 78 -9l69 3q94 0 120 -9.5t26 -46.5l-10 -176v-31q0 -27 2 -30h-7q10 -6 11 -19l-4 -55q-27 -20 -44.5 -20.5t-17.5 24.5v2l-145 -20l-146 8q-39 -10 -104 -10l-174 4h-41q-16 0 -21 28q0 2 -4 31l4 12l2 56l-4 200q0 88 8 168l-75 -4l-23 -2 q-74 12 -104.5 12t-44.5 2q-20 4 -21 23l4 29v32q-2 2 -2 13l2 24q0 20 -2 43h6q0 10 -2 15v12l-6 -23l8 45l-2 7q2 25 2 26h11q12 0 14 2q-6 0 -6 6q2 2 2 5h37q20 4 28 4h97q6 0 26 -4l41 4l6 -4v405q6 43 7 61l-9 115q0 8 2 8t4 -2q6 55 11 56h4q4 0 12 12l154 12 q45 0 118 -29q-10 -72 -10 -116v-33q0 -27 2 -31l11 -311l6 -117q0 -23 -11 -39l54 -4v4l57 -6zM301 1030l6 -262v-41h-35v4l-51 -4q-20 4 -24 4h-95q-8 0 -24 -4h-25v-6l-18 -19v-38l2 -17l-6 -37l2 -6l-2 -6q2 -4 2 -6h-2l2 -62l6 -14l-6 -10l16 -2q31 2 49 2 q68 -10 78 -10l66 6l2 4v-4h49l2 -322q0 -49 -4 -131l-8 -8q0 -6 5 -4t9 2l14 -37h8q23 8 30 8t9 -1t7 -1q-18 6 -23 10l72 2q31 0 342 -16l164 8q2 -4 3 -9t5 -9q6 43 9 46t4 74.5t3 155.5l-6 2v15h10q0 47 -12 47l-16 12q-14 -25 -28.5 -24.5t-19.5 10.5q-37 12 -101 12 t-87 4q-4 -4 -8 -4t-14 10q-18 -8 -43 -8t-50 10l-12 -2q-2 12 -5 55.5t-5 55.5l-4 -6q-2 2 -2 8t-2 8h-2q-2 2 -2 6t-3 6l5 5l-2 4l22 -2l43 2q6 0 43 -4h27l18 2v-2q4 0 12 2l86 -5l15 -2l4 -4l6 11q4 0 4 12l-2 29l4 106l-2 2q4 4 4 9t4 22v8q2 0 4 14q-2 2 -2 11.5 t2 11.5l-4 2q-20 -12 -53 -12t-57 6h-13q-4 0 -12 -2l-45 4q-2 0 -4 2q-4 -4 -6 -4v4h-78v78q0 63 2 98l-10 311q-2 2 -2 19v65q0 74 -21 94q-236 0 -235 -22v-2l4 -41v-27l4 -121zM688 473l-8 2zM674 479q4 0 6 -2v-2z" />
<glyph unicode="&#xa4;" horiz-adv-x="1243" d="M1194 1192q0 -16 -150 -184q41 -127 41 -298t-59 -270q102 -72 193 -235q-96 -16 -203 -119q-35 -35 -47 -35q-35 0 -99 101q-76 94 -77 94l-107 -25l-39 6l-125 -10q-18 0 -51 12.5t-52.5 12.5t-44 -36t-51 -87t-55.5 -72q-10 10 -35 21q-61 25 -61 49q0 10 2 12 q-59 49 -115 88q-2 23 -18 39q2 2 2 9t10 7q-2 4 -8 4q-12 0 -12 9q25 14 69.5 54t73.5 56q-35 178 -35 307t11 236l14 63q-2 12 -21.5 30t-25.5 27t-13.5 32.5t-10.5 33t-12 17.5t-22.5 16t-19.5 14q4 4 4 7.5t-7 11.5t-7 16q23 20 63 64q92 90 152 123q37 -43 111.5 -112 t103.5 -99q10 2 33 2h36q117 0 160 -13q63 -20 76.5 -20t52.5 47q143 168 191 203q49 -76 196 -168l2 -6q0 -6 -20 -27q6 -4 6 -8zM244 127l-6 -16q0 -4 10 -4.5t33 38.5q72 125 122 146q8 0 14.5 -8.5t12.5 -8.5q78 -27 180.5 -26.5t192.5 20.5q27 -25 35 -53 q31 -18 82 -59t71 -56q29 14 73 54.5t69 54.5q6 0 6 -4l-2 -4q0 -2 4 -2t12 4t18.5 10t16.5 8q-23 16 -80 84t-66.5 79t-29 22.5t-27.5 21.5t-8 35.5t41 94.5t41 91v27q0 199 -25 291q-23 12 -24 43q12 18 43 67q61 104 106 133q-25 33 -87 85.5t-79 68.5 q-47 -37 -115.5 -124t-99.5 -116q-133 39 -215 39t-110 -14q-18 18 -97.5 94t-119.5 121q-57 -41 -177 -160q96 -109 115 -131q-2 -2 -2 -14t21.5 -26.5t21.5 -24.5q0 -31 -22 -90q-31 -72 -31 -145t6 -147.5t19.5 -127t13.5 -82t-14.5 -55t-31 -38t-45 -31t-38.5 -26.5 q20 -35 86 -77t86 -62zM465 934l199 14q27 0 94 -16.5t80 -28.5q53 -39 53 -121t-49 -202q0 -12 -16.5 -42t-26.5 -51q-20 -37 -43 -41q-45 -16 -117 -16q-145 0 -212 49t-67 166q1 199 105 289zM856 786q0 133 -246 134q-61 0 -143 -15q-72 -68 -72 -315q0 -80 66.5 -107.5 t156 -27.5t121 20.5t48 56t24.5 75.5t26.5 95t18.5 84z" />
<glyph unicode="&#xa5;" horiz-adv-x="1085" d="M948 547l8 -23h-4q2 -2 2 -8t2 -8l-4 -2q-33 10 -63 10l-43 -2l-27 -2l-10 -2q-2 2 -59 2q-4 -4 -9 -4l-2 2q0 2 -4 2v-4h-78l-43 -94l41 2l58 -2q25 0 26 2l179 2l18 4l16 -12l-2 -11v-2l-2 -18v-119q0 -4 4 -8v-4q-10 -23 -30 -23l-52 4q-20 0 -24 -2l-49 -2l-35 -2 l-17 -2h-4l-2 2q0 2 -4 2v-4h-80l-120 -2h-3q-25 -66 -51 -145q-12 -12 -18 -39t-12 -35q-14 8 -16.5 8t-4.5 -8l-96 8l-6 -6h-174q-2 0 -2 4l4 12q0 2 -6 7q12 0 42.5 86t36.5 100l-104 2l-49 6l-23 14h2l-2 21q0 2 2 4l2 45v62q0 29 3 30.5t3 3.5l-6 4l21 5l53 -2l57 4 q2 2 19 2l90 -2l2 -4v4h4l25 59q4 6 7 16.5t7 14.5l-18 2h-222l-26 4q-2 2 -12.5 3t-10.5 11l2 21h-2l2 6q-2 0 -2 14t2 29l2 35q-2 4 -2 29.5t8 31.5h-4l-2 6h2q2 2 19 2l53 -2l57 4q2 2 19 2l90 -2l2 -4v4l123 2q-6 14 -15.5 47t-17.5 50l-14 43q-29 59 -77 201.5 t-93 217.5q-31 70 -37 160l78 -4q70 6 147 6h23q59 0 59 -14q2 -39 20.5 -75t32.5 -107l9 -9q-2 -2 -2 -6q18 -37 37.5 -96t23.5 -70q20 35 53 116t58 120q4 12 16 37q27 49 27 78q4 8 17 14t17 12q0 -6 11 -10q39 2 112 4q94 2 115 6l20 4l7 -2q-20 -86 -75.5 -221 t-70.5 -180q-25 -55 -78 -159.5t-80 -158.5l173 3l20 4q6 0 10 -5.5t2 -16.5t-2 -30l2 -39v-45zM936 526q-6 6 -6 43v88q0 4 -1 13.5t-1 15.5q-2 -2 -4 -2l-209 -2q23 57 90 186l78 158q8 23 43 111q94 229 94 237t-4 19v4q-41 -6 -117 -6t-106 -2q-16 0 -44 -57.5t-72 -162 t-81 -172.5l-37 78q-53 111 -53 124v17.5t-24.5 70t-32.5 112.5q-4 2 -83 -1t-112 -3h-25q-14 0 -45 -6q8 -20 10.5 -33t4.5 -17h-2l12 -36l14 -35q39 -66 85 -206t89 -224l13 -37q6 -10 20 -58h-2l21 -65l-152 -2q-49 6 -137 6t-88 -43l6 -80v-31q0 -8 8 -8h2l-2 2h20 q2 -2 78 -2t80 2h25q25 0 28 -2h56l-39 -90l-25 -41h-39q-98 0 -194 -8v-33q0 -4 2 -4l-4 -106l12 -5l20 3q2 -2 46 -3l106 -2q-25 -55 -42 -126.5t-26 -77.5l138 -4l6 4q88 -8 102 -9l84 222q98 -4 151.5 -4t114 5t93 10t40 5t11.5 -4v119q0 4 -1 13t-1 15q-2 -2 -10 -4 l-336 -2l63 135q4 2 31 2h37l213 -8q18 0 18 2q-4 4 -8 2zM780 682h-16l2 -2q12 0 14 2zM766 395l2 -2l10 2h-12zM74 233v3v-3z" />
<glyph unicode="&#xa6;" horiz-adv-x="301" />
<glyph unicode="&#xa7;" horiz-adv-x="1775" />
<glyph unicode="&#xa8;" horiz-adv-x="714" d="M330 1298v-30l-4 -33l-2 -74v-24l-2 -15l2 -14q-2 -2 -2 -45h-5v-8l-14 -6q-4 10 -22 10h-2l-23 -4h-18q-12 -4 -42 -4t-53 6l-8 -2q-23 2 -49 2h-6v4q-8 6 -8 8v31q-2 2 -2 35l-2 47l4 37q6 20 12 63q-8 2 -8 10l6 8l14 5q8 8 37 8l111 -8l59 2q19 -1 27 -9zM307 1163 v23q-2 33 -2 63v6q0 8 -4 13l-37 -2l-41 6h-26v2q-4 0 -11 -2v2q-70 0 -73 2l-13 -2q-2 -2 -2 -25v-149q2 -2 2 -10q0 -12 25 -13l51 2q33 4 72 4l55 9q2 2 2 22zM678 1298v-30l-4 -33l-2 -74v-24l-2 -15l2 -14q-2 -2 -2 -45h-4v-8l-15 -6q-4 10 -22 10h-2l-23 -4h-18 q-12 -4 -42 -4t-52 6l-9 -2q-23 2 -49 2h-6v4q-8 6 -8 8v31q-2 2 -2 35l-2 47l4 37q6 20 12 63q-8 2 -8 10l6 8l14 5q8 8 37 8l111 -8l59 2q19 -1 27 -9zM655 1163v23q-2 33 -2 63v6q0 8 -4 13l-37 -2l-41 6h-26v2q-4 0 -10 -2v2q-70 0 -74 2l-12 -2q-2 -2 -3 -25v-149 q2 -2 3 -10q0 -12 24 -13l51 2q33 4 72 4l55 9q2 2 2 22z" />
<glyph unicode="&#xa9;" horiz-adv-x="1132" d="M1073 836v-25q0 -16 -6 -41v-43q0 -12 2 -14q-16 -172 -25 -211q-57 -170 -196 -223q-104 -41 -234 -46h-100q-31 -8 -115 -8q-102 18 -180 75.5t-110 127.5q-29 84 -30 151.5t-7 110.5v94l4 17v82q16 150 86 219q104 135 368 135l195 -6q88 -18 174 -65.5t111 -96.5 q63 -86 63 -233zM1032 838l2 47q0 49 -18 82q-33 61 -98 137q-96 59 -197 84q-31 6 -35 10h-156q-106 0 -198 -30.5t-139 -90.5q-59 -59 -76 -203v-79q-4 -12 -4 -19v-86l8 -57v-25q0 -94 22 -166v4q29 -57 101.5 -106t165.5 -74q72 0 98 8h104q27 4 72 9q94 8 132 22t73 37 q86 86 119 168l-4 -2q10 47 24 211v82q4 21 4 37zM541 1124l69 2q23 0 25 -2h41q2 -2 12 -2q172 -45 221 -116v2q49 -63 49 -228l-10 -61q0 -201 -76 -281q-49 -51 -90 -63.5t-57 -14.5q-45 -10 -82 -10h-125l-104 -2q-221 31 -221 273v8l-7 76v67l7 92v19q0 109 81.5 176 t225.5 67zM418 401l186 2q12 2 46 5.5t56.5 7.5t57.5 15t51 27.5t37.5 48.5t30.5 77q23 125 22 264q0 80 -41 129q-18 33 -78.5 64.5t-115.5 31.5l-111 4q-14 -2 -59 -2q-166 0 -213 -80q-39 -33 -41 -87t-6 -70l-4 -125q4 -27 7 -76t8 -81t19 -69q29 -70 148 -86zM666 776 l-50 2q-14 4 -18 58.5t-49 54.5q-16 0 -39 -17l-8 -12q-8 -66 -8 -147v-45q0 -104 57 -105q47 0 55 53q4 35 4 54q2 -2 35 -1t62 1q14 0 14 -37l2 -31q2 -4 2 -25.5t-16.5 -59.5t-18.5 -56q-2 -31 -117 -31q-131 0 -163 31q-14 12 -21 20q-14 18 -14 74l2 113l4 131 q0 18 -2 28l-2 58q10 47 18 68.5t39 42t84 20.5h53q59 0 103.5 -47t52.5 -109l-6 -63q0 -16 2 -19q-16 -4 -57 -4zM635 643q-4 0 -10 2q0 -39 -19.5 -72.5t-53.5 -33.5t-52.5 31.5t-18.5 55t4 44.5v69l-2 11l-2 41q0 39 4 61t22.5 41.5t53.5 19.5q53 -18 53 -122h88l7 4 l2 36q0 72 -49.5 121t-124.5 49q-25 0 -60 -13t-39 -13l-12 -8q-23 -18 -26 -68.5t-5 -56.5l-2 -39q-4 -45 -4 -66l2 -26l4 -109l-4 -24q0 -68 54.5 -98.5t106.5 -30.5t93 23.5t53 64.5h-4q12 61 13 67q0 43 -31 43z" />
<glyph unicode="&#xaa;" horiz-adv-x="565" d="M487 1014l2 -56q0 -8 -10 -18q-10 4 -60 4t-87 -4q-8 6 -8 19.5t4 25.5q-10 -4 -45 -24.5t-64 -20.5q-96 0 -138 76t-42 194q0 66 7 99.5t7 36.5q2 2 17 40q92 100 145 101l10 2q84 -4 107 -31v25q0 8 2 10q39 -6 92 -6t53 1t5 1t5 -16l-6 -199v-129q0 -119 4 -131z M479 1274l-4 86l8 94q0 16 -8 19l-2 -3v-6q0 -2 -8 -2t-19 6q-16 -10 -35.5 -10t-54.5 10q-6 -4 -9 -17t-5 -17q-6 2 -22.5 16t-26.5 14l2 4q0 6 -47 7q-96 0 -142.5 -66t-46.5 -172q0 -268 142 -268q68 0 84 16q0 -2 4 -2l45 35q4 -4 4 -10l-4 -39q0 -10 18 -11l92 3h35 q-4 27 -4 108zM287.5 1098.5q-21.5 -11.5 -43 -11.5t-55 36t-33.5 82t14 90t41 51q20 8 52 10t46 4q37 -16 37 -78q0 -102 -29 -176v6q-8 -2 -29.5 -13.5zM328 1247v15q0 74 -68 73q-37 0 -58.5 -24.5t-21.5 -79.5t18.5 -89t69.5 -44q43 41 56 135q4 4 4 14z" />
<glyph unicode="&#xab;" horiz-adv-x="1193" d="M719 139q-8 0 -8 6v2l-21 -18q-2 0 -14 -12l-53 -56q-25 -10 -35 -38v4l-23 -29l-28 -16q-25 25 -42.5 44t-27.5 29l-117 111v-2l-190 184h-6l-33 37l-31 29q-29 27 -43 43l-43 51q-4 8 -4 10l-10 23l24 28l33 29q39 53 96 102l117 123v-2l6 6h-2l88 91q23 16 33 32 l57 58l25 30l49 49l49 -14q0 2 -4 2t-6 2l14 -16l72 -70q0 -12 27 -20l6 -10q14 0 45 -54q-25 -25 -33 -24h-2l-45 -54l-4 -2q-8 -8 -13.5 -12t-7.5 -6l-34 -39h2l-45 -49l-70 -68h2l-63 -67q-12 -14 -27 -27l2 4l-14 -16l4 2v-35l18 -18q23 -14 70 -62q82 -78 94 -90 l27 -27l14 -16l24 -16q16 -23 17 -27l12 -8q0 -10 23.5 -25.5t48.5 -23.5v-62zM694 164v16h-4q-18 8 -51 41l-35 35l-6 8q0 2 -2 4v-2l-16 13q-4 4 -45 49q-92 106 -158 147l-55 55l8 7v4l35 39q12 8 20 20l-2 2l135 135l-2 2l47 47h-2q2 2 4 2l33 37q2 0 12 11l17 16l-2 2 q61 55 63 55l2 2v-2l4 6l-28 21q-37 25 -58.5 51.5t-25.5 30.5l-41 43v4h-19l-12 -16l4 -2q-18 -18 -65 -64l-37 -39q-16 -18 -52 -49l-6 -10l-71 -74q-39 -33 -60 -63l-65 -68l2 -2h-4l-31 -27v2q-12 -12 -31 -37l-31 -34q-4 -2 -8 -7.5t-8 -7.5h-2l-20 -22v2l-7 -10 q2 -8 9 -15q-2 -2 -2 -6l14 -14q61 -70 96 -96l31 -37l4 2l59 -58q63 -63 138 -131l47 -45l2 2q2 -2 2 -4v-2q0 -4 4 -4l33 -27q0 -4 10 -14l2 2q2 -2 2 -4l12 -12l2 2l60 -56q-4 -4 -4 -7t2 -3l-2 -2l4 -2q4 12 12 14l57 64l2 -2l56 61zM1176 139q-8 0 -9 6v2l-20 -18 q-2 0 -14 -12l-54 -56q-25 -10 -35 -38v4l-22 -29l-29 -16q-25 25 -42 44t-27 29l-117 111v-2l-191 184h-6l-32 37l-29 29q-31 27 -45 43l-43 51q-4 8 -4 10l-11 23l25 28l33 29q39 53 96 102l117 123v-2l6 6h-2l88 91q23 16 33 32l57 58l25 30l49 49l49 -14q0 2 -4 2t-6 2 l14 -16l72 -70q0 -12 26 -20l6 -10q14 0 46 -54q-25 -25 -33 -24h-2l-45 -54l-4 -2q-8 -8 -13.5 -12t-7.5 -6l-35 -39h2l-45 -49l-69 -68h2l-64 -67q-12 -14 -26 -27l2 4l-15 -16l4 2v-35l19 -18q23 -14 69 -62q82 -78 93 -90q14 -12 28 -27l15 -16l24 -16q16 -23 17 -27 l12 -8q0 -10 23.5 -25.5t48.5 -23.5v-62zM1151 164v16h-4q-18 8 -51 41l-35 35l-6 8q0 2 -2 4v-2l-17 13q-4 4 -45 49q-92 106 -157 147l-56 55l8 7v4l35 39q12 8 21 20l-2 2l135 135l-2 2l47 47h-2q2 2 4 2l33 37q2 0 12 11l16 16l-2 2q61 55 64 55l2 2v-2l4 6l-29 21 q-37 25 -58.5 51.5t-25.5 30.5l-41 43v4h-18l-12 -16l4 -2q-20 -18 -66 -64l-37 -39q-16 -18 -51 -49l-6 -10l-72 -74q-39 -33 -59 -63l-66 -68l2 -2h-4l-30 -27v2q-12 -12 -31 -37l-31 -34q-4 -2 -8 -7.5t-8 -7.5h-2l-21 -22v2l-6 -10q4 -8 8 -15q-2 -2 -2 -6l15 -14 q61 -70 96 -96l31 -37l4 2l59 -58q63 -63 137 -131l47 -45l2 2q2 -2 2 -4v-2q0 -4 5 -4l32 -27q0 -4 11 -14l2 2q2 -2 2 -4l12 -12l2 2l59 -56q-4 -4 -4 -7t2 -3l-2 -2l4 -2q4 12 13 14l57 64l2 -2l55 61z" />
<glyph unicode="&#xac;" horiz-adv-x="964" d="M768 770q0 6 2 23l-2 2l2 6q0 2 -2 4v39h-184.5t-81.5 2l-51 -2h-21l-127 4l-41 -2l-223 2q-8 0 -14 6l2 10l-2 4q2 0 2 6l2 58q2 2 2 6v16l6 2q-6 0 -6 5h100l25 2l98 -2l25 2q4 2 36 2h136l41 -2l18 2h356q4 0 8 4v-4l11 -4q-4 0 -6 -7v-143l-2 -16l8 -275q0 -2 4 -6 l-4 -2q-2 0 -4 -2q0 2 -4 2h-103q0 2 4 2l-4 33zM864 958l-82 -6h-311q-2 2 -18 2l-322 -4l-22 -2q-2 -2 -33 -2h-37l-2 -22l2 -45v-15q0 -8 12 -8l201 4l41 -2h131l6 2h10q6 0 11 -2q2 2 8 2l321 -2l2 -39v-4q0 -4 -2 -4l2 -250l6 -41l56 10q10 -2 14 -2l16 2z" />
<glyph unicode="&#xad;" horiz-adv-x="755" d="M672 547q2 -6 2 -10v-23q0 -2 4 -2v-2l-2 -10q-4 0 -4 6l-64 -2h-8l-156 -2l-30 2h-6l-37 -2h-15l-90 4l-28 -2l-158 2q-6 0 -10 6l2 10l-2 4q2 0 2 4v58q2 0 2 4v16q2 0 4 2q-4 0 -4 4h65q2 2 19 2l73 -2q37 4 43 4h97l28 -2l15 2h245q8 0 13 5l4 -9q-2 -2 -2 -6z M229 518l31 -2l25 -2h51l2 4h18q4 -2 9 -2h6q2 2 6 2l227 -4l29 2l-2 2q8 0 8 6v27h2q-2 2 -2 4l2 35q0 4 -2 4v4q0 4 1 6t1 4q-2 -2 -14 -2h-242q-2 2 -12 2l-11 -2q-2 2 -4 2h-108l-27 -2v-2q-2 2 -4 2l-90 -4h-16q-18 0 -19 -33v-34q0 -16 8 -17h127z" />
<glyph unicode="&#xae;" horiz-adv-x="1132" d="M1073 836v-25q0 -16 -6 -41v-43q0 -12 2 -14q-16 -172 -25 -211q-57 -170 -196 -223q-104 -41 -234 -46h-100q-31 -8 -115 -8q-102 18 -180 75.5t-110 127.5q-29 84 -30 151.5t-7 110.5v94l4 17v82q16 150 86 219q104 135 368 135h179q0 -4 -4 -4q2 -2 20 -2 q96 -18 173 -62.5t112 -99.5q63 -86 63 -233zM113 690l8 -57v-25q0 -94 22 -166v4q29 -57 101.5 -106t165.5 -74q72 0 98 8h104q27 4 72 9q94 8 132 22t73 37q86 86 119 168l-4 -2q10 43 24 205v88l4 16v21q0 133 -53 206l14 -30q-53 106 -268 176q-31 0 -39 8h-156 q-106 0 -198 -30.5t-139 -90.5q-59 -59 -76 -203v-79q-4 -12 -4 -19v-86zM578 1124l34 4q2 0 23 -4h41q2 -2 12 -2q172 -45 221 -116v2q49 -63 49 -228l-10 -61q0 -201 -76 -281q-49 -51 -90 -63.5t-57 -14.5q-45 -10 -82 -10h-125l-104 -2q-221 31 -221 273v8l-7 76v67 l7 92v19q0 109 81.5 176t225.5 67l75 -4h23zM418 401l186 2q12 2 46 5.5t56.5 7.5t57.5 15t51 27.5t37.5 48.5t30.5 77q23 125 22 264q0 80 -41 129q-18 33 -78.5 64.5t-94.5 31.5t-44 1t-46 2t-42 1l-31 -2h-28q-166 0 -213 -80q-39 -33 -41 -87t-6 -70l-4 -125 q4 -27 7 -76t8 -81t19 -69q29 -70 148 -86zM762 442l-90 -4h-15q-35 0 -34 15q0 4 2 4h6q-4 4 -19 28l-16 33q-18 31 -29 64l-51 73v-41q0 -106 6 -153l-2 -2l8 -8l-86 -11h-63v9l2 28l-2 33q2 0 2 -2v33q4 66 4 152.5t-8 162.5q0 76 2 164l20 4h9l57 6q10 -2 33 -2h77 q55 0 132 -43h-2q29 -27 47 -80q2 -14 2 -41q0 -111 -62 -151q-12 -6 -35.5 -10.5t-33.5 -8.5q4 -6 30 -51l35 -49q6 -10 22.5 -30.5t22.5 -31.5q20 -37 31 -92zM424 449l45 -3q10 0 18.5 4.5t16.5 6.5v205q0 10 2 21t2 13q2 -2 2 -8v-2q4 0 11 -10t9 -12l-2 -2 q45 -70 72 -125q8 -10 18 -37q18 -53 66 -54q16 0 49 5l-2 4h4l15 -4q4 0 4 3t-4 3h-2q0 2 2 4q-14 27 -15 31v2q0 8 -15 31.5t-20 33.5q-35 61 -59 90l10 -14q-6 8 -20 22q-27 31 -31 50q0 -2 2 -2q43 0 78 49h4q53 74 53 123v8h-4v6q0 18 -9 31.5t-40 38t-47 35 t-26.5 15.5t-25 7t-20.5 2h-49l-108 -4l-7 -2l2 -53q-4 -111 -4 -166l9 -138v-18l-5 -78l9 -57q-4 -16 -4 -33h-2l-5 4l2 -20zM494 801q0 82 -5 110h56q74 0 73 -51q0 -2 -2 -4v-10q0 -25 -32 -41q-12 -6 -13 -8q-20 4 -28 4h-49zM512 805l41 2h12l4 2l2 -2q14 0 27.5 12 t13.5 31q0 55 -73 55q-31 0 -37 -2v-80q0 -18 10 -18z" />
<glyph unicode="&#xb0;" horiz-adv-x="610" d="M549 1081l2 -14q-10 -115 -31.5 -148.5t-44.5 -54.5q-43 -27 -66.5 -31t-49 -6t-37.5 -4h-52q-2 -2 -28 -2h-29q-74 16 -123 64q-31 33 -43 170v47q2 2 2 14v35q27 180 230 180h90l-2 -2q4 -4 67.5 -26.5t91 -60.5t27.5 -90t-4 -56v-15zM360 1311h-81q-184 0 -209 -162 v-35q0 -14 -2 -16v-43q0 -78 16 -123q31 -66 133 -90h27q23 0 24 2h51q12 2 37 4q68 10 105 31q47 45 59 86l-2 -2q12 70 12 100v47q2 2 2 16v17q0 53 -26 90l6 -14q-14 29 -73 60.5t-79 31.5zM211 1219q31 12 59.5 11t32.5 -1h8l-6 2h39q2 -2 4 -2q68 -12 90 -49 q16 -23 16.5 -105t-36.5 -119l-2 -6q-39 -27 -86 -26h-49l-41 -2q-57 8 -74 47q-18 41 -19 94v27q1 104 64 129zM311 1210h-14q-72 0 -100.5 -22.5t-28.5 -95.5v-25q0 -90 33 -109q35 -18 101.5 -18t99 35t32.5 147q0 33 -14 49q-8 20 -43 29q-47 10 -49 8q-3 2 -17 2z" />
<glyph unicode="&#xb1;" horiz-adv-x="1026" d="M682 1094l39 2q20 -4 31 -4l114 -2q10 0 28.5 -1.5t27.5 -1.5q-2 -2 -2 -14h-5q2 -6 5 -20q-2 -2 -2 -23h2q-2 -2 -2 -18v-2q0 -2 2 -4l-2 -2h2v-43q0 -41 2 -56.5t0 -17.5l-2 -43q0 -2 -2 -4l-5 -29q0 -4 9 -8q0 -12 -56 -12v-3q-2 0 -4 3h-10l-12 -3v-4l-29 -2 q-2 2 -4 2l-113 -4l-14 -2l-8 -2q0 -4 4 -18h-2l-2 -23h-2q-2 -2 -2 -16v-66q-2 -2 -2 -18l-2 -45h-5v-25q0 -39 -12 -45l-29 -4q-2 -2 -20 -2t-141 6l-45 -2h-21l-22 4q-18 0 -19 17l-4 10l2 10v47l-4 76l-2 94l-29 4q-18 0 -41 -2h-2l-26 4l-84 4l-37 -2q-4 6 -14 17l2 69 q0 51 -7 78v86h-2l-2 29q6 10 13 10v2q4 2 10 2h12q20 0 37 -2q6 2 10 2t4 -2q35 6 44.5 4t13.5 0l63 2l51 11v22l13 209q0 4 12 31h6q14 -14 21.5 -14.5t9.5 1.5l29 7l30 2l76 -2l27 2q12 0 49 -4h26v-5l17 -12v-4l-2 -39q0 -8 2 -10l2 -51v-29l2 -22l2 -76q0 -2 2 -4z M1001 170q0 -59 -4 -96h2v-6q0 -25 -2 -56l-4 13l-127 -11h-4q0 2 -4 2l-4 -2q-6 2 -16 2l-54 -2q0 -2 -7 -2t-9 2v-4l-88 -2h-127q-86 0 -127 -2q-14 -6 -39 -6l-29 -2q-14 -2 -39 -2h-34q-31 0 -33 2q-20 -4 -29 -4h-119q-10 0 -30 4h-31q0 4 -10 12t-15 21h5v39h-5l2 2 q0 4 3 6l-5 2l5 18l2 113l-2 10q0 4 2 10l-2 7q0 10 2 16l-2 49q0 10 4 14.5t6 10.5l-8 8q6 6 81 6l105 10q23 0 22 -4l-2 -2l58 -4h86l37 4q18 6 63 6l281 2l30 4h25v-4l4 4h31l16 -4q25 8 113 8l16 -2l17 -14l-9 -43q0 -90 7 -133h-5zM881 971l-2 65l2 6h2q4 4 4 9l-15 2 l-12 -4q-104 2 -166 2h-39q0 6 -2 8v18q-2 2 -10 2v127q-2 2 -2 4l4 25l-4 41h2v10l-2 21h-4q0 12 -35 16l-16 -4h-8l-17 2h-53l-80 -2q-20 -6 -26.5 -15.5t-6.5 -27.5v-21q0 -2 -2 -4q2 -16 2 -51v-26h2v-115h-6v-4l-20 4l-2 -2q-12 0 -15 -2l-137 -21q-14 2 -37 2h-37 l-2 -37l-4 -90q0 -2 2 -4l-4 -4q0 -76 23 -80h24q20 -4 31 -4l76 -6l67 6q12 0 43 -6l2 -25q-2 -4 -2 -6v-2l-2 -190q2 -6 2 -25q4 -4 19.5 -3t19.5 1l11 -4q63 0 65 -2l94 4l2 2l2 31q16 233 29 233l4 -4l14 2h50l161 -2q4 20 4 27l5 51v2q2 4 2 6l-2 25v22zM926 100l-2 31 v8q0 2 2 2v144q2 6 2 18t-2 14q-16 -4 -19 -4h-196q-4 2 -33 2l-109 -4l-32 -2l-66 4q-2 0 -8 -2h-4l-4 -2h-2q-2 0 -2 1t-6.5 0t-10.5 -1h-76l-55 -4l-41 -4h-76v-4l-41 -2q-74 0 -73 -35v-22q0 -182 20 -183l101 -2h43q18 -2 66 -2t97.5 5t55.5 5l4 2l37 -2l69 5l27 -3 q12 0 14 3v2q2 0 4 2v-4l39 4q2 -2 18.5 -2t30.5 2l133 -9l11 5h55l2 4v-4l14 4q-2 2 -2 4t7.5 9t7.5 17z" />
<glyph unicode="&#xb2;" horiz-adv-x="540" d="M324 954l-35 -20h-8l-15 -10l2 -2q-6 -2 -12 -9h-2q-6 -6 -8 -6l-8 -10l-23 -43l10 -20h78q4 2 12.5 2t8.5 -2l24 2h10q20 0 27 -2h35q18 0 26 2l5 -11q-2 -2 -2 -16l2 -57l-2 -2h2q-2 -4 -2 -7.5t2 -13.5l-2 -12v-4q-2 -2 -5 -2q2 0 2 -2h-2q-2 2 -6 2h-4l-12 -2 q-6 2 -10 2v-2h-105v-2l-39 -2l-8 -3l-18 5h-21l-39 -2h-55q-2 -2 -8 -2.5t-8 2.5l-25 2l-6 2h-4q0 2 -2 4v4q-4 4 -6 4q2 0 2 12v25q0 12 2 18l-2 15q0 6 2 6l-2 10l2 24l2 9l12 73l2 2h2q6 16 21.5 32t19.5 16l4 4q8 0 25 16l2 4l6 2l55 37l6 2l7 4l2 2l24 10l23 17l2 2 l14 18q6 6 12 19l6 20l3 23q-10 29 -13 28l-2 5v2l-10 6l-8 4l-19 6h-10l-12 -4l-27 -27l-2 -4v-2q-2 -2 -4 -10l-4 -27v-26h-2q0 -12 -8 -12.5t-17 1.5q-4 -2 -6 -2h-28q-2 -2 -15 -2l-2 2v-2l-12 2v-2q-2 0 -2 2l-25 -2l-2 -2q-20 0 -20 8l2 17v39l-2 14q0 4 2 23v6 q0 16 8 37v8q6 8 6 14t6 21.5t10 15.5l7 8h2l2 4h4q0 4 9 10.5t11 9.5t11 3v2l63 16h12l35 4h21l18 2l55 -8q20 -10 31 -10v-2q4 0 15.5 -7t13.5 -12h2q16 -16 16 -20l4 -8l13 -33v-8l6 -47l2 -15l2 -6v-12q2 -6 2 -18l-6 -50l-11 -41l-14 -22l-2 -4l-4 -4q-4 -8 -12 -17v2 l-27 -22l-6 -2h-2q-23 -14 -49 -19h-4zM279 946q27 12 32 15h2l56 26l24 17q0 2 2 4h4l17 20l2 2v4l4 2l2 8l4 3l2 4l6 24q2 4 2 8l4 4v9l4 20v31l-2 18v9l-2 10q-8 18 -8 47q-10 10 -10 26l-2 7v2q-8 20 -12 20v2q-2 0 -2 2v2q-4 0 -9 4q0 8 -43 23l-26 4q-8 2 -13 2h-2 q-16 4 -45 4l-12 -2q-20 0 -57 -12l-31 -6q-10 0 -23 -13l-2 -4l-8 -2l-24 -20l-7 -21q-4 -4 -6 -14l-8 -43l-2 -31l-2 -8q0 -2 2 -6l-4 -14q2 0 2 -3h-2q2 -2 2 -10h-2v-10q0 -14 6 -14h6v-4q0 2 8 2l7 -2h39l22 4v-2l6 2q6 0 8 2l-2 2h7l4 10v2l-2 18l2 5q0 10 4 22l8 21 l6 12l8 6q6 10 8 10h2l21 8l14 3v2h6q6 0 41 -17l15 -16l4 -4l2 -33l2 -4l2 -23v-14q-4 -23 -18 -41v-2l-23 -16l-12 -7v-2h-2q-4 0 -4 -4l-2 -2h-5q-16 -16 -47 -26l-8 -7l-6 -2l-2 -4h-4l-23 -14q-2 0 -8 -6l-20 -12l-4 -2l-31 -27l-15 -19v-2q-8 -6 -8 -12v-4l-6 -23 q0 -4 2 -10l-6 -47q0 -10 2 -12l-2 -29l-2 -33v-8q0 -10 10 -10h15q4 0 6 -2l-2 -2h4v4l4 -4l39 2q10 0 13 1t7 0t4 1h64q4 0 14 2h39q8 0 10 2l19 -2h86l6 2l4 -2v2q10 0 12 3t2 16l-4 61q4 4 0 10h-6q-10 2 -39 2l-20 2l-25 -2h-24v2l-11 -2h-67l-35 2q-6 0 -10 4l2 39 l2 8h2l-2 -4v4q0 2 1 2.5t1 2.5l12 18q0 6 7 12t7 11l3 2l12 6l4 4l22 10v4h5zM231 895h2q2 2 3 4z" />
<glyph unicode="&#xb3;" horiz-adv-x="520" d="M399 1298q0 -8 13 -16v-2l4 -2l6 -6l10 -21l8 -22v-2q4 -16 4 -21l5 -59v-8h-3v-15q4 -4 5 -12l-5 -22l3 -3q-2 -2 -3 -6l3 -28v-27l-3 -27l3 -4v-34l-5 -27q2 -10 2 -15.5t-2 -7.5v-39l-6 -36q2 -2 2 -5h-2q0 -10 -2 -12l4 -12h-4q0 -2 -8 -21v-6q0 -6 -2 -8l-14 -20v-4 q-2 0 -4 -3l-15 -16q0 -4 -15.5 -12t-17.5 -8t0 2l-6 -4h-2l-30 -7q-53 -12 -67.5 -12h-16.5v2l-5 -2l-26 4l-8 2l-62 11q-6 2 -12 2l-23 16l-2 6l-2 -2q-6 -4 -20 37l-15 57h3v70l2 -2h38l25 4q25 6 31 6l20 -2l13 -12l14 -29h2q0 -2 2 -2h2q0 -6 10 -6l2 -4h4q0 -6 27 -6 l25 8l4 2l8 2q2 2 2 4h4l8 23v18q-12 37 -14 37l-12 8q0 8 -9 8v2l-24 4h-45q-4 -2 -6 -2l-9 2v-4q-8 8 -8 13v2q2 4 2 8v108q2 2 4 2h41l4 -2l9 2l30 2q35 18 35 25v14q2 4 2 9l-2 26l-4 15h-2q-6 6 -6 8l-19 6h-4q-49 0 -55 -8.5t-10 -18.5v-2l-8 -4l-2 -6 q-10 -16 -13 -16l-47 2l-53 -2q-14 0 -18 2l-5 -2v24q-4 12 -4 19l4 43h2q6 23 15 30l14 25q18 10 23 20h4q8 8 12 9h2q4 4 8 4v2q8 0 29 10v2q2 0 51 8h33q16 2 31 2l22 -2l33 -2l27 -12h6v-4l16 -8q6 0 6 -5h4zM408 807l6 20l2 13v14l12 72v209l2 14v55l-2 4l-10 33l-4 25 q-2 0 -4 2v4q-8 8 -11 12l-20 12l-27 7l-35 12l-47 2h-4l-63 -6q-10 0 -13 -2h-12l-22 -6q-4 0 -19 -9l-16 -16h-4q-23 -23 -23 -25h-2q-12 -12 -10 -12v-2q0 -2 -5 -11t-9 -20l-2 -28v-2q0 -31 5 -30t7 1h2l80 8l12 2l4 4q2 -2 6 -2q6 27 18.5 36t18.5 10t12 1h9v2q2 0 6 2 q12 -4 14 -4l21 -2q16 -6 20 -10h2q8 -2 10 -14h2l7 -25h2q-2 0 -2 -2v-4l4 -31q0 -4 -2 -6l-5 -18q-2 -14 -16 -15v-2q-6 -2 -18 -8h-13q-2 -2 -6 -2l-20 -2v-2v2q-6 0 -8 -2l-5 2l-20 -2q-2 2 -14 2v-2q-2 -4 -2 -18l6 -72l12 -2l49 -4l31 -6q4 0 8 -5q6 -8 10 -8v-2 q4 -4 4 -6l7 -74v-6l-11 -18l-39 -33q-2 0 -2 2v-4l-6 -2h-35l-20 10q0 4 -4 4h-2l-12 15l-5 12h-4v6q0 4 -4 20l-55 3l-6 -3l-37 -2l-2 -4q0 -2 -2 -8l-2 -20h2l-2 -4l2 -13q0 -8 10 -43v-8l10 -14q16 -6 17 -19l32 -16q16 -8 25 -8l12 -4q2 0 2 -2l29 -2q12 0 14 -2h17 q20 4 45 4q16 8 35 8l18 6q6 0 27 12h2q0 6 6 6l16 23l2 2q11 21 11 41z" />
<glyph unicode="&#xb4;" horiz-adv-x="522" d="M467 1335q6 2 9 2t32 -24l20 6l-2 -23q0 -6 -6 -12l15 -12q-16 -20 -23.5 -20.5t-9.5 1.5q-33 -25 -84 -77q-57 -59 -84 -82q-8 0 -14.5 -15.5t-12.5 -15.5h-74q-43 0 -102 2l-4 -4l2 -2h-12q-2 2 -7.5 2t-7.5 2l-41 12l-8 -2l-18 23l-23 2l51 49q66 61 136 141l51 47 l-2 2l8 4q0 4 2 5l25 16l49 47q16 23 45 45l43 -53h-2q10 -6 10 -17l-2 -12zM184 1100l52 -6l28 4l23 -2l10 6q0 2 2 4l29 33q12 12 22 12q59 70 90 94.5t41 34.5l-22 23q-8 8 -33 28q-47 39 -57 62l-7 4q-10 -12 -22 -23l-49 -47l2 -4l-29 -20v2l-41 -37q-55 -66 -87 -95.5 t-50 -48.5l-18 -18l26 -6q4 -4 8 -4l43 2q16 2 39 2z" />
<glyph unicode="&#xb5;" horiz-adv-x="937" d="M664 1020l108 -10q10 0 76 26v-581q0 -444 -10 -445q-4 0 -13 2h-57l-176 -10q-33 0 -33 23q0 4 14 47q-35 -57 -145 -58h-22l-41 2q-4 -33 -5 -51v-57l2 -164v-35q0 -29 -2 -35q-4 2 -13 2t-22.5 -8t-40 -8t-83.5 8l-115 -16q-25 0 -31 12t-7 34.5t-9 35.5q0 2 7 22.5 t7 38.5l-2 94q0 45 8.5 107.5t12.5 114t4 288.5q-12 383 -17 432q-14 94 -14 105l25 106q8 -8 26 -8h84q53 0 88 4t53.5 4t30.5 -18q-10 -31 -10 -68l10 -147l-2 -88v-21q0 -348 117 -348q33 0 66.5 40t50.5 48q2 18 2 56v53q0 231 -10.5 348t-12.5 115h-12q-8 0 -12 4 q0 10 22.5 13t24.5 5q16 -16 49 -16zM340 -88l-4 164q0 16 12 28l33 -51q127 8 211 88q8 -14 8 -26q-20 -59 -20 -84q0 -8 14 -8h24l183 12q10 193 12 517.5t4 440.5q-2 -2 -18 -2h-17q-74 8 -104 8q-70 0 -70 -38v-27l17 -344q0 -168 -35 -217q-37 -55 -117 -56 q-129 0 -129 144l-2 131q-2 29 -14.5 112.5t-12.5 129.5l7 178q-37 10 -50 10q-117 0 -172 -16l2 -156v-588l-6 -358l-12 -170h129q72 0 121 -10q6 92 6 188z" />
<glyph unicode="&#xb6;" horiz-adv-x="1376" d="M1094 -346l28 -16q0 -8 -11 -10.5t-11 -8.5l2 -29q0 -16 -19 -16l-73 14l-76 -16l-62 16q-10 0 -22 -6l-19 29q8 43 9 104l-15 275l13 461v41l-2 159v219l-2 310q-29 4 -39 4l-70 -2h-14q33 -184 32.5 -308t-16.5 -333t-16 -320l2 -272v-66l-15 -268q0 -18 2 -21 q-59 -23 -65 -30l-31 2l-129 -6q-18 0 -29 2q-25 6 -24 55l6 152l-2 194l4 168l-6 115l6 137l-2 55q0 41 6 168v31q0 18 -16 18l-96 -16q-39 0 -111 34t-100 79q-55 82 -56 278l2 96v84q0 166 54 220q31 31 67 34q47 4 121 15l41 12l166 -14l436 20q90 0 241.5 -8t151.5 -25 q0 -4 -8 -9t-8 -11q4 -33 4 -65.5t-8 -57.5q0 -31 8 -55q-4 0 -4 4t-2 4l6 -25q0 -2 -4 -2v8q-2 -2 -2 -10l10 -53q0 -16 -6 -16t-7 6t-3 6h-4q-29 4 -41 4h-41q-57 0 -103 -6q-2 -90 -8 -248q-14 -348 -20 -1174v-110zM459 -289l-2 -51q0 -27 8 -41q76 8 117 8l61 -4l2 119 l-4 352q0 102 14.5 309t15.5 296t3 158t3 112t2 89t2 72.5t3 49.5q4 39 14 45l123 -13q31 0 53 11q10 -16 11 -39l-27 -203q-10 -96 -10 -147.5t4 -112.5l-4 -170l2 -66v-41l-4 -258l16 -579l121 22q39 0 104 -35l-2 207q2 14 2 95l-6 524q0 422 19 715l2 39q0 2 -4 30 q43 16 80 17l94 -7q2 0 10 1.5t12 1.5q-25 72 -24 237q-86 0 -208 8t-138 8l-111 -10l-53 6l-211 -26h-16.5t-8.5 -2q2 2 2 5t-55 15l-158 -16q-25 0 -49 6q-51 -8 -76 -51q-10 -14 -25.5 -46t-25.5 -48q-51 -86 -51 -170q0 -33 18 -162l-2 -39q0 -219 222 -230l65 3 q59 0 76 -39q-6 -31 -6 -62l12 -207l-12 -188v-88l2 -275v-65q0 -47 -2 -70zM850 -51v4v-4z" />
<glyph unicode="&#xb7;" horiz-adv-x="335" d="M254 698l-4 -82h2l-6 -86v-8q-6 0 -10 -8l-7 6l-22 6l-57 -8l-21 6h-39l-16 2q-4 -2 -6 -2h-2v4q-8 6 -9 39l-2 54q-2 4 -2 13t2 11l2 41q2 14 5.5 44t7.5 46h-2q-6 6 -7 8l15 11l47 12l45 -8l59 4q25 0 35 -33l-4 -27zM152 547l20 2l59 10q2 2 2 23l3 49v18q0 2 2 4h-2 q-2 16 -3 33v57l-4 19q-18 0 -36 -2l-13 2l-6 4q-74 4 -76 4l-12 -2q-2 -2 -2 -39l-2 -59q2 -2 2 -11v-88h2q0 -2 -2 -4q4 -23 22 -22h5l41 4v-2z" />
<glyph unicode="&#xb8;" horiz-adv-x="389" d="M164 -272l-113 -7l-4 -2q0 4 2 7l-6 -2l14 43l6 4l9 20q4 12 7 20.5t5 18.5q4 23 59 162l117 2l57 8q20 0 27 -8l-4 -25h-2q-31 -61 -31 -71q0 2 2 4h2l-4 -4q-37 -88 -50 -114t-12 -26t1 -2q0 -33 -27 -32q-12 0 -43 6l-4 -2h-8zM72 -256q2 -2 34.5 0t43.5 2h24l2 6 l43 -4q61 133 64 133v-2q0 -2 1 -2t1 -2q0 2 2 4h-2q8 20 8 33l10 31q2 6 2 18q-29 -4 -37 -4l-106 8q-4 0 -10 -4l-25 -88q-14 -18 -45 -106z" />
<glyph unicode="&#xb9;" horiz-adv-x="382" d="M311 1309l-2 -19q0 -2 1 -3t0 -1t-1 -2l2 -78q-2 -2 -3 -6t-1 -20v-31q0 -10 2 -10v-39h2l-4 -10l-2 -27h2q-2 -2 -2 -19l-2 -122l-4 -82v-15h2q-2 -31 -2 -51v-12l2 -31v-16l-2 -2l2 -4q-4 0 -4 -9l2 -16h-12q0 -2 2 -4q-2 -2 -4 -2v-2q-2 2 -15 2h-71q-6 2 -35 2h-6 q-2 0 -2 2v8l-2 72v22q2 6 2 23l4 104v21q-2 0 -2 3t5 37t5 73.5t-2 39.5v9l2 8q-2 6 -2 10l2 2h-2l2 14l-2 13l-10 -21q-4 0 -4 -4v-4h-2l-7 -12h-2q0 -4 -2 -4l-2 -6v-3l-12 -6h-4q-4 0 -8 2h-13l-24 7q-2 2 -33 8l-31 6v2q-2 0 -4 2v4l2 -2q2 8 6 12v4q4 4 4 9l3 8l18 31 l8 24q10 10 10 23l4 4l13 22q0 14 16 37l2 12h2q0 4 6 11q6 18 9 18v-2q2 2 4 2h35l22 2q0 -2 4 -2v2q2 -2 4 -2h86v-2l21 2h8q4 0 6 -2h2q2 -2 2 -6l2 -4q0 -2 2 -4h2zM283 1038l2 43l-2 105l2 6q-2 2 -2 4l2 57v54l-23 -2l-59 -5h-23q-31 0 -57 -2v2q-2 -2 -6 -2l-4 -2 q-2 -4 -5.5 -8t-4.5 -7t-5 -9l-4 -2v-8q-2 -2 -2 -7l-16 -26l-2 -10l-6 -15q-6 -6 -5 -6l-8 -18q0 -2 -2 -4l-6 -19q-20 -31 -20 -41l2 2l94 -24q2 0 2 2l2 2q0 8 12 20l19 35l6 14q14 20 18 21h2q4 0 6 -8q-6 -4 -6 -13v-114h-2q0 -4 2 -4v-25q-6 -106 -6 -147v-46 q0 -8 -2 -22l2 -117h23l39 6l22 -2q20 0 21 92l-2 37q0 14 2 17q-2 0 -2 2v55h-2q4 33 4 55l-2 21q0 2 2 8v55z" />
<glyph unicode="&#xba;" horiz-adv-x="520" d="M59 999l4 103q2 14 3 49q0 70 24 100q25 74 137 74h17q55 0 109.5 -22.5t68.5 -73.5q18 -37 18 -105l2 -133q0 -129 -18 -179t-32.5 -70.5t-30 -27.5t-27.5 -9q-37 -10 -64 -11h-16l-72 -4q-49 0 -75.5 34t-31.5 69.5t-8.5 103.5t-7.5 92v10zM416 1044l-2 27l2 64 q0 84 -35 141q-72 33 -168 33q-43 0 -89 -35t-46 -105l-6 -141l2 -84q2 -10 7 -49t8 -54.5t14.5 -45t23.5 -41.5q33 -37 92 -37q121 25 131 26q45 59 53.5 80t8.5 68l2 72l-2 -5q0 57 4 86zM158 971l14 121l-4 28l10 37q2 2 13.5 15.5t15.5 15.5q20 10 47 10t53 -18 q8 -20 11.5 -45t6.5 -38.5t3 -181.5q0 -37 -23.5 -71.5t-62.5 -34.5t-59.5 35t-24.5 119v8zM295 991q0 188 -45 189q-8 0 -53 -29q-4 -8 -4 -25v-73q0 -176 32 -217h4q33 18 39 24q27 94 27 131z" />
<glyph unicode="&#xbb;" horiz-adv-x="1193" d="M471 139v62q33 10 72 49l12 8q0 4 16 27l25 16l53 55l82 78q47 47 70 62l18 18v35l4 -2l-14 16l2 -4l-25 25l-65 69h2l-70 68l-45 49h2l-35 39q-2 2 -7 6t-13 12l-4 2l-45 54h-2q-8 0 -33 24q31 53 45 54l6 10q27 8 27 20l72 70l14 16q-2 -2 -6 -2t-4 -2q16 4 49 14 l49 -49l25 -30l57 -58q10 -16 33 -32l88 -91h-2l6 -6v2l117 -123l14 -12q59 -59 82 -90l33 -29l24 -28l-10 -23l-4 -10l-43 -51q-12 -14 -40 -40t-34 -32l-33 -37h-6l-190 -184v2l-117 -111q-10 -10 -27.5 -29.5t-42.5 -43.5l-28 16l-23 29v-4q-10 29 -35 38l-53 56 q-12 12 -14 12l-21 18v-2q0 -6 -8 -6zM680 1049l-12 16h-19v-4l-41 -43q-4 -4 -18 -23q-29 -35 -66 -59l-28 -21l4 -6v2l2 -2q2 0 63 -55l-2 -2l17 -16q10 -10 12 -11l33 -37q2 0 4 -2h-2l47 -47l-2 -2l135 -135l-2 -2q8 -12 20 -20l35 -39v-4l8 -7l-55 -55 q-66 -41 -132.5 -116.5t-70.5 -79.5l-16 -13v2q-2 -2 -2 -4q-6 -8 -40 -42t-52 -42h-4v-16l24 -21l55 -61l3 2l57 -64q8 -2 12 -14l4 2l-2 2q2 0 2 3t-4 7l60 56l2 -2l12 12q0 2 2 4l2 -2q10 10 10 14l33 27q4 0 4 4v2q0 2 2 4l2 -2l244 234l4 -2l31 37q35 27 96 96l14 14 q0 4 -2 6q4 6 8 15l-6 10v-2l-20 22h-2q-4 2 -8.5 7.5t-8.5 7.5l-30 34q-18 25 -31 37v-2l-31 27h-4l2 2l-65 68q-20 31 -60 63l-71 74l-7 10q-35 31 -51 49l-37 39q-45 45 -65 64zM14 139v62q33 10 72 49l12 8q0 4 17 27l24 16l54 55l81 78q47 47 70 62l18 18v35l5 -2 l-15 16l2 -4q-12 12 -24 25l-66 69h2l-69 68l-45 49h2l-35 39q-2 2 -7.5 6t-13.5 12l-4 2l-45 54h-2q-8 0 -33 24q31 53 45 54l7 10q27 8 26 20l72 70l14 16q-2 -2 -6 -2t-4 -2q16 4 49 14l49 -49l25 -30l57 -58q10 -16 33 -32l88 -91h-2l6 -6v2l117 -123l14 -12 q59 -59 82 -90l33 -29l24 -28l-10 -23l-4 -10l-43 -51q-12 -14 -40 -40t-34 -32l-32 -37h-7l-190 -184v2l-117 -111q-10 -10 -27.5 -29.5t-41.5 -43.5l-29 16l-23 29v-4q-10 29 -34 38l-54 56q-12 12 -14 12l-20 18v-2q-1 -6 -9 -6zM223 1049l-12 16h-18v-4l-41 -43 q-4 -4 -21 -23q-27 -35 -63 -59l-29 -21l4 -6v2l2 -2q2 0 64 -55l-3 -2l17 -16q10 -10 12 -11l33 -37q2 0 4 -2h-2l47 -47l-2 -2l135 -135l-2 -2q8 -12 21 -20l34 -39v-4l9 -7l-56 -55q-66 -41 -132 -116.5t-70 -79.5l-17 -13v2q-2 -2 -2 -4q-6 -8 -40 -42t-52 -42h-4v-16 l24 -21l56 -61l2 2l57 -64q8 -2 12 -14l5 2l-2 2q2 0 2 3t-5 7l60 56l2 -2l12 12q0 2 2 4l2 -2q10 10 11 14l32 27q4 0 4 4v2q0 2 2 4l2 -2l244 234l4 -2l31 37q35 27 96 96l15 14q0 4 -2 6q6 6 8 15l-6 10v-2l-21 22h-2q-4 2 -8 7.5t-8 7.5l-31 34q-18 25 -31 37v-2l-30 27 h-5l2 2l-65 68q-20 31 -59 63l-72 74l-6 10q-35 31 -51 49l-37 39q-47 45 -66 64z" />
<glyph unicode="&#xbc;" horiz-adv-x="1218" d="M221 10l-4 -8q-4 0 -4 10.5t8 39t17.5 54t19.5 52t10 28.5l33 90q20 61 29.5 80t13.5 43q12 53 31 68l4 12q-2 0 -2 4q14 14 14 35v4q2 0 4 -2q47 139 51 144l-4 2q23 41 47.5 120.5t39 116.5t42 126t32.5 98.5t29.5 82t24.5 82.5l5 8l4 15l8 24l14 54q2 2 2 22h2 q0 4 -2 6q2 0 4 2v9q4 4 6 16q14 -8 56.5 -8t117.5 2l5 -2q35 6 73 6q2 -2 2 -10l-2 -6h2q4 6 13 6l2 -11h-2q-2 -2 -2 -22l-19 -51l-10 -25l-4 -12v-10h-2q-2 0 -17 -48q-43 -156 -67.5 -225t-120.5 -350t-126 -363.5t-43 -104t-13 -32.5l-43 -110q0 -10 -6 -17 q0 -4 -19 -35l-2 13l-4 -10h-2q0 -8 -2 -11h10q-8 -8 -14 -6t-10 0v-2l-43 2l-17 2v-2l-12 2q0 -2 -2 -4h-4v4l-70 -2q-31 0 -33 2l-2 -2l-28 -2zM561 350q0 4 8 23h2l15 53h2q31 90 30 92l5 8l4 4l24 68l4 16h2q16 49 23 74l4 4q2 20 6 27h2q2 2 2 6q10 10 17.5 38t7.5 30 l2 6q4 0 10 18l10 31l2 16h2l5 25l24 67l12 37q2 2 2 13h3q16 61 22 73.5t6 20.5l6 12q0 16 31 92l37 107l2 12q2 2 2 14q23 59 29 90h-27l-6 -2q-20 4 -81.5 4.5t-70.5 -8.5l-18 -28l-21 -56q-4 -29 -8 -39h-2q0 -12 -2 -14l-16 -55l-2 -4q-2 -2 -2 -15l-39 -102l-4 -12 l-4 -11l-15 -49v-4q-2 -2 -4 -2l-22 -84q-6 -4 -7 -18l-14 -45q-12 -23 -12 -26t2 -5q-6 -6 -6 -16l-4 -5l-39 -114q-2 -10 -7.5 -15.5t-5.5 -7.5l-2 -14l-28 -66q-2 -2 -2 -10l-8 -20q-8 -14 -9 -27q-6 -6 -6 -16l-37 -90l-2 -15h-2q0 -6 -2 -8l-22 -51q-20 -61 -21 -74 l-4 -10h-2q-2 -4 -2 -9t-2 -8l-4 -16l-27 -74l-2 -4l-2 -12l-43 -115l-6 -28l41 2v2l18 -2q119 4 140 6l6 22l4 13l2 8h4l27 82q2 8 6 19t4 16l2 8q2 0 4 10q12 39 35 94l12 31zM442 657h-2l2 2v-2zM16 1104q4 10 7.5 14t3.5 7t2 5l2 13l28 53l13 31l6 4l12 26q0 16 8 28.5 t11.5 22t9.5 15.5q4 14 8 20l29 -2l14 2l25 3q2 -2 6 -3v3l22 -5v2q2 -2 31 0q35 0 47 -2h25l8 2q4 0 6 -2h4q0 -6 1 -8t-1 -2h2q2 -2 2 -6h2l-2 -20l2 -2l-2 -5l2 -88q-2 -2 -2 -63l2 -53l-2 -2h2q0 -8 -2 -11l-4 -28h2q0 -16 -2 -21v-104q-8 -80 -8 -108.5t2 -33.5h2 q-2 -31 -2 -55v-14l2 -33l-2 -22q2 -2 2 -5l-4 -8l2 -18h-14q0 -2 4 -6q-2 -2 -6 -2v-2q-2 2 -17 2h-78q-33 0 -39 4q-4 -2 -6 -2l-4 2v8q-2 43 -2 80v26q12 41 10 72l-4 68v57q8 49 8 98h-2q2 23 2 39v62q-8 -2 -8 -15l-4 -6q-4 0 -4 -10h-4q0 -6 -18 -33h-13q-2 2 -12 2 h-16l-21 6q0 4 -12 4h-6q-12 4 -31 9q-20 2 -27 8v4zM317 954l2 9v301l3 18q0 2 2 2v10l-2 27h-60l-33 -4l-30 -2h-56v2q-2 -2 -8 -2h-6l2 -4h-2l-20 -39q0 -2 -3 -4l-16 -31v-10h-4l-20 -49l-11 -21q-8 -8 -8 -24h-2l-8 -21l110 -25q0 4 11 23l45 76q0 2 4 6v-2l4 2 q2 0 6 -10q-6 -2 -6 -12.5t2 -10.5q-2 -23 -2 -37v-82l-4 -2q0 -4 4 -4q-2 -2 -2 -14v-12q-4 -123 -4 -171.5t-2 -66.5l2 -131q2 -2 12 -2v2l8 -2l47 6q8 4 19 2q25 -6 24 14q4 20 4 84l-2 45q0 14 2 17q-2 0 -2 2v49l-2 12q4 33 4 62zM1100 713l2 -43l2 -80l2 -12l2 -37v-4 l-2 -23v-2l2 -8v-58l2 -24q0 -4 -2 -12q2 -2 2 -23v-22q2 -2 10 -3h13q4 0 32 -4q-2 -2 -2 -6l2 -12q-2 -25 -2 -41l2 -27v-4l-2 -20v-31l2 -2q0 2 -2 2l2 -14l-14 -10l-18 2q-4 -2 -11 -2h-8q-10 0 -10 -17l-2 -16h2l-4 -45q-8 -8 -6 -35t0 -29v-16l-2 -19h-2q-2 -6 -9 -8 v4l-4 -2h-49l-8 2q-2 -2 -8 -2h-43q-2 0 -2 -2h-27l-2 17l2 51q-2 2 -2 4l2 76v51h-14l-17 2q-35 -2 -46 -1t-15 1t-6 -2h-90q-4 0 -13 -2q-12 0 -12 24l2 9l-2 4h2l-2 2h2l-2 14l-8 80l-4 20l14 23q4 27 8 27v2q10 6 19 32l20 29q2 2 2 4l19 27v2l43 63l2 6q4 2 16 27 l19 27q4 8 8 14q14 16 14 18v3q4 0 12 16v2q8 0 17 25v-5l10 15v4q0 2 8 10q4 -4 8 -4l2 2q2 -2 29 -2t29 2l4 -2v2l10 -2l29 2h16q0 2 6 1t8 -1l5 2l8 -2v-14zM1083 145l-4 31l2 12v15q8 8 9 14l4 -2v-2q0 -2 2 -2l53 -2q4 20 4 27v55q0 12 2 14v6l-4 35h-4q-2 -2 -4 -2 l-45 -2q-12 0 -13 12q0 4 2 17l-2 106l-4 27v49l-2 6v43l-2 16q2 12 2 16.5t-2 6.5v66q-2 2 -14 2l-94 -2h-15l-6 -15q-2 0 -14 -20q-20 -37 -41 -58q0 -4 -2 -6v-2q-29 -29 -29 -43l-22 -35q0 -8 -25 -39l-2 -8q-2 0 -4 -8q-61 -78 -55 -94q2 -6 2 -9t-2 -3h-6l-11 -15v-12 q-2 0 -2 -4v-19q6 -90 6 -96l21 2l67 -2h111q16 -8 21 -59l-3 -31v-45h-2q-2 0 -2 -2l-2 -43l-2 -16l45 2h23l57 2q0 12 2 14v55h4q-2 4 -2 6l2 41h2zM1004 504q-6 -25 -7 -43l4 -107l-4 2q-2 2 -4 2v-8q-12 -12 -43 -12l-94 2l-4 2l-4 -2l-2 6l-2 -2q-4 0 -4 4l6 6l10 27h2 q0 12 14 35q2 0 5 2l24 39l4 8l2 2l11 16h2q0 2 14 21v2q2 0 4 2v4q2 2 2 4v2l6 6q0 4 4 4l13 21l6 4l20 18q2 0 3 2t5 5q-2 -2 -2 -13v-22q4 2 6 2l3 -6q2 0 1 -4t-1 -31zM911 432l-20 -49q0 -10 -8 -12l-6 -4h2l-7 -9q0 -2 -2 -4l23 2h80l2 19v33l-6 53v53l-8 -10h-3 q-2 -2 -2 -6h-2q0 -4 -2 -4l-16 -25l-14 -20v-3q-2 0 -7 -4v-2q-2 -2 -4 -2l7 -4q-5 -2 -7 -2zM1106 575v-2l2 2h-2z" />
<glyph unicode="&#xbd;" horiz-adv-x="1232" d="M961 403l18 11q0 4 18 18v2q4 4 7 4l8 15l4 16v49l-6 14q0 2 -13 17l-14 8l-20 4h-21l-10 -8l-6 -2q-4 -4 -4 -6h-2q-2 -2 -5 -2l-2 -4q0 -6 -6 -7l-4 -12l-4 -8l-4 -33h-2q2 -6 2 -10l-4 -20v-11h-4q-4 -4 -17 -4h-47q-2 -2 -16 -2l-14 2v-2q-2 0 -5 2l-22 -4l2 4 l-10 -2l2 -2q-12 4 -23 4v70l-2 16q0 4 4 25v8l4 27l5 22l4 14l2 9l6 8v4q2 2 2 6q10 14 10 16l14 15h2l13 14l37 19l16 4l14 4q33 8 37 8l68 2l20 4l56 -8l16 -4l10 -4l6 -2q0 -8 21 -9l2 -4l8 -2l2 -6l12 -6l15 -16l4 -13l6 -6q0 -10 6 -12l4 -19l4 -14l11 -69v-21l4 -22 l-4 -31l-5 -35l-4 -12l-2 -2q0 -2 -8 -27q-2 0 -4 -2v-6q-2 0 -4 -2l-4 -10l-8 -13l-11 -10q0 -2 2 -4l-2 -2l-4 4v-2l-20 -16q-4 0 -4 -2.5t-4 -2.5l-15 -10l-16 -4q0 -4 -12 -6l-9 -4l-22 -4v-4l-10 -4h-4q0 -2 -5 -2l-4 -5q-8 0 -14 -6l-10 -2q-2 -4 -15 -10l3 -2 q-2 -2 -9 -4l-6 -6l-12 -8l-8 -13q-2 0 -2 -4h-2q0 -4 -7 -10l5 -2l-2 -2q-2 0 -5 2l-2 -4q-2 0 -4 -2h2q0 -4 -2 -4h2q0 -4 2 -4l-2 -3l-4 5v-2q-4 -4 -4 -17v-6l6 4l-2 4q0 2 2 4l-2 4h2q0 -2 4 -2v-30l82 2q4 0 6 -2q2 2 15 2h37l10 2q2 -2 31 -2v-2h10q2 2 12 2 q14 -2 47 2l6 -6v-9q-4 -4 -4 -16l2 -27l2 -14q0 -4 -2 -6v-19h2l-2 -2h2q0 -2 -1 -5t1 -19l-2 -15v-6l-2 2q-2 0 -4 -2q2 0 2 -4h-2q0 4 -10 4l-16 -2q-6 2 -11 2l-28 -4q-2 2 -4 2l-86 -4h-15l-18 -2h-4l-19 -2q-4 0 -10 2h-2q-4 2 -14 2h-17l-45 -2h-61q-6 -2 -11 -2 l-36 4l-7 4l-4 2l-2 6l-6 5h-2q2 2 2 18v23q0 20 2 22l-2 16q0 6 2 9l-2 47l6 30l4 23q6 6 13 33l4 6q0 4 4 8q0 4 4 7t6 7v2l17 15q0 2 4 2l4 4l18 12q12 8 12 10q10 4 11 9q29 12 28 20h4q0 4 8.5 5t8.5 5l16 9l2 4l19 6v4l24 12q2 2 2 4l6 2q3 0 3 4zM928 29l28 4h35 q18 0 21 2l14 -2l111 2q2 0 4 -2v2q14 0 16 2v33h2l-4 28h-2v25q0 2 2 8l-2 6h-8q-2 2 -23 2h-20v4q-2 -2 -15 -2h-8q-2 0 -4 2v-2q-4 0 -6 2v-2q-16 0 -18 -2l-29 2l-2 2v-2q-2 0 -4 -2l-15 2v-2q-2 2 -4 2l-39 -2q-6 -2 -9 -2t-10 1t-11 1l6 2l-14 2v-2q6 0 8 -2 q-6 -2 -10 -2l-25 2v4l-8 2l2 45l4 15l2 8h4l4 8q0 4 2 6l4 9q12 12 13 14l10 4q0 2 4 6h2l18 8q0 2 2 4l11 4q18 14 24 15l10 4l19 4l2 4q8 0 12 4q10 0 17 6l8 2l4 7l8 2q0 4 2 4l6 4l19 12q8 8 12 8q4 4 6 8q6 12 12 13l15 30l10 33l4 21h2v35l2 18l-2 18v13 q-12 61 -12 63l-4 10l-10 35l-7 10h-4l-6 15h-4l-2 6l-29 16l-4 2l-10 2l-16 5l-23 4l-12 4h-21q-2 2 -10 2h-22l-25 -2l-2 -4l-12 2l2 -2q-2 0 -4 2l-21 -4l-12 -5l-17 -4l-22 -4l-2 -4l-17 -2l-10 -10l-2 -4l-10 -2v-4h-4q-2 0 -6 -4l-17 -19l-6 -16l-4 -15l-6 -18l-4 -29 l-4 -24q0 -4 2 -6l-4 -23q2 0 2 -4l-4 -16q2 -2 2 -5h-2q2 -2 2 -10h-2q2 -2 2 -28l10 -5q8 0 10 3l4 -3v3q2 -2 4 -3v3l9 -3v3q2 -2 12 -3h16v3q2 -2 6 -3l33 5l10 2l-4 4h8l3 12l-3 18l5 23l4 12q2 2 2 15l14 22l8 6l8 8q4 0 13 9q4 0 10 2l23 4v2l20 -2l14 -4l4 -4l11 -7 l16 -16q4 -6 4 -10l4 -19l4 -22l4 -37l-4 -14l-8 -25l-22 -22q-4 -4 -4 -7l-29 -14l-19 -14l-18 -8q0 -6 -12 -7l-13 -6l-26 -16l-4 -6l-15 -6l-16 -9q0 -2 -2 -4h-4l-15 -10q0 -2 -2 -4h-2l-10 -12l-24 -19q0 -6 -7 -6l-2 -6l-10 -8q-8 -14 -8 -21l-4 -26h-2l2 -9 q-4 -20 -4 -24v-31h-2q0 -12 2 -14l-4 -12q2 -2 2 -9l-4 -24l2 -2q0 -4 -2 -11v-12l2 -2q-2 -12 -2 -15t2 -3h10l16 2q4 0 8 -4l-2 -2h5v4h8l-2 -4q4 0 4 2h12l8 2l8 -2v2l7 -2v2l2 -2l16 2zM989 145l-16 2q-6 0 -10 -4h26v2zM989 418l-16 -15q0 -2 -2 -4h2l2 4l6 5 q0 2 8 10zM903 160v2q0 4 2 6h-2l-4 -6q2 -2 4 -2zM918 221h2l4 6l4 4l-6 -4zM967 256h-2q-2 -2 -4 -2q0 4 6 4v-2zM1018 446v-2q-2 0 -4 -2l2 -2l4 6h-2zM995 145l6 -2zM807 434v-2l2 2h-2zM815 289v2l-8 -2h8zM221 10l-4 -8q-4 0 -4 10.5t8 39t17.5 54t19.5 52t10 28.5 l33 90q20 61 29.5 80t13.5 43q12 53 31 68l4 12q-2 0 -2 4q14 14 14 35v4q2 0 4 -2q47 139 51 144l-4 2q23 41 47.5 120.5t39 116.5t42 126t32.5 98.5t29.5 82t24.5 82.5l5 8l4 15l8 24l14 54q2 2 2 22h2q0 4 -2 6q2 0 4 2v9q4 4 6 16q14 -8 56.5 -8t117.5 2l5 -2q35 6 73 6 q2 -2 2 -10l-2 -6h2q4 6 13 6l2 -11h-2q-2 -2 -2 -22l-19 -51l-10 -25l-4 -12v-10h-2q-2 0 -17 -48q-43 -156 -67.5 -225t-120.5 -350t-126 -363.5t-43 -104t-13 -32.5l-43 -110q0 -10 -6 -17q0 -4 -19 -35l-2 13l-4 -10h-2q0 -8 -2 -11h10q-8 -8 -14 -6t-10 0v-2l-43 2 l-17 2v-2l-12 2q0 -2 -2 -4h-4v4l-70 -2q-31 0 -33 2l-2 -2l-28 -2zM561 350q0 4 8 23h2l15 53h2q31 90 30 92l5 8l4 4l24 68l4 16h2q16 49 23 74l4 4q2 20 6 27h2q2 2 2 6q10 10 17.5 38t7.5 30l2 6q4 0 10 18l10 31l2 16h2l5 25l24 67l12 37q2 2 2 13h3q16 61 22 73.5 t6 20.5l6 12q0 16 31 92l37 107l2 12q2 2 2 14q23 59 29 90h-27l-6 -2q-20 4 -81.5 4.5t-70.5 -8.5l-18 -28l-21 -56q-4 -29 -8 -39h-2q0 -12 -2 -14l-16 -55l-2 -4q-2 -2 -2 -15l-39 -102l-4 -12l-4 -11l-15 -49v-4q-2 -2 -4 -2l-22 -84q-6 -4 -7 -18l-14 -45 q-12 -23 -12 -26t2 -5q-6 -6 -6 -16l-4 -5l-39 -114q-2 -10 -7.5 -15.5t-5.5 -7.5l-2 -14l-28 -66q-2 -2 -2 -10l-8 -20q-8 -14 -9 -27q-6 -6 -6 -16l-37 -90l-2 -15h-2q0 -6 -2 -8l-22 -51q-20 -61 -21 -74l-4 -10h-2q-2 -4 -2 -9t-2 -8l-4 -16l-27 -74l-2 -4l-2 -12 l-43 -115l-6 -28l41 2v2l18 -2q119 4 140 6l6 22l4 13l2 8h4l27 82q2 8 6 19t4 16l2 8q2 0 4 10q12 39 35 94l12 31zM442 657h-2l2 2v-2zM16 1104q4 10 7.5 14t3.5 7t2 5l2 13l28 53l13 31l6 4l12 26q0 16 8 28.5t11.5 22t9.5 15.5q4 14 8 20l29 -2l14 2l25 3q2 -2 6 -3v3 l22 -5v2q2 -2 31 0q35 0 47 -2h25l8 2q4 0 6 -2h4q0 -6 1 -8t-1 -2h2q2 -2 2 -6h2l-2 -20l2 -2l-2 -5l2 -88q-2 -2 -2 -63l2 -53l-2 -2h2q0 -8 -2 -11l-4 -28h2q0 -16 -2 -21v-104q-8 -80 -8 -108.5t2 -33.5h2q-2 -31 -2 -55v-14l2 -33l-2 -22q2 -2 2 -5l-4 -8l2 -18h-14 q0 -2 4 -6q-2 -2 -6 -2v-2q-2 2 -17 2h-78q-33 0 -39 4q-4 -2 -6 -2l-4 2v8q-2 43 -2 80v26q12 41 10 72l-4 68v57q8 49 8 98h-2q2 23 2 39v62q-8 -2 -8 -15l-4 -6q-4 0 -4 -10h-4q0 -6 -18 -33h-13q-2 2 -12 2h-16l-21 6q0 4 -12 4h-6q-12 4 -31 9q-20 2 -27 8v4zM317 954 l2 9v301l3 18q0 2 2 2v10l-2 27h-60l-33 -4l-30 -2h-56v2q-2 -2 -8 -2h-6l2 -4h-2l-20 -39q0 -2 -3 -4l-16 -31v-10h-4l-20 -49l-11 -21q-8 -8 -8 -24h-2l-8 -21l110 -25q0 4 11 23l45 76q0 2 4 6v-2l4 2q2 0 6 -10q-6 -2 -6 -12.5t2 -10.5q-2 -23 -2 -37v-82l-4 -2 q0 -4 4 -4q-2 -2 -2 -14v-12q-4 -123 -4 -171.5t-2 -66.5l2 -131q2 -2 12 -2v2l8 -2l47 6q8 4 19 2q25 -6 24 14q4 20 4 84l-2 45q0 14 2 17q-2 0 -2 2v49l-2 12q4 33 4 62z" />
<glyph unicode="&#xbe;" horiz-adv-x="1282" d="M297 10l-4 -8q-4 0 -4 10.5t8 39t17.5 54t19.5 52t10 28.5l33 90q20 61 29.5 80t15.5 43q10 53 29 68l4 12q-2 0 -2 4q14 14 14 35v4q2 0 4 -2q45 139 51 144l-4 2q23 41 47.5 120.5t38.5 116.5t42 126t33 98.5t29.5 82t24.5 82.5l4 8l4 15l9 24l14 54q2 2 2 22h2 q0 4 -2 6q2 0 4 2v9q4 4 6 16q14 -8 56 -8t118 2l4 -2q33 6 74 6q2 -2 2 -10l-2 -6h2q2 6 12 6l2 -11h-2q-2 -2 -2 -22l-18 -51l-10 -25l-4 -12v-10h-2q-2 0 -15 -48q-45 -156 -69.5 -225t-120.5 -350t-126 -363.5t-43.5 -104t-13.5 -32.5l-43 -110q0 -10 -6 -17 q0 -4 -18 -35l-2 13l-4 -10h-2q0 -8 -2 -11h10q-8 -8 -14.5 -6t-10.5 0v-2l-43 2l-16 2v-2l-12 2q0 -2 -2 -4h-4v4l-70 -2q-31 0 -33 2l-2 -2l-29 -2zM637 350q0 4 8 23h2l15 53h2q31 90 30 92l4 8l4 4l25 68l4 16h2q16 49 23 74l4 4q2 20 6 27h2q2 2 2 6q4 4 27 74 q4 0 10 18l10 31l2 16h2l4 25l25 67l12 37q2 2 2 13h2q14 61 21.5 73.5t7.5 20.5l6 12q0 16 31 92l37 107l2 12q2 2 2 14q23 59 28 90h-26l-6 -2q-20 4 -82 4.5t-70 -8.5l-18 -28l-21 -56q-4 -29 -8 -39h-2q0 -12 -2 -14l-16 -55l-2 -4q-2 -2 -3 -15l-38 -102l-5 -12l-4 -11 l-14 -49v-4q-2 -2 -4 -2l-23 -84l-20 -63q-12 -23 -12 -26t2 -5q-6 -6 -6 -16l-5 -5l-38 -114q-2 -10 -7.5 -15.5t-5.5 -7.5l-2 -14l-28 -66q-2 -2 -3 -10l-8 -20q-8 -14 -8 -27q-6 -6 -6 -16l-37 -90l-2 -15h-2q0 -6 -2 -8l-23 -51q-20 -61 -20 -74l-4 -10h-2q-2 -4 -2 -9 t-2 -8l-4 -16l-27 -74l-2 -4l-2 -12l-43 -115l-6 -28l41 2v2l18 -2q119 4 139 6l7 22l4 13l2 8h4l26 82q2 8 6.5 19t4.5 16l2 8q2 0 6 10q10 39 33 94l12 31zM518 657h-2l2 2v-2zM1180 713l2 -43l2 -80l2 -12l2 -37v-4l-2 -23v-2q0 -2 2 -8v-58l2 -24q0 -4 -2 -12 q2 -2 2 -23v-22q2 -2 10 -3h12q4 0 33 -4q-2 -2 -2 -6l2 -12q-2 -25 -2 -41l2 -27v-4l-2 -20v-31l2 -2q0 2 -2 2l2 -14l-14 -10l-19 2q-4 -2 -10 -2h-10q-8 0 -8 -17l-2 -16h2l-4 -45q-8 -8 -6 -35t0 -29v-16l-3 -19h-2q-2 -6 -8 -8v4l-4 -2h-49l-8 2q-2 -2 -8 -2h-43 q-2 0 -2 -2h-27l-2 17l2 51q-2 2 -2 4l2 76v51h-14l-17 2q-35 -2 -46 -1t-15 1t-6 -2h-91q-4 0 -12 -2q-12 0 -12 24l2 9l-2 4h2l-2 2h2l-2 14l-8 80l-4 20l14 23q4 27 8 27v2q10 6 19 32l20 29q2 2 2 4l19 27v2l43 63l2 6q4 2 16 27l18 27q4 8 11 14q12 16 12 18v3 q4 0 12 16v2q8 0 17 25v-5l10 15v4q0 2 8 10q4 -4 8 -4l2 2q2 -2 29 -2t29 2l4 -2v2q8 -2 10 -2l29 2h16q0 2 4 2l10 -2l4 2q4 0 4.5 -1t4.5 -1v-14zM1163 145l-4 31l2 12v15q8 8 8 14l5 -2q2 0 2 -2v-2l53 -2q4 20 4 27v55q0 12 2 14v6l-4 35h-4q-2 -2 -4 -2l-45 -2 q-12 0 -13 12q0 4 2 17l-2 106l-4 27v49l-2 6v43l-2 16q2 12 2 16.5t-2 6.5v66q-2 2 -14 2l-94 -2h-15l-6 -15q-2 0 -12 -20q-25 -37 -43 -58q0 -4 -2 -6v-2q-29 -29 -29 -43l-2 -2q-2 0 -4 -10l-4 -2l-12 -21q0 -8 -25 -39l-2 -8q-2 0 -4 -8q-61 -78 -55 -94q2 -6 2 -9 t-2 -3h-7l-10 -15v-12q-2 0 -2 -4v-19q6 -90 6 -96l21 2l67 -2h111q16 -8 20 -59l-2 -31v-45h-2q-2 0 -2 -2l-2 -43l-2 -16l45 2h23l57 2q0 12 2 14v55h4q-2 4 -2 6l2 41h2zM1083 504q-6 -25 -6 -43l4 -107l-4 2q-2 2 -4 2v-8q-12 -12 -43 -12l-94 2l-4 2l-4 -2l-2 6l-2 -2 q-4 0 -4 4l6 6l10 27h2q0 12 14 35q2 0 4 2l25 39l4 8l2 2l10 16h2q0 2 15 21v2q2 0 4 2v4q2 2 2 4v2l10 10l12 21l7 4l20 18q2 0 3 2t5 5q-2 -2 -2 -13v-22q2 0 6 2l2 -6q2 0 1 -4t-1 -31zM1055 408l-6 53v53l-9 -10h-2q-2 -2 -2 -6h-2q0 -4 -2 -4l-16 -25l-15 -20v-3 q-2 0 -6 -4v-2q-2 -2 -4 -2l6 -4h-2l-4 -2l-2 -6l-18 -43q0 -10 -8 -12l-7 -4h2l-6 -9q0 -2 -2 -4l23 2h80l2 19v33zM1186 575v-2l2 2h-2zM399 1313l21 -10l2 -3h4q8 -18 16 -18v-2q2 -2 4 -2v-4l7 -2v-6l20 -37q4 -16 4 -31l4 -63l-2 -11h2h-2v-16l4 -14l-4 -23l2 -2 q-2 -2 -2 -8l2 -62l-2 -30v-41l-2 -2l2 -27h-2q2 -12 2 -18.5t-2 -8.5h-2h2v-57l-8 -27q2 0 2 -2l-4 -12l4 -14h-2l-29 -66q-2 0 -4 -2l-6 -12l-10 -6q0 -4 -16.5 -13.5t-18.5 -9.5v2l-2 -2l-4 -2l-6 -2l-31 -4q-14 -6 -47 -10h-14l-31 -4v2q-2 -2 -4 -2l-31 4l-74 12v2 q-4 0 -10 2l-20 10l-11 7v6l-4 2h-4q0 4 -2 6q0 2 -2 5t-6 7q-8 16 -10 21l-13 61v78l4 -4l43 4l25 2l29 4h28l13 -12q0 -12 22 -35h2q0 -8 13 -8l12 -4q6 -6 20 -6q16 0 35 12l8 2q2 2 2 4l4 2q-4 2 9 14l2 31q-8 14 -10.5 24.5t-9.5 16.5t-7 8h-2l-10 6v2q-4 0 -8 5l-52 2 h-18l-4 -2q-4 0 -12 2v-2q-2 0 -2 2q-2 2 -2 6q0 -2 -5 -2v2q-2 0 -1 5t1 7v80q0 6 5 22l-3 5l3 8q-2 0 -3 2q2 6 7 6h2l12 2l6 -2h35l37 4q37 12 37 29l2 10v41l-9 16q-4 0 -8 6l-22 9h-8q-49 0 -59.5 -17.5t-22.5 -34.5q-2 -8 -9 -8l-49 2l-61 -2q-16 0 -21 2l-4 -2v27 q-4 12 -4 18l4 49h2l15 33l16 27q6 2 27 22h4q0 8 12 9q16 16 37 16l6 6q12 0 43 6l49 4l29 2q4 0 12 -2h19l34 -4l31 -12v-2q8 -2 8 -4zM461 1014l-2 53v10q0 12 2 15v43l-2 59q-2 2 -2 6l2 2l-10 33l-5 27q-4 4 -6 4v6q-2 0 -12 14l-45 19l-45 10h-80l-59 -4q-2 2 -4 2 l-31 -10h-6l-50 -33l-14 -19l-4 -2q-4 -10 -10 -14v-2q-6 -6 -15 -31l-4 -35l2 -2q0 -31 9 -30h6q47 0 104 14l2 2q2 -2 6 -2l7 18q8 25 57 35v2q4 0 22 -2l21 -4q8 -8 22 -8l5 -2l12 -17h2l6 -26h2l-2 -8l4 -31q0 -6 -2 -8l-6 -21l-16 -16v-2q-2 -2 -19 -6v-2l-4 -2h-12 l-27 -5h-53q-2 -4 -2 -20l2 -84h74l32 -10l13 -6q0 -2 8 -9v-2q2 0 2 -6l8 -88l-14 -22v-2q-6 -8 -22.5 -18.5t-18.5 -12.5v-2q-8 0 -8 -2h-39l-21 12q0 2 -2 2h-6l-14 17l-2 12l-7 10q-2 16 -6 21l-6 2q-31 -2 -51 -2h-8q-6 -2 -21 -3h-12q-6 0 -10 -4q0 -4 -4 -10v-41 l10 -39l4 -12l10 -20q4 -2 11.5 -9.5t7.5 -9.5l8 -6l27 -14q16 -8 28 -9l47 -8q12 0 15 -2h14v-2q43 6 53 6h6q23 8 35 8l2 5l23 4l22 12h2q6 6 9 6v4l16 21l4 2q10 37 10 47l2 4l8 41q0 4 -2 6l15 86q0 16 2 43h-2q0 10 2 14h-2q0 2 2 9v51z" />
<glyph unicode="&#xbf;" horiz-adv-x="921" d="M319 -164q-2 0 -67 10v2q-6 0 -8 2l-51 25l-25 21h-4q-4 8 -29 22h-4l-53 55q0 4 2 4h-4v7l-15 24q-2 0 -18 49l-8 21h-2q-14 49 -15 82h-2v49h2q10 55 13.5 59t3.5 8l-2 11q2 0 4 -2v2q10 35 31 78l-2 2q6 0 19 25.5t19 27.5l19 22q16 18 43 45v7q0 2 10 10q33 31 39 51 h4l43 59v4q2 2 6 3l39 84l6 24q2 2 2 19l17 53l10 49l-2 4l4 25q0 6 -2 8v2q2 0 8 6l12 -2q20 0 23 2q2 -2 14 -2l52 4q29 -4 71.5 -4t42.5 2l31 -2q2 -2 2 -12l4 -23q-4 -94 -20 -174l-2 -14l-15 -35q-20 -47 -20 -57v-5h-2q-2 -2 -2 -8h-2q0 -4 -9 -20l-24 -23v-4h-4 q-14 -31 -21 -31l-6 -10q-6 -20 -12 -20l-23 -41q0 -4 -2 -6l-39 -52q0 -6 -28.5 -47t-28.5 -57l-4 -4q-4 -25 -4 -57h4v-9h2q2 -2 3 -4t3 -4t6 -5t10.5 -7t14.5 -8q23 -14 45 -25q6 0 18 -4h17q29 0 47 8t18 10h4v7l9 6v4q8 0 10 8q10 39 35 63h4l30 5q80 10 125 10h72 l20 2q27 0 27 -14q-8 -16 -8 -39l-14 -76h-2q0 -2 -6.5 -19.5t-18.5 -42.5v-4l-6 -4v-4q0 -6 -21 -27l-6 -8v-6q-6 0 -8 -9t-8 -9l-10 -19q-2 0 -9 -6q-16 -27 -34 -41l-39 -35h-4q-8 -8 -13 -8l-6 -6l-12 -4q-31 -18 -45 -23v-2q-4 0 -6 2l-33 -8q-8 -2 -25 -6l-41 -6 q-45 -4 -67 -4l-58 4l-39 8v2zM485 874l-75 -4l-48 -2v-16q0 -16 3 -18l-3 -19h-4v-8q-2 -6 -8 -33q-12 -47 -24 -80l-21 -37l-2 -8q-10 -14 -24 -35q-47 -78 -80 -118l-21 -27v-6l-18 -17l-35 -45v-4q-8 -8 -10 -11t-6 -7l-27 -43l-6 -2v-4q0 -2 -4 -2l-13 -31h-4l-10 -43 l-2 -6l-4 -43h-2v-25l4 -39l4 -35l4 -26q4 -6 7 -17.5t5 -17.5h5v12q-8 8 -9 21l2 4h-4l-10 49q0 8 2 10l-4 33l-2 14l2 25l4 -4q0 -10 -2 -12l4 -33v-21q14 -14 14 -69h3q0 -2 1 -6.5t3 -18.5q8 -35 16 -47q0 -8 14 -22v-5q2 0 37 -34v-2q2 0 17 -15q29 -14 88 -41v-2 q2 -2 28 -8v-2q14 0 84 -21l31 -4v-2q2 -2 23.5 -2t50 3t49.5 8q47 10 61 16q70 43 76 43h8l29 25v4q39 39 45 39v4l37 41l49 92l10 57q6 18 6 33l-2 4q-2 2 -4 6q0 10 -23.5 10t-37.5 -8l-107 -2v2q-53 0 -55 -2q-6 -6 -6 -12h-2q-18 -39 -23 -39v-4q-10 -14 -19 -22.5 t-13 -16.5l-43 -25q-18 -6 -45 -6t-31 2l-39 12q-14 4 -23 13h-4l-6 8h-4l-39 53l-2 25l-4 18l2 4q0 16 2 19h2q8 43 27 84v4q6 0 8 4q12 23 29 43v4q6 6 30 39v4q2 2 6 2l3 8l12 13l10 8v4q8 6 31 29l16 22l53 94l9 19l16 65l4 31l2 80q-2 2 -2 12l2 31q0 29 -33 28h-41z M336 1229v12l-2 2q0 -2 -2 -2v2l-2 6q4 0 4 2v2l26 4v-4l35 4q2 0 133 5l21 -5l8 -2l23 7q35 0 34 -31l-6 -31l2 -10l2 -86h-8q2 -14 2 -41v-43l-16 -2l-109 -2q-133 6 -139 16l6 -2v43l-8 154q-2 0 -4 2zM510 1231l-21 2l-4 -2q-4 0 -6 2l-92 -2q-12 0 -16 -4t-4 -21l4 -96 h2l-2 -63l16 -5h23l110 -4q12 0 41 4h17l2 15l2 20l-9 84q0 39 -12 70l-43 2q-2 -2 -8 -2z" />
<glyph unicode="&#xc0;" horiz-adv-x="888" d="M74 1739l-6 14l-2 23l20 -7q2 6 12 11v4l6 4q2 6 15 6h6q14 10 41 37v10q0 16 12 19l41 51l17 -21q6 0 28 -18l-4 -4q27 -23 37 -35l18 -18h4l11 -11l16 -8l-2 -4l51 -47q20 -25 32.5 -40t27.5 -30l18 -18q6 -6 25.5 -22.5t31.5 -28.5l52 -50l-23 -2q0 -2 -3 -6t-1 -6 l-14 -12l-9 4q-49 -16 -57 -16l-8 -2l-4 6l-14 2l-87 -4h-12q-6 2 -16 4l-21 -4h-26q-4 0 -8.5 6t-9.5 12t-9 12l-16 17q-27 23 -70 69l-104 82l-9 11zM379 1552l47 2h55l8 -2l13 4q2 2 22 9l-16 16q-53 51 -135 143l-45 41v-4l-56 54q-37 31 -43 40q-18 -29 -51 -57.5 t-51 -44.5l-16 -16q25 -20 73 -68l84 -74l27 -30l8 -13h4q20 0 23 2h6q14 -2 24 -2h19zM686 1004q-4 -4 -4 -15q10 -33 27.5 -123t33.5 -135q4 -20 23.5 -112.5t24.5 -139.5q12 -23 17 -75t11 -72q8 -4 12 -29q-8 0 -6 -14.5t11 -63.5q18 -111 28 -136.5t31 -86.5 q-2 -12 -7 -12t-16 2q-25 2 -130 6t-119 8q-14 39 -50 152.5t-55 156.5l-8 9q-18 -2 -35 0q-37 2 -63 -11q14 -4 40.5 -7t39.5 -5q-6 -2 -13.5 -2t-7.5 -2l-51 6q-27 0 -37 -18l-64 -279q-10 -10 -26 -10l-45 6q-12 0 -15 -2l-4 4h-65q-98 0 -141 -6q0 2 -5.5 3t-5.5 4v3 l15 23q-6 6 -7 10l15 27q53 266 74 421q-10 0 -44 -171t-47 -218q6 27 58.5 318t87.5 434q0 -16 -2 -21v-24q76 303 106 459q-4 -4 -7 -12.5t-5 -12.5q4 47 37 111.5t67 89.5h35l180 8q66 -258 76.5 -327.5t22.5 -89t12 -29.5zM358 340q31 18 94.5 18t82.5 2q2 -2 8 -4 q14 -8 14 -20l-4 -8q12 -27 41 -132.5t53 -142.5h-8v-16q14 4 18 8q10 -6 74 -6t103 2h16l-10 61q-14 90 -59.5 230.5t-45.5 167.5v6q0 25 -26 115l-50 188q4 0 56 -150q14 -18 14 -28v-6h-4l10 -35q2 0 6 4q-4 4 -4 6l8 12l-55 248v12q0 35 -22.5 96.5t-24.5 86.5v-8 q4 -12 4 -19q-6 -12 -6 -20l12 -60q0 -6 -4 -6l-2 6q0 4 -2 4l-4 -14q-2 51 -30.5 181t-39.5 186l2 -2l-10 75q0 23 -18 23l-29 -2q-10 0 -14 4q6 6 6 8q-66 0 -154 -2q-8 -66 -32.5 -140.5t-46 -190t-48.5 -173.5h6q-14 -96 -28 -114l4 -25q0 -12 -20.5 -81t-32 -123 t-19.5 -68q0 -18 4 -19l-12 -61v-6q4 4 7 18t14 18q-4 -80 -46.5 -241.5t-46.5 -177.5l9 -5q223 41 227 41q23 35 44 136.5t32 126.5zM535 586l-25 -2l-102 4h-27q-8 0 -8 14l6 21v8q0 6 2 8l2 -2q2 6 4 37q6 106 23.5 172.5t17.5 87.5v10q0 10 14 25q-2 2 -2 23.5 t11.5 21.5t26 -64.5t32.5 -192.5t31 -167zM461 948q0 10 -6 15q-2 -4 -9 -13q-10 -18 -10 -35v-16q0 -68 -39 -274l-4 4l-4 -8l4 2l8 -23h117l8 6q-10 18 -24.5 151.5t-40.5 180.5v10zM100 496l11 2q16 66 51 286q-18 -55 -37 -157t-25 -131zM14 84l4 16zM14 80v4v-4z" />
<glyph unicode="&#xc1;" horiz-adv-x="888" d="M815 1733q-16 -20 -23.5 -20.5t-9.5 1.5q-33 -25 -84 -78q-57 -59 -84 -82q-4 0 -12 -15t-14 -15h-35q-2 2 -7 1t-22 -1h-10q-18 0 -20 2h-82l-4 -4l2 -2h-13q-2 2 -7 2t-7 2l-49 10l-19 22l-22 3l51 49q66 61 135 141l51 47l-2 2l9 4q0 4 2 4l8 4q0 4 16 13l37 37l12 10 l-2 4q18 18 29 18l18 23l52 -70l-2 -12l41 -37q6 2 8 1t5 -3t15 -6v-4l12 -10l21 6l-2 -23q0 -6 -6 -12zM465 1561l51 -7l29 5q2 -2 22 -3l11 7q0 2 2 4l28 32q12 12 23 13l47 49q45 49 84 80l-23 22q-8 8 -30 27q-49 41 -60 63l-6 5q-10 -12 -22 -23l-50 -47l2 -4l-28 -21 v2q-8 -4 -21 -16l-20 -20q-55 -66 -87 -95.5t-50 -48.5l-19 -18l27 -6q4 -4 8 -5l43 3q16 2 39 2zM678 1004q-4 -4 -4 -15q10 -33 27.5 -123t33.5 -135q4 -20 23.5 -112.5t23.5 -139.5q12 -23 17.5 -75t11.5 -72q8 -4 12 -29q-8 0 -6 -14.5t10 -63.5q18 -111 28.5 -136.5 t31.5 -86.5q-2 -12 -7.5 -12t-15.5 2q-25 2 -130 6t-120 8q-14 39 -50 152.5t-54 156.5l-8 9q-18 -2 -35 0q-37 2 -64 -11q14 -4 41 -7t39 -5q-6 -2 -13 -2t-7 -2l-51 6q-27 0 -37 -18l-64 -279q-10 -10 -26 -10l-45 6q-12 0 -15 -2l-4 4h-65q-98 0 -142 -6q0 2 -5 3t-5 4v3 l14 23q-6 6 -6 10l15 27q53 266 73 421q-10 0 -43.5 -171t-46.5 -218q6 27 58.5 318t87.5 434q0 -16 -2 -21v-24q76 303 106 459q-4 -4 -7 -12.5t-5 -12.5q4 47 36.5 111.5t67.5 89.5h35l180 8q66 -258 76 -327.5t22.5 -89t12.5 -29.5zM350 340q31 18 94.5 18t81.5 2 q2 -2 9 -4q14 -8 14 -20l-4 -8q12 -27 40.5 -132.5t53.5 -142.5h-8v-16q16 4 18 8q10 -6 73.5 -6t102.5 2h17l-11 61q-14 90 -59 230.5t-45 167.5v6q0 25 -27 115l-49 188q4 0 56 -150q14 -18 14 -28v-6h-4l10 -35q2 0 6 4q-4 4 -4 6l8 12l-55 248v12q0 35 -22.5 96.5 t-24.5 86.5v-8q4 -12 4 -19q-6 -12 -6 -20l12 -60q0 -6 -4 -6l-2 6q0 4 -2 4l-4 -14q-2 51 -31 181t-39 186l2 -2l-10 75q0 23 -18 23l-29 -2q-10 0 -14 4q6 6 6 8q-66 0 -154 -2q-8 -66 -32.5 -140.5t-46 -190t-48.5 -173.5h6q-14 -96 -28 -114l4 -25q0 -12 -20.5 -81 t-32 -123t-19.5 -68q0 -18 4 -19l-12 -61v-6q4 4 7 18t13 18q-4 -80 -46 -241.5t-46 -177.5l8 -5q223 41 228 41q23 35 44 136.5t31 126.5zM526 586l-24 -2l-103 4h-26q-8 0 -8 14l6 21v8q0 6 2 8l2 -2q2 6 4 37q6 106 23.5 172.5t17.5 87.5v10q0 10 14 25q-2 2 -2 23.5 t11.5 21.5t25.5 -64.5t32.5 -192.5t30.5 -167zM453 948q0 10 -7 15q-2 -4 -8 -13q-10 -18 -10 -35v-16q0 -68 -39 -274l-4 4l-4 -8l4 2l8 -23h117l8 6q-10 18 -24.5 151.5t-40.5 180.5v10zM92 496l10 2q16 66 52 286q-18 -55 -37 -157t-25 -131zM6 84l4 16zM6 80v4v-4z" />
<glyph unicode="&#xc2;" horiz-adv-x="888" d="M674 1526l-94 -4l-19 2l-10 -2l-14 2l-17 -2l-12 4q-37 29 -37 43l-18 14l-19 -16q-12 -16 -20 -19l-19 -26h-6q-25 0 -41 4l-24 -4l-88 4l-29 -6q-12 4 -35 10l-22 6l-5 -2q-4 0 -11 6t-7 10l-4 4l-23 5l52 49q12 12 31.5 28.5t25.5 22.5l20 20q12 12 25 29l41 49l-2 23 l18 -8l11 10v-2l14 18l8 4q0 4 10 6q0 4 13 11q2 0 18 16q6 23 21 27l38 51l11 -12l10 12l39 -49h8v-9q4 -4 4 -10l27 -28l30 -19l-2 -2l9 -6h-5l9 -6l12 -12l20 8l-2 -23q63 -80 142 -149l26 -27l27 -22l-27 -7q0 -2 -4 -6l2 -2l-12 -10l-8 2l-60 -16zM158 1567l24 -8 l17 -7v4h34q68 0 70 -2h16q14 0 29 2h4q2 -2 23 -2h4l22 23l15 20v-16q6 27 20 31l19 16l16 -16q6 0 23 -13l16 -18l-4 -4l4 -4l2 2q0 -2 2 -4l16 -17h5q20 0 22 2h4q14 -2 25 -2h18q2 2 25 2h82v-4l41 15l-84 82q-16 16 -35 37.5t-35 39.5l-43 41v-4l-29 21l2 2l-6 6 q-6 0 -24 25l-45 43l-25 -27q-16 -12 -23.5 -21.5t-13.5 -13.5l-10 -14l-29 -21v2l-14 -10l-27 -29q-27 -27 -49 -55q-39 -45 -88 -88zM682 1004q-4 -4 -4 -15q10 -33 27.5 -123t33.5 -135q4 -20 23.5 -112.5t23.5 -139.5q12 -23 17.5 -75t11.5 -72q8 -4 12 -29 q-8 0 -6 -14.5t10 -63.5q18 -111 28.5 -136.5t31.5 -86.5q-2 -12 -7 -12t-16 2q-25 2 -130 6t-120 8q-14 39 -50 152.5t-54 156.5l-8 9q-18 -2 -35 0q-37 2 -63 -11q14 -4 40.5 -7t38.5 -5q-6 -2 -13 -2t-7 -2l-51 6q-27 0 -37 -18l-64 -279q-10 -10 -26 -10l-45 6 q-12 0 -15 -2l-4 4h-65q-98 0 -142 -6q0 2 -5 3t-5 4v3l15 23q-6 6 -7 10l15 27q53 266 73 421q-10 0 -43.5 -171t-46.5 -218q6 27 58.5 318t87.5 434q0 -16 -2 -21v-24q76 303 106 459q-4 -4 -7 -12.5t-5 -12.5q4 47 37 111.5t67 89.5h35l180 8q66 -258 76 -327.5t22.5 -89 t12.5 -29.5zM354 340q31 18 94.5 18t81.5 2q2 -2 9 -4q14 -8 14 -20l-4 -8q12 -27 40.5 -132.5t53.5 -142.5h-8v-16q16 4 18 8q10 -6 74 -6t102 2h17l-10 61q-14 90 -59.5 230.5t-45.5 167.5v6q0 25 -26 115l-50 188q4 0 56 -150q14 -18 14 -28v-6h-4l10 -35q2 0 6 4 q-4 4 -4 6l8 12l-55 248v12q0 35 -22.5 96.5t-24.5 86.5v-8q4 -12 4 -19q-6 -12 -6 -20l12 -60q0 -6 -4 -6l-2 6q0 4 -2 4l-4 -14q-2 51 -30.5 181t-39.5 186l2 -2l-10 75q0 23 -18 23l-29 -2q-10 0 -14 4q6 6 6 8q-66 0 -154 -2q-8 -66 -32.5 -140.5t-46 -190t-48.5 -173.5 h6q-14 -96 -28 -114l4 -25q0 -12 -20.5 -81t-32 -123t-19.5 -68q0 -18 4 -19l-12 -61v-6q4 4 7 18t13 18q-4 -80 -46 -241.5t-46 -177.5l8 -5q223 41 228 41q23 35 44 136.5t32 126.5zM530 586l-24 -2l-103 4h-26q-8 0 -8 14l6 21v8q0 6 2 8l2 -2q2 6 4 37q6 106 23.5 172.5 t17.5 87.5v10q0 10 14 25q-2 2 -2 23.5t11.5 21.5t25.5 -64.5t32.5 -192.5t31.5 -167zM457 948q0 10 -6 15q-2 -4 -9 -13q-10 -18 -10 -35v-16q0 -68 -39 -274l-4 4l-4 -8l4 2l8 -23h117l8 6q-10 18 -24.5 151.5t-40.5 180.5v10zM96 496l10 2q16 66 52 286q-18 -55 -37 -157 t-25 -131zM10 84l4 16zM10 80v4v-4z" />
<glyph unicode="&#xc3;" horiz-adv-x="888" d="M293 1581q8 -10 8 -14l18 -35l-16 4l2 -8l-24 4q-18 6 -95 6l-137 -4h-22l6 20q53 174 82.5 211t60.5 72q61 66 162.5 66t169.5 -91q37 -55 82 -57l14 2h2q29 0 48.5 55.5t31.5 65.5l170 6q4 0 10 2q33 0 33 -53t-33 -129q-66 -147 -147 -174l-35 -4l-43 -4q-27 0 -79 10 t-90 69.5t-54 61.5q-18 6 -42 6t-52.5 -19.5t-28.5 -54.5zM70 1567l108 2q37 0 86 -4q-2 2 -2 12q0 123 125 123q39 0 64.5 -19.5t35.5 -42.5q29 -66 80 -76t72 -10l74 9q90 59 141 206q-8 33 -8 52.5t6 29.5v4l-150 -4q-8 -12 -20 -50t-31.5 -56.5t-58.5 -18.5t-68.5 22.5 t-49 51.5t-55.5 51.5t-96.5 22.5t-125.5 -51q-31 -25 -71 -106.5t-56 -147.5zM678 1004q-4 -4 -4 -15q10 -33 27.5 -123t33.5 -135q4 -20 23.5 -112.5t23.5 -139.5q12 -23 17.5 -75t11.5 -72q8 -4 12 -29q-8 0 -6 -14.5t10 -63.5q18 -111 28.5 -136.5t31.5 -86.5 q-2 -12 -7.5 -12t-15.5 2q-25 2 -130 6t-120 8q-14 39 -50 152.5t-54 156.5l-8 9q-18 -2 -35 0q-37 2 -64 -11q14 -4 41 -7t39 -5q-6 -2 -13 -2t-7 -2l-51 6q-27 0 -37 -18l-64 -279q-10 -10 -26 -10l-45 6q-12 0 -15 -2l-4 4h-65q-98 0 -142 -6q0 2 -5 3t-5 4v3l14 23 q-6 6 -6 10l15 27q53 266 73 421q-10 0 -43.5 -171t-46.5 -218q6 27 58.5 318t87.5 434q0 -16 -2 -21v-24q76 303 106 459q-4 -4 -7 -12.5t-5 -12.5q4 47 36.5 111.5t67.5 89.5h35l180 8q66 -258 76 -327.5t22.5 -89t12.5 -29.5zM350 340q31 18 94.5 18t81.5 2q2 -2 9 -4 q14 -8 14 -20l-4 -8q12 -27 40.5 -132.5t53.5 -142.5h-8v-16q16 4 18 8q10 -6 73.5 -6t102.5 2h17l-11 61q-14 90 -59 230.5t-45 167.5v6q0 25 -27 115l-49 188q4 0 56 -150q14 -18 14 -28v-6h-4l10 -35q2 0 6 4q-4 4 -4 6l8 12l-55 248v12q0 35 -22.5 96.5t-24.5 86.5v-8 q4 -12 4 -19q-6 -12 -6 -20l12 -60q0 -6 -4 -6l-2 6q0 4 -2 4l-4 -14q-2 51 -31 181t-39 186l2 -2l-10 75q0 23 -18 23l-29 -2q-10 0 -14 4q6 6 6 8q-66 0 -154 -2q-8 -66 -32.5 -140.5t-46 -190t-48.5 -173.5h6q-14 -96 -28 -114l4 -25q0 -12 -20.5 -81t-32 -123t-19.5 -68 q0 -18 4 -19l-12 -61v-6q4 4 7 18t13 18q-4 -80 -46 -241.5t-46 -177.5l8 -5q223 41 228 41q23 35 44 136.5t31 126.5zM526 586l-24 -2l-103 4h-26q-8 0 -8 14l6 21v8q0 6 2 8l2 -2q2 6 4 37q6 106 23.5 172.5t17.5 87.5v10q0 10 14 25q-2 2 -2 23.5t11.5 21.5t25.5 -64.5 t32.5 -192.5t30.5 -167zM453 948q0 10 -7 15q-2 -4 -8 -13q-10 -18 -10 -35v-16q0 -68 -39 -274l-4 4l-4 -8l4 2l8 -23h117l8 6q-10 18 -24.5 151.5t-40.5 180.5v10zM92 496l10 2q16 66 52 286q-18 -55 -37 -157t-25 -131zM6 84l4 16zM6 80v4v-4z" />
<glyph unicode="&#xc4;" horiz-adv-x="888" d="M379 1747q-4 -4 -4 -23l-4 -69q-2 -2 -2 -19h2q0 -2 -2 -4l2 -4l-2 -16l2 -13q-2 -2 -2 -20v-18h-4v-7q-4 0 -9 -4v-4q-4 0 -6 6q-6 0 -18 4l-21 -2h-16q-29 -4 -40 -4t-44 4l-33 2q-20 0 -22 -2v5q-6 2 -6 8v26q-2 2 -3 31v16l-2 17q0 2 2 4v22l5 29q2 6 4 17.5t4 23.5 h-2q-6 6 -6 8h2q0 4 16 11v2q18 6 37 6l57 -6h74q2 2 15.5 2t21.5 -9l2 -14zM555 1780l57 -6h74q2 2 15.5 2t21.5 -9l2 -14q-2 -2 -2 -16l-4 -25v-57q-2 -2 -2 -19h2q0 -2 -2 -4l2 -4l-2 -16l2 -13q-2 -2 -2 -20v-18h-4v-7q-4 0 -8 -4v-4q-4 0 -7 6q-6 0 -18 4l-21 -2h-16 q-29 -4 -40 -4t-44 4l-33 2q-20 0 -22 -2v5q-6 2 -6 8v26q-2 2 -2 31v16l-2 17q0 2 2 4v22l4 29q2 6 4 17.5t4 23.5h-2q-6 6 -6 8h2q0 4 16 11v2q19 6 37 6zM651 1581h23q27 0 28 25l3 43v20l-3 29v26q-2 2 -2 8.5t-2 8.5l-32 -2q-4 0 -11 2l-24 4h-78q-18 0 -21 2l-10 -2 q-2 -2 -2 -23l-2 -39q2 -2 2 -10l-2 -10l4 -27v-39q0 -2 -2 -4h2q2 -4 2 -10q0 -10 19 -10l37 4v-2l55 6l16 -2v2zM303 1581h23q27 0 28 25l2 43v20l-2 29v26q-2 2 -2 8.5t-2 8.5l-33 -2q-4 0 -10 2l-24 4h-78q-18 0 -21 2l-10 -2q-2 -2 -2 -23l-2 -39q2 -2 2 -10l-2 -10 l4 -27v-39q0 -2 -2 -4h2q2 -4 2 -10q0 -10 19 -10l36 4v-2l56 6l16 -2v2zM831 319l3 -16q-8 0 -6.5 -14.5t10.5 -63.5q18 -111 28.5 -136.5t30.5 -86.5q-4 -12 -8 -12t-15 2q-25 2 -130 6t-119 8q-14 39 -50 152.5t-55 156.5l-8 9q-18 -2 -33 0q-39 2 -65 -11q14 -4 40.5 -7 t39.5 -5q-6 -2 -13.5 -2t-7.5 -2l-51 6q-29 0 -37 -18l-63 -279q-10 -10 -27 -10l-45 6q-12 0 -14 -2l-5 4h-65q-98 0 -141 -6q0 2 -5.5 3t-5.5 4t2 3l13 23q-6 6 -6 10l14 27q53 266 74 421q-10 0 -44 -171t-47 -218q6 27 58.5 318t87.5 434q0 -16 -2 -21v-24 q76 303 106 459q-4 -4 -7 -12.5t-5 -12.5q4 47 37 111.5t67 89.5h35l181 8q66 -258 76 -327.5t22 -89t11 -26t-2 -10.5t4 -22.5t22.5 -108.5t33.5 -135q4 -20 23.5 -112.5t24.5 -139.5q12 -23 17 -75t11 -72q10 -5 10 -13zM360 340q31 18 94.5 18t82.5 2q2 -2 8 -4 q14 -8 14 -20l-4 -8q12 -27 41 -132.5t53 -142.5h-8v-16q14 4 18 8q8 -6 73 -6t104 2h16l-10 61q-14 90 -59.5 230.5t-45.5 167.5v6q0 25 -24 115l-51 188q4 0 55 -150q14 -18 14 -28v-6h-4l10 -35q2 0 6 4q-4 4 -4 6l9 12l-56 248v12q0 35 -22.5 96.5t-24.5 86.5v-8 q4 -12 4 -19q-6 -12 -6 -20l12 -60q0 -6 -4 -6l-2 6q0 4 -2 4l-4 -14q-2 51 -30.5 181t-39.5 186l2 -2l-10 75q0 23 -18 23l-29 -2q-10 0 -14 4q6 6 6 8q-66 0 -154 -2q-8 -66 -32.5 -140.5t-46 -190t-48.5 -173.5h7q-14 -96 -29 -114l4 -25q0 -12 -20.5 -81t-32 -123 t-19.5 -68q0 -18 4 -19l-12 -61v-6q4 4 7 18t14 18q-4 -80 -46.5 -241.5t-46.5 -177.5l9 -5q223 41 227 41q23 35 44 136.5t32 126.5zM537 586l-25 -2l-102 4h-27q-8 0 -8 14l6 21v8q0 6 2 8l2 -2q2 6 4 37q6 106 23.5 172.5t17.5 87.5v10q0 10 14 25q-2 2 -2 23.5 t11.5 21.5t26 -64.5t32.5 -192.5t31 -167zM463 948q0 10 -6 15q-2 -4 -6 -13q-12 -18 -13 -35v-16q0 -68 -39 -274l-4 4l-4 -8l4 2l8 -23h117l8 6q-10 18 -24.5 151.5t-40.5 180.5v10zM102 496l11 2q16 66 51 286q-18 -55 -37 -157t-25 -131zM16 84l4 16zM16 80v4v-4z" />
<glyph unicode="&#xc5;" horiz-adv-x="888" d="M637 1769v-16q0 -12 -2 -14v-29q0 -98 -55 -154q-39 -20 -71 -23t-46 -7h-39q-2 -2 -23 -2h-22q-125 20 -125 176v76q16 74 57 104.5t109 30.5h8l76 -2q76 -14 104.5 -53.5t28.5 -86.5zM496 1892q-4 0 -7 2h-61q-147 0 -158 -120v-105q0 -23 11 -61q23 -51 102 -68h18 q18 0 21 2h63q6 2 25 4q33 4 57 21q31 31 42.5 58.5t11.5 80.5v63q0 45 -19 68l2 -10q-27 49 -100 65h-8zM426 1835q4 0 14 -2h15l-6 2l32 -2q59 -14 68 -37q14 -14 14 -41q0 -100 -28 -129v-6q-27 -14 -68 -18h-37l-31 -3q-37 8 -50 24.5t-15 46.5t-4 36v23l2 18v14 q0 74 94 74zM469 1819q-2 0 -4 -2q-2 2 -12 2h-35q-31 0 -40 -8.5t-14.5 -12.5t-8.5 -14t-5 -15.5t-3 -19.5t-1 -20v-43q0 -61 55 -70h45q49 0 75 18.5t26 73.5v45q0 39 -23 53q-10 4 -28.5 7.5t-24.5 5.5h-2zM831 319l3 -16q-8 0 -6.5 -14.5t10.5 -63.5 q18 -111 28.5 -136.5t30.5 -86.5q-4 -12 -8 -12t-15 2q-25 2 -130 6t-119 8q-14 39 -50 152.5t-55 156.5l-8 9q-18 -2 -33 0q-39 2 -65 -11q14 -4 40.5 -7t39.5 -5q-6 -2 -13.5 -2t-7.5 -2l-51 6q-29 0 -37 -18l-63 -279q-10 -10 -27 -10l-45 6q-12 0 -14 -2l-5 4h-65 q-98 0 -141 -6q0 2 -5.5 3t-5.5 4t2 3l13 23q-6 6 -6 10l14 27q53 266 74 421q-10 0 -44 -171t-47 -218q6 27 58.5 318t87.5 434q0 -16 -2 -21v-24q76 303 106 459q-4 -4 -7 -12.5t-5 -12.5q4 47 37 111.5t67 89.5h35l181 8q66 -258 76 -327.5t22 -89t11 -26t-2 -10.5 t4 -22.5t22.5 -108.5t33.5 -135q4 -20 23.5 -112.5t24.5 -139.5q12 -23 17 -75t11 -72q10 -5 10 -13zM360 340q31 18 94.5 18t82.5 2q2 -2 8 -4q14 -8 14 -20l-4 -8q12 -27 41 -132.5t53 -142.5h-8v-16q14 4 18 8q8 -6 73 -6t104 2h16l-10 61q-14 90 -59.5 230.5 t-45.5 167.5v6q0 25 -24 115l-51 188q4 0 55 -150q14 -18 14 -28v-6h-4l10 -35q2 0 6 4q-4 4 -4 6l9 12l-56 248v12q0 35 -22.5 96.5t-24.5 86.5v-8q4 -12 4 -19q-6 -12 -6 -20l12 -60q0 -6 -4 -6l-2 6q0 4 -2 4l-4 -14q-2 51 -30.5 181t-39.5 186l2 -2l-10 75q0 23 -18 23 l-29 -2q-10 0 -14 4q6 6 6 8q-66 0 -154 -2q-8 -66 -32.5 -140.5t-46 -190t-48.5 -173.5h7q-14 -96 -29 -114l4 -25q0 -12 -20.5 -81t-32 -123t-19.5 -68q0 -18 4 -19l-12 -61v-6q4 4 7 18t14 18q-4 -80 -46.5 -241.5t-46.5 -177.5l9 -5q223 41 227 41q23 35 44 136.5 t32 126.5zM537 586l-25 -2l-102 4h-27q-8 0 -8 14l6 21v8q0 6 2 8l2 -2q2 6 4 37q6 106 23.5 172.5t17.5 87.5v10q0 10 14 25q-2 2 -2 23.5t11.5 21.5t26 -64.5t32.5 -192.5t31 -167zM463 948q0 10 -6 15q-2 -4 -6 -13q-12 -18 -13 -35v-16q0 -68 -39 -274l-4 4l-4 -8l4 2 l8 -23h117l8 6q-10 18 -24.5 151.5t-40.5 180.5v10zM102 496l11 2q16 66 51 286q-18 -55 -37 -157t-25 -131zM16 84l4 16zM16 80v4v-4z" />
<glyph unicode="&#xc6;" horiz-adv-x="1466" d="M1425 293q12 -14 13 -45v-35l-8 -193l-15 -14h-594l-147 -10q-84 8 -94.5 10t-9.5 9.5t1 12.5t2 7q-4 29 -4 47l2 65q-43 70 -63 121l-8 8q-8 -2 -43 -2q-66 2 -84 -36q-55 -188 -66 -232q-10 -10 -40.5 -8t-69.5 2l-140 2q-39 0 -49 -4q0 2 -6 4t-6 5t2 5q6 2 9 10.5 t5 10.5q-6 6 -6 10l68 348v4q18 240 73 400q123 537 144.5 582.5t36.5 45.5h75l205 11l49 -4q47 0 242 12q10 -10 239.5 -10t250.5 10l38 -8q6 -37 7 -74l-4 -123v-25q-2 -39 -3 -67v-10q-115 -16 -208 -17l-97 4l-239 -8l-4 -8l2 -27q0 -6 -3.5 -87t1.5 -118l8 -8l250 -4 q8 -14 8 -39l-4 -258v-2q-49 6 -79 6t-36 -2h-84q-14 -4 -45 -10q-2 2 -4 2q-8 0 -8 -106.5t10 -145.5q-8 -8 -8 -10l8 -4l354 -6q86 0 176 6zM1417 256q-4 12 -4 18q-55 -10 -176 -10l-342 8l-29 4l-2 97l13 180v27q41 6 69 6l49 -2l125 4l4 235q0 16 -2 19l-243 4l-19 18 q-6 31 -6 76l4 135l4 60l262 8q20 -4 29 -4h29q135 0 225 12q4 20 4 143t-27 123h-2q-102 -6 -217 -6h-155q-63 0 -115 10q-190 -12 -236 -12l-49 4l-151 -12l-66 2h-69q-23 -92 -67 -271.5t-54 -221.5t-37 -160.5t-35 -161.5t-27 -146q-20 -119 -65 -422l29 5 q109 0 162 -4.5t56 -4.5t11 29t16.5 63.5t14.5 52t14 44t11 38t6 22.5t7.5 13.5t8.5 6.5t12 3t20.5 -1t63.5 10l53 -16q18 -53 68 -129v-37l-2 -47q0 -6 4 -35q-2 -2 -2 -4q6 -6 22 -6v2q25 -8 70 -9l131 13q16 0 45 -4h123q201 0 297 2l129 2l8 211v16zM524 559l-94 -2 q-45 0 -56.5 10.5t-11.5 50t15 78.5l14 37l25 107l37 88l102 -353zM420 582l51 -2q41 0 59 4l-81 282h-7l-36 -147q-20 -86 -21 -88l-4 2q-6 -6 -6 -28.5t12 -22.5h33z" />
</font>
</defs>
</svg>
